<svg width="199" height="116" viewBox="0 0 199 116" fill="none" xmlns="http://www.w3.org/2000/svg">
<path d="M196.153 3.66109C180.316 2.07018 169.796 3.87524 156.824 13.1436C145.109 21.5135 135.707 35.7638 127.199 47.2245C116.665 61.4138 92.0216 83.1607 73.2654 71.9493C58.7018 63.2439 58.1746 41.8668 75.6578 36.4242C82.3979 34.326 90.2839 40.0218 91.1873 46.9396C92.163 54.4114 85.7969 62.453 81.014 67.4291C68.1689 80.7929 48.8735 73.1614 33.557 79.567C19.2472 85.5515 13.4663 97.4566 8.80993 111.504C8.41108 112.707 5.96663 108.012 5.24891 106.907C2.61782 102.856 2.97554 105.18 4.9649 108.243C6.24432 110.213 7.92678 115.076 9.85785 112.231C11.251 110.178 15.163 107.378 17.3147 105.981" stroke="#9FC2FD" stroke-width="5" stroke-linecap="round"/>
</svg>
