<svg width="197" height="117" viewBox="0 0 197 117" fill="none" xmlns="http://www.w3.org/2000/svg">
<path d="M2.78113 2.95648C9.6992 17.2906 16.7351 25.3174 31.4157 31.5354C44.6732 37.1507 61.7358 37.7209 75.9532 38.9873C93.5556 40.5551 124.974 50.2044 125.215 72.0546C125.402 89.0207 107.45 100.64 93.6747 88.5766C88.364 83.926 89.1 74.226 94.5264 69.8412C100.387 65.1053 110.57 66.3315 117.312 67.8096C135.418 71.7793 138.993 92.2188 152.458 101.931C165.037 111.006 178.208 109.714 192.619 106.345C193.853 106.056 191.127 110.593 190.56 111.783C188.48 116.143 190.275 114.624 191.847 111.327C192.859 109.207 196.126 105.231 192.691 105.071C190.213 104.956 185.781 103.084 183.466 101.979" stroke="#EF9C99" stroke-width="5" stroke-linecap="round"/>
</svg>
