<svg width="64" height="64" viewBox="0 0 64 64" fill="none" xmlns="http://www.w3.org/2000/svg">
<path d="M50.116 45.2373L40.5 35.6213L35.6213 40.5L45.2373 50.116C47.5535 52.4322 50.443 54.0918 53.6107 54.9254L54.5661 55.1768C54.9364 55.2743 55.2743 54.9364 55.1768 54.5661L54.9254 53.6107C54.0918 50.443 52.4322 47.5535 50.116 45.2373Z" fill="#FFF4D9" stroke="black" stroke-width="3" stroke-linejoin="round"/>
<path fill-rule="evenodd" clip-rule="evenodd" d="M17.6348 36.0406C18.8064 34.869 18.8064 32.9695 17.6348 31.7979L11.5058 25.669C7.91301 22.0761 7.91301 16.251 11.5058 12.6582L12.9723 11.1917C16.5652 7.59887 22.3903 7.59886 25.9831 11.1917L32.1121 17.3207C33.2837 18.4922 35.1832 18.4922 36.3547 17.3207L37.2072 16.4682C40.3314 13.344 45.3967 13.344 48.5209 16.4682L51.8791 19.8263C53.0507 20.9979 53.0507 22.8974 51.8791 24.069L23.8263 52.1218C22.6547 53.2934 20.7553 53.2934 19.5837 52.1218L16.2255 48.7636C13.1013 45.6394 13.1013 40.5741 16.2255 37.4499L17.6348 36.0406Z" fill="#D27C2C"/>
<path d="M11.5058 25.669L12.5665 24.6083L12.5665 24.6083L11.5058 25.669ZM11.5058 12.6582L12.5665 13.7189L12.5665 13.7189L11.5058 12.6582ZM12.9723 11.1917L11.9117 10.131L11.9117 10.131L12.9723 11.1917ZM25.9831 11.1917L27.0438 10.131L25.9831 11.1917ZM37.2072 16.4682L36.1466 15.4075L36.1466 15.4075L37.2072 16.4682ZM48.5209 16.4682L47.4603 17.5288L47.4603 17.5288L48.5209 16.4682ZM16.2255 48.7636L17.2861 47.7029L17.2861 47.703L16.2255 48.7636ZM16.2255 37.4499L17.2862 38.5106L17.2862 38.5106L16.2255 37.4499ZM23.8263 52.1218L22.7657 51.0611L23.8263 52.1218ZM19.5837 52.1218L20.6443 51.0611L19.5837 52.1218ZM51.8791 24.069L52.9398 25.1296L51.8791 24.069ZM32.1121 17.3207L33.1727 16.26L32.1121 17.3207ZM36.3547 17.3207L35.2941 16.26L35.2941 16.26L36.3547 17.3207ZM17.6348 31.7979L18.6955 30.7373L17.6348 31.7979ZM17.6348 36.0406L18.6955 37.1012L17.6348 36.0406ZM12.5665 24.6083L18.6955 30.7373L16.5742 32.8586L10.4452 26.7296L12.5665 24.6083ZM12.5665 13.7189C9.55946 16.7259 9.55946 21.6013 12.5665 24.6083L10.4452 26.7296C6.26656 22.551 6.26656 15.7761 10.4452 11.5975L12.5665 13.7189ZM14.033 12.2523L12.5665 13.7189L10.4452 11.5975L11.9117 10.131L14.033 12.2523ZM24.9224 12.2523C21.9154 9.24531 17.04 9.24531 14.033 12.2523L11.9117 10.131C16.0903 5.95242 22.8652 5.95242 27.0438 10.131L24.9224 12.2523ZM31.0514 18.3813L24.9224 12.2523L27.0438 10.131L33.1727 16.26L31.0514 18.3813ZM38.2679 17.5288L37.4154 18.3813L35.2941 16.26L36.1466 15.4075L38.2679 17.5288ZM47.4603 17.5288C44.9219 14.9904 40.8063 14.9904 38.2679 17.5288L36.1466 15.4075C39.8566 11.6975 45.8716 11.6975 49.5816 15.4075L47.4603 17.5288ZM50.8185 20.887L47.4603 17.5288L49.5816 15.4075L52.9398 18.7657L50.8185 20.887ZM22.7657 51.0611L50.8185 23.0083L52.9398 25.1296L24.887 53.1825L22.7657 51.0611ZM17.2861 47.703L20.6443 51.0611L18.523 53.1825L15.1648 49.8243L17.2861 47.703ZM17.2862 38.5106C14.7477 41.049 14.7477 45.1645 17.2861 47.7029L15.1648 49.8243C11.4548 46.1143 11.4549 40.0992 15.1648 36.3892L17.2862 38.5106ZM18.6955 37.1012L17.2862 38.5106L15.1648 36.3892L16.5742 34.9799L18.6955 37.1012ZM24.887 53.1825C23.1296 54.9398 20.2804 54.9398 18.523 53.1825L20.6443 51.0611C21.2301 51.6469 22.1799 51.6469 22.7657 51.0611L24.887 53.1825ZM52.9398 18.7657C54.6971 20.523 54.6972 23.3723 52.9398 25.1296L50.8185 23.0083C51.4043 22.4225 51.4043 21.4728 50.8185 20.887L52.9398 18.7657ZM33.1727 16.26C33.7585 16.8458 34.7083 16.8458 35.2941 16.26L37.4154 18.3813C35.658 20.1387 32.8088 20.1387 31.0514 18.3813L33.1727 16.26ZM18.6955 30.7373C20.4528 32.4946 20.4528 35.3439 18.6955 37.1012L16.5742 34.9799C17.1599 34.3941 17.1599 33.4444 16.5742 32.8586L18.6955 30.7373Z" fill="black"/>
<path d="M17.4998 15.5002C20.4998 13.5002 22.4998 16.5002 25.4999 19.5002" stroke="black" stroke-width="3" stroke-linecap="round"/>
</svg>
