<svg width="35" height="43" viewBox="0 0 35 43" fill="none" xmlns="http://www.w3.org/2000/svg">
<path d="M17.2929 0.0625C12.7656 0.067566 8.42521 1.8438 5.22394 5.00152C2.02266 8.15923 0.221933 12.4406 0.216797 16.9062C0.216797 31.3191 15.7405 42.2044 16.4022 42.66C16.6632 42.8403 16.9742 42.9371 17.2929 42.9371C17.6116 42.9371 17.9225 42.8403 18.1835 42.66C18.8452 42.2044 34.3689 31.3191 34.3689 16.9062C34.3638 12.4406 32.5631 8.15923 29.3618 5.00152C26.1605 1.8438 21.8202 0.067566 17.2929 0.0625ZM17.2929 10.7812C18.521 10.7812 19.7215 11.1405 20.7427 11.8135C21.7638 12.4865 22.5597 13.4431 23.0297 14.5623C23.4997 15.6815 23.6226 16.913 23.383 18.1012C23.1434 19.2893 22.552 20.3807 21.6836 21.2373C20.8152 22.0939 19.7088 22.6772 18.5043 22.9136C17.2998 23.1499 16.0512 23.0286 14.9166 22.565C13.782 22.1014 12.8122 21.3164 12.1299 20.3091C11.4476 19.3019 11.0834 18.1177 11.0834 16.9062C11.0834 15.2818 11.7376 13.7239 12.9021 12.5752C14.0666 11.4266 15.646 10.7812 17.2929 10.7812Z" fill="white"/>
</svg>
