<svg width="117" height="39" viewBox="0 0 117 39" fill="none" xmlns="http://www.w3.org/2000/svg">
<g clip-path="url(#clip0_701_20832)">
<path d="M15.329 13.6051V17.4294H24.4699C24.1901 19.5747 23.475 21.1448 22.3868 22.2486C21.0498 23.5855 18.9667 25.0468 15.329 25.0468C9.70142 25.0468 5.30197 20.5075 5.30197 14.8799C5.30197 9.25233 9.70142 4.71297 15.329 4.71297C18.3604 4.71297 20.5835 5.90999 22.2158 7.44902L24.9052 4.75961C22.6355 2.55211 19.5885 0.873169 15.329 0.873169C7.61829 0.873169 1.13571 7.15365 1.13571 14.8643C1.13571 22.575 7.61829 28.8555 15.329 28.8555C19.4952 28.8555 22.6355 27.4875 25.0917 24.938C27.6101 22.4196 28.403 18.8596 28.403 15.9992C28.403 15.1131 28.3408 14.2892 28.2009 13.6051H15.329Z" fill="#4285F4"/>
<path d="M39.8291 10.496C34.8389 10.496 30.7659 14.2891 30.7659 19.5281C30.7659 24.7203 34.8389 28.5601 39.8291 28.5601C44.8193 28.5601 48.8923 24.7359 48.8923 19.5281C48.8923 14.2891 44.8193 10.496 39.8291 10.496ZM39.8291 25.0002C37.0931 25.0002 34.7301 22.746 34.7301 19.5281C34.7301 16.279 37.0931 14.0559 39.8291 14.0559C42.5652 14.0559 44.9281 16.279 44.9281 19.5281C44.9281 22.746 42.5652 25.0002 39.8291 25.0002Z" fill="#EA4335"/>
<path d="M84.2589 12.5169H84.119C83.2329 11.4598 81.5228 10.496 79.362 10.496C74.8537 10.496 70.9206 14.429 70.9206 19.5281C70.9206 24.596 74.8537 28.5601 79.362 28.5601C81.5228 28.5601 83.2329 27.5963 84.119 26.5081H84.2589V27.7673C84.2589 31.2185 82.4089 33.0684 79.4397 33.0684C77.0146 33.0684 75.5066 31.3273 74.8848 29.8504L71.4336 31.2806C72.4286 33.6747 75.0558 36.6128 79.4397 36.6128C84.0879 36.6128 88.021 33.8768 88.021 27.2077V10.9623H84.2589V12.5169ZM79.704 25.0002C76.9679 25.0002 74.8848 22.6683 74.8848 19.5281C74.8848 16.3412 76.9679 14.0559 79.704 14.0559C82.4089 14.0559 84.5232 16.3878 84.5232 19.5591C84.5387 22.7149 82.4089 25.0002 79.704 25.0002Z" fill="#4285F4"/>
<path d="M60.0386 10.496C55.0484 10.496 50.9754 14.2891 50.9754 19.5281C50.9754 24.7203 55.0484 28.5601 60.0386 28.5601C65.0288 28.5601 69.1018 24.7359 69.1018 19.5281C69.1018 14.2891 65.0288 10.496 60.0386 10.496ZM60.0386 25.0002C57.3025 25.0002 54.9396 22.746 54.9396 19.5281C54.9396 16.279 57.3025 14.0559 60.0386 14.0559C62.7746 14.0559 65.1376 16.279 65.1376 19.5281C65.1376 22.746 62.7746 25.0002 60.0386 25.0002Z" fill="#FBBC05"/>
<path d="M91.1301 1.24622H95.0321V28.5601H91.1301V1.24622Z" fill="#34A853"/>
<path d="M107.08 25.0002C105.059 25.0002 103.629 24.083 102.696 22.2641L114.775 17.2739L114.371 16.2479C113.625 14.227 111.324 10.496 106.645 10.496C101.997 10.496 98.1257 14.1492 98.1257 19.5281C98.1257 24.596 101.95 28.5601 107.08 28.5601C111.215 28.5601 113.609 26.0262 114.604 24.5649L111.526 22.5128C110.5 24.0052 109.101 25.0002 107.08 25.0002ZM106.8 13.8849C108.401 13.8849 109.769 14.7089 110.22 15.8748L102.059 19.2482C102.059 15.4551 104.748 13.8849 106.8 13.8849Z" fill="#EA4335"/>
</g>
<defs>
<clipPath id="clip0_701_20832">
<rect width="115.039" height="37.3098" fill="white" transform="translate(0.964722 0.873169)"/>
</clipPath>
</defs>
</svg>
