<svg width="266" height="105" viewBox="0 0 266 105" fill="none" xmlns="http://www.w3.org/2000/svg">
<path d="M52.4062 61.7227C52.4062 64.0273 52.224 66.0846 51.8594 67.8945C51.5078 69.7044 50.9349 71.2409 50.1406 72.5039C49.3594 73.7669 48.3307 74.7305 47.0547 75.3945C45.7786 76.0586 44.2292 76.3906 42.4062 76.3906C40.1146 76.3906 38.2331 75.8112 36.7617 74.6523C35.2904 73.4805 34.2031 71.8008 33.5 69.6133C32.7969 67.4128 32.4453 64.7826 32.4453 61.7227C32.4453 58.6367 32.7643 56 33.4023 53.8125C34.0534 51.612 35.1081 49.9258 36.5664 48.7539C38.0247 47.582 39.9714 46.9961 42.4062 46.9961C44.6849 46.9961 46.5599 47.582 48.0312 48.7539C49.5156 49.9128 50.6159 51.5924 51.332 53.793C52.0482 55.9805 52.4062 58.6237 52.4062 61.7227ZM38.4414 61.7227C38.4414 63.8971 38.5586 65.7135 38.793 67.1719C39.0404 68.6172 39.4505 69.7044 40.0234 70.4336C40.5964 71.1628 41.3906 71.5273 42.4062 71.5273C43.4089 71.5273 44.1966 71.1693 44.7695 70.4531C45.3555 69.724 45.7721 68.6367 46.0195 67.1914C46.2669 65.7331 46.3906 63.9102 46.3906 61.7227C46.3906 59.5482 46.2669 57.7318 46.0195 56.2734C45.7721 54.8151 45.3555 53.7214 44.7695 52.9922C44.1966 52.25 43.4089 51.8789 42.4062 51.8789C41.3906 51.8789 40.5964 52.25 40.0234 52.9922C39.4505 53.7214 39.0404 54.8151 38.793 56.2734C38.5586 57.7318 38.4414 59.5482 38.4414 61.7227ZM79.4531 76H59.4922V71.8008L66.6602 64.5547C68.1055 63.0703 69.2643 61.8333 70.1367 60.8438C71.0221 59.8411 71.6602 58.9297 72.0508 58.1094C72.4544 57.2891 72.6562 56.4102 72.6562 55.4727C72.6562 54.3398 72.3372 53.4935 71.6992 52.9336C71.0742 52.3607 70.2344 52.0742 69.1797 52.0742C68.0729 52.0742 66.9987 52.3281 65.957 52.8359C64.9154 53.3438 63.8281 54.0664 62.6953 55.0039L59.4141 51.1172C60.2344 50.4141 61.1003 49.75 62.0117 49.125C62.9362 48.5 64.0039 47.9987 65.2148 47.6211C66.4388 47.2305 67.9036 47.0352 69.6094 47.0352C71.4844 47.0352 73.0924 47.3737 74.4336 48.0508C75.7878 48.7279 76.8294 49.6523 77.5586 50.8242C78.2878 51.9831 78.6523 53.2982 78.6523 54.7695C78.6523 56.3451 78.3398 57.7839 77.7148 59.0859C77.0898 60.388 76.1784 61.6771 74.9805 62.9531C73.7956 64.2292 72.3633 65.6419 70.6836 67.1914L67.0117 70.6484V70.9219H79.4531V76ZM126.457 61.4492C126.457 64.6654 125.839 67.3542 124.602 69.5156C123.378 71.6641 121.6 73.2852 119.27 74.3789C116.939 75.4596 114.133 76 110.852 76H102.766V47.4453H111.73C114.725 47.4453 117.323 47.9792 119.523 49.0469C121.724 50.1016 123.43 51.6706 124.641 53.7539C125.852 55.8242 126.457 58.3893 126.457 61.4492ZM120.168 61.6055C120.168 59.4961 119.855 57.7643 119.23 56.4102C118.618 55.043 117.707 54.0339 116.496 53.3828C115.298 52.7318 113.814 52.4062 112.043 52.4062H108.82V71H111.418C114.374 71 116.568 70.2122 118 68.6367C119.445 67.0612 120.168 64.7174 120.168 61.6055ZM152.82 76H136.375V47.4453H152.82V52.4062H142.43V58.6758H152.098V63.6367H142.43V71H152.82V76ZM168.754 76H162.797V47.4453H179.164V52.4062H168.754V59.7695H178.441V64.7109H168.754V76ZM188.75 76V47.4453H194.805V76H188.75ZM231.324 76H223.629L211.207 54.3984H211.031C211.083 55.2969 211.129 56.2018 211.168 57.1133C211.207 58.0247 211.246 58.9362 211.285 59.8477C211.324 60.7461 211.363 61.651 211.402 62.5625V76H205.992V47.4453H213.629L226.031 68.832H226.168C226.142 67.9466 226.109 67.0677 226.07 66.1953C226.031 65.3229 225.992 64.4505 225.953 63.5781C225.927 62.7057 225.901 61.8333 225.875 60.9609V47.4453H231.324V76ZM258.977 76H242.531V47.4453H258.977V52.4062H248.586V58.6758H258.254V63.6367H248.586V71H258.977V76Z" fill="#1F1F29"/>
<ellipse cx="13.4831" cy="13.5" rx="13.4831" ry="13.5" fill="#3771E0"/>
<ellipse cx="44.4949" cy="13.5" rx="13.4831" ry="13.5" fill="#EA4435"/>
<ellipse cx="75.5056" cy="13.5" rx="13.4831" ry="13.5" fill="#F6B429"/>
<ellipse cx="106.517" cy="13.5" rx="13.4831" ry="13.5" fill="#009D5C"/>
<rect x="31" y="97" width="58.75" height="8" fill="#3771E0"/>
<rect x="89.75" y="97" width="58.75" height="8" fill="#EA4435"/>
<rect x="148.5" y="97" width="58.75" height="8" fill="#F6B429"/>
<rect x="207.25" y="97" width="58.75" height="8" fill="#009D5C"/>
</svg>
