<svg width="293" height="270" viewBox="0 0 293 270" fill="none" xmlns="http://www.w3.org/2000/svg">
<g filter="url(#filter0_d_818_46812)">
<rect x="20" y="20" width="252.325" height="230" rx="10" fill="white"/>
</g>
<path d="M20 234.786H272.325V240C272.325 245.523 267.847 250 262.325 250H30C24.4772 250 20 245.523 20 240V234.786Z" fill="#009D5C"/>
<path d="M119.391 193H117.067V178.723H125.133V180.695H119.391V185.148H124.762V187.111H119.391V193ZM127.731 193V178.723H130.075V193H127.731ZM139.606 185.246H144.938V192.414C144.189 192.661 143.414 192.854 142.614 192.99C141.813 193.127 140.914 193.195 139.918 193.195C138.467 193.195 137.236 192.909 136.227 192.336C135.224 191.757 134.463 190.92 133.942 189.826C133.421 188.726 133.161 187.401 133.161 185.852C133.161 184.361 133.45 183.068 134.03 181.975C134.609 180.874 135.452 180.025 136.559 179.426C137.666 178.82 139.007 178.518 140.582 178.518C141.357 178.518 142.106 178.596 142.828 178.752C143.558 178.902 144.225 179.11 144.83 179.377L144.01 181.311C143.528 181.083 142.988 180.891 142.389 180.734C141.79 180.578 141.168 180.5 140.524 180.5C139.502 180.5 138.62 180.721 137.877 181.164C137.142 181.607 136.575 182.232 136.178 183.039C135.781 183.84 135.582 184.787 135.582 185.881C135.582 186.942 135.742 187.873 136.061 188.674C136.38 189.475 136.878 190.1 137.555 190.549C138.239 190.992 139.121 191.213 140.202 191.213C140.742 191.213 141.201 191.184 141.578 191.125C141.956 191.066 142.304 191.001 142.623 190.93V187.248H139.606V185.246ZM154.518 193L150.407 181.076H150.319C150.338 181.343 150.361 181.708 150.387 182.17C150.413 182.632 150.436 183.127 150.455 183.654C150.475 184.182 150.485 184.686 150.485 185.168V193H148.356V178.723H151.647L155.602 190.119H155.661L159.752 178.723H163.034V193H160.797V185.051C160.797 184.615 160.804 184.143 160.817 183.635C160.836 183.127 160.856 182.645 160.875 182.189C160.901 181.734 160.921 181.369 160.934 181.096H160.856L156.588 193H154.518ZM175.641 193L174.245 189.035H168.786L167.389 193H164.918L170.231 178.664H172.828L178.131 193H175.641ZM173.639 187.023L172.282 183.117C172.23 182.948 172.155 182.71 172.057 182.404C171.959 182.092 171.862 181.776 171.764 181.457C171.666 181.132 171.585 180.858 171.52 180.637C171.455 180.904 171.373 181.203 171.276 181.535C171.185 181.861 171.093 182.167 171.002 182.453C170.918 182.74 170.853 182.961 170.807 183.117L169.44 187.023H173.639Z" fill="#1F1F29"/>
<path d="M105.438 160H103.936V148.469H99.8926V147.15H109.464V148.469H105.438V160ZM119.492 155.166C119.492 155.957 119.39 156.663 119.185 157.284C118.979 157.905 118.684 158.43 118.297 158.857C117.91 159.285 117.441 159.613 116.891 159.842C116.346 160.064 115.728 160.176 115.036 160.176C114.392 160.176 113.8 160.064 113.261 159.842C112.728 159.613 112.265 159.285 111.872 158.857C111.485 158.43 111.184 157.905 110.967 157.284C110.756 156.663 110.65 155.957 110.65 155.166C110.65 154.111 110.829 153.215 111.187 152.477C111.544 151.732 112.054 151.167 112.716 150.78C113.384 150.388 114.178 150.191 115.098 150.191C115.977 150.191 116.744 150.388 117.4 150.78C118.062 151.173 118.575 151.741 118.938 152.485C119.308 153.224 119.492 154.117 119.492 155.166ZM112.162 155.166C112.162 155.939 112.265 156.61 112.47 157.179C112.675 157.747 112.991 158.187 113.419 158.497C113.847 158.808 114.397 158.963 115.071 158.963C115.739 158.963 116.287 158.808 116.715 158.497C117.148 158.187 117.468 157.747 117.673 157.179C117.878 156.61 117.98 155.939 117.98 155.166C117.98 154.398 117.878 153.736 117.673 153.18C117.468 152.617 117.151 152.184 116.724 151.879C116.296 151.574 115.742 151.422 115.062 151.422C114.061 151.422 113.325 151.753 112.856 152.415C112.394 153.077 112.162 153.994 112.162 155.166ZM130.32 155.166C130.32 155.957 130.218 156.663 130.013 157.284C129.808 157.905 129.512 158.43 129.125 158.857C128.738 159.285 128.27 159.613 127.719 159.842C127.174 160.064 126.556 160.176 125.864 160.176C125.22 160.176 124.628 160.064 124.089 159.842C123.556 159.613 123.093 159.285 122.7 158.857C122.313 158.43 122.012 157.905 121.795 157.284C121.584 156.663 121.479 155.957 121.479 155.166C121.479 154.111 121.657 153.215 122.015 152.477C122.372 151.732 122.882 151.167 123.544 150.78C124.212 150.388 125.006 150.191 125.926 150.191C126.805 150.191 127.572 150.388 128.229 150.78C128.891 151.173 129.403 151.741 129.767 152.485C130.136 153.224 130.32 154.117 130.32 155.166ZM122.99 155.166C122.99 155.939 123.093 156.61 123.298 157.179C123.503 157.747 123.819 158.187 124.247 158.497C124.675 158.808 125.226 158.963 125.899 158.963C126.567 158.963 127.115 158.808 127.543 158.497C127.977 158.187 128.296 157.747 128.501 157.179C128.706 156.61 128.809 155.939 128.809 155.166C128.809 154.398 128.706 153.736 128.501 153.18C128.296 152.617 127.979 152.184 127.552 151.879C127.124 151.574 126.57 151.422 125.891 151.422C124.889 151.422 124.153 151.753 123.685 152.415C123.222 153.077 122.99 153.994 122.99 155.166ZM134.311 160H132.843V146.324H134.311V160ZM143.627 157.363C143.627 157.979 143.472 158.497 143.161 158.919C142.856 159.335 142.417 159.648 141.843 159.859C141.274 160.07 140.595 160.176 139.804 160.176C139.13 160.176 138.547 160.123 138.055 160.018C137.562 159.912 137.132 159.763 136.763 159.569V158.225C137.155 158.418 137.624 158.594 138.169 158.752C138.714 158.91 139.271 158.989 139.839 158.989C140.671 158.989 141.274 158.854 141.649 158.585C142.024 158.315 142.212 157.949 142.212 157.486C142.212 157.223 142.136 156.991 141.983 156.792C141.837 156.587 141.588 156.391 141.236 156.203C140.885 156.01 140.398 155.799 139.777 155.57C139.162 155.336 138.629 155.104 138.178 154.876C137.732 154.642 137.387 154.357 137.141 154.023C136.9 153.689 136.78 153.256 136.78 152.723C136.78 151.908 137.108 151.284 137.765 150.851C138.427 150.411 139.294 150.191 140.366 150.191C140.946 150.191 141.488 150.25 141.992 150.367C142.502 150.479 142.977 150.631 143.416 150.824L142.924 151.993C142.525 151.823 142.101 151.68 141.649 151.562C141.198 151.445 140.738 151.387 140.27 151.387C139.596 151.387 139.077 151.498 138.714 151.721C138.356 151.943 138.178 152.248 138.178 152.635C138.178 152.934 138.26 153.18 138.424 153.373C138.594 153.566 138.863 153.748 139.232 153.918C139.602 154.088 140.088 154.287 140.691 154.516C141.295 154.738 141.816 154.97 142.256 155.21C142.695 155.444 143.032 155.731 143.267 156.071C143.507 156.405 143.627 156.836 143.627 157.363ZM160.59 147.15V155.465C160.59 156.373 160.405 157.182 160.036 157.891C159.673 158.6 159.122 159.159 158.384 159.569C157.646 159.974 156.72 160.176 155.606 160.176C154.019 160.176 152.809 159.745 151.977 158.884C151.15 158.022 150.737 156.871 150.737 155.43V147.15H152.24V155.474C152.24 156.563 152.527 157.404 153.102 157.996C153.682 158.588 154.546 158.884 155.694 158.884C156.479 158.884 157.121 158.743 157.619 158.462C158.123 158.175 158.495 157.776 158.735 157.267C158.981 156.751 159.104 156.156 159.104 155.482V147.15H160.59ZM170.012 157.363C170.012 157.979 169.856 158.497 169.546 158.919C169.241 159.335 168.802 159.648 168.228 159.859C167.659 160.07 166.979 160.176 166.188 160.176C165.515 160.176 164.932 160.123 164.439 160.018C163.947 159.912 163.517 159.763 163.147 159.569V158.225C163.54 158.418 164.009 158.594 164.554 158.752C165.099 158.91 165.655 158.989 166.224 158.989C167.056 158.989 167.659 158.854 168.034 158.585C168.409 158.315 168.597 157.949 168.597 157.486C168.597 157.223 168.521 156.991 168.368 156.792C168.222 156.587 167.973 156.391 167.621 156.203C167.27 156.01 166.783 155.799 166.162 155.57C165.547 155.336 165.014 155.104 164.562 154.876C164.117 154.642 163.771 154.357 163.525 154.023C163.285 153.689 163.165 153.256 163.165 152.723C163.165 151.908 163.493 151.284 164.149 150.851C164.812 150.411 165.679 150.191 166.751 150.191C167.331 150.191 167.873 150.25 168.377 150.367C168.887 150.479 169.361 150.631 169.801 150.824L169.309 151.993C168.91 151.823 168.485 151.68 168.034 151.562C167.583 151.445 167.123 151.387 166.654 151.387C165.98 151.387 165.462 151.498 165.099 151.721C164.741 151.943 164.562 152.248 164.562 152.635C164.562 152.934 164.645 153.18 164.809 153.373C164.979 153.566 165.248 153.748 165.617 153.918C165.986 154.088 166.473 154.287 167.076 154.516C167.68 154.738 168.201 154.97 168.641 155.21C169.08 155.444 169.417 155.731 169.651 156.071C169.892 156.405 170.012 156.836 170.012 157.363ZM176.067 150.191C176.888 150.191 177.591 150.373 178.177 150.736C178.763 151.1 179.211 151.609 179.521 152.266C179.832 152.916 179.987 153.678 179.987 154.551V155.456H173.334C173.352 156.587 173.633 157.448 174.178 158.04C174.723 158.632 175.49 158.928 176.48 158.928C177.09 158.928 177.629 158.872 178.098 158.761C178.566 158.649 179.053 158.485 179.557 158.269V159.552C179.07 159.769 178.587 159.927 178.106 160.026C177.632 160.126 177.069 160.176 176.419 160.176C175.493 160.176 174.685 159.988 173.993 159.613C173.308 159.232 172.774 158.676 172.394 157.943C172.013 157.211 171.822 156.314 171.822 155.254C171.822 154.217 171.995 153.32 172.341 152.564C172.692 151.803 173.185 151.217 173.817 150.807C174.456 150.396 175.206 150.191 176.067 150.191ZM176.05 151.387C175.271 151.387 174.649 151.642 174.187 152.151C173.724 152.661 173.448 153.373 173.36 154.287H178.458C178.452 153.713 178.361 153.209 178.186 152.775C178.016 152.336 177.755 151.996 177.403 151.756C177.052 151.51 176.601 151.387 176.05 151.387ZM185.894 160.176C184.675 160.176 183.708 159.76 182.993 158.928C182.284 158.096 181.93 156.859 181.93 155.219C181.93 153.561 182.293 152.31 183.02 151.466C183.746 150.616 184.713 150.191 185.92 150.191C186.43 150.191 186.875 150.259 187.256 150.394C187.637 150.528 187.965 150.71 188.24 150.938C188.516 151.161 188.747 151.416 188.935 151.703H189.04C189.017 151.521 188.993 151.272 188.97 150.956C188.946 150.64 188.935 150.382 188.935 150.183V146.324H190.394V160H189.216L188.996 158.629H188.935C188.753 158.916 188.521 159.177 188.24 159.411C187.965 159.646 187.634 159.833 187.247 159.974C186.866 160.108 186.415 160.176 185.894 160.176ZM186.122 158.963C187.153 158.963 187.883 158.67 188.311 158.084C188.738 157.498 188.952 156.628 188.952 155.474V155.21C188.952 153.985 188.747 153.045 188.337 152.389C187.933 151.732 187.194 151.404 186.122 151.404C185.226 151.404 184.555 151.75 184.109 152.441C183.664 153.127 183.441 154.064 183.441 155.254C183.441 156.438 183.661 157.352 184.101 157.996C184.546 158.641 185.22 158.963 186.122 158.963Z" fill="#1F1F29"/>
<path d="M113.484 42L111.753 43.62L107.425 47.9082L105.79 49.6234L107.04 51.6246L113.484 62.2974L114.35 63.8221H123.391L135.702 75.9243C124.701 86.871 110.707 100.784 110.214 101.272C105.393 106.049 105.381 113.875 110.31 118.425C115.119 123.13 122.958 123.249 127.526 118.425L127.623 118.33L146.57 99.4616L165.613 118.425L165.902 118.615C170.735 123.13 178.417 123.189 182.926 118.425V118.33H183.022C187.734 113.553 187.783 105.787 182.926 101.272L182.829 101.177L166.767 85.3582C177.576 84.3577 186.039 75.3168 186.196 64.3938H186.292C186.304 64.3343 186.292 64.2628 186.292 64.2032C186.292 64.1675 186.292 64.1437 186.292 64.1079C186.592 60.5821 185.823 57.2111 183.983 54.2928L181.868 51.0528L167.537 65.2515L163.209 60.7727L177.828 46.2882L173.596 44.5729C171.12 43.5247 168.258 42.7623 165.036 42.7623C153.206 42.7623 143.492 52.3869 143.492 64.1079C143.492 65.3825 143.769 66.4903 143.973 67.6338C142.627 68.9679 141.617 70.0637 140.03 71.6361L127.815 59.5339V50.4811L126.276 49.6234L115.504 43.2388L113.484 42ZM165.036 48.8611C165.469 48.8611 165.77 49.1112 166.19 49.147L154.553 60.6774L156.669 62.8691L165.325 71.7314L167.441 73.9231L179.655 61.8209C179.716 62.5237 180.22 63.0359 180.136 63.8221V64.1079C180.136 72.5056 173.223 79.3548 164.748 79.3548C163.618 79.3548 162.247 79.0927 160.708 78.783L159.073 78.4972L157.919 79.6407L123.198 114.137H123.102V114.232C120.914 116.602 117.091 116.662 114.542 114.137V114.041H114.446C112.054 111.873 111.994 108.086 114.542 105.56C115.708 104.405 138.299 81.8324 149.359 70.8737L150.609 69.6349L150.129 67.9197C149.876 66.931 149.648 65.2276 149.648 64.1079C149.648 55.7103 156.56 48.8611 165.036 48.8611ZM114.446 49.6234L121.66 54.0069V57.0563L120.986 57.7233H117.909L113.484 50.5764L114.446 49.6234ZM159.458 86.6923L178.597 105.56V105.656H178.694C181.086 107.824 181.146 111.611 178.597 114.137H178.501V114.232C176.313 116.602 172.49 116.662 169.941 114.137L150.898 95.1734L159.458 86.6923Z" fill="#009D5C"/>
<defs>
<filter id="filter0_d_818_46812" x="0" y="0" width="292.325" height="270" filterUnits="userSpaceOnUse" color-interpolation-filters="sRGB">
<feFlood flood-opacity="0" result="BackgroundImageFix"/>
<feColorMatrix in="SourceAlpha" type="matrix" values="0 0 0 0 0 0 0 0 0 0 0 0 0 0 0 0 0 0 127 0" result="hardAlpha"/>
<feOffset/>
<feGaussianBlur stdDeviation="10"/>
<feComposite in2="hardAlpha" operator="out"/>
<feColorMatrix type="matrix" values="0 0 0 0 0 0 0 0 0 0 0 0 0 0 0 0 0 0 0.25 0"/>
<feBlend mode="normal" in2="BackgroundImageFix" result="effect1_dropShadow_818_46812"/>
<feBlend mode="normal" in="SourceGraphic" in2="effect1_dropShadow_818_46812" result="shape"/>
</filter>
</defs>
</svg>
