<svg width="56" height="47" viewBox="0 0 56 47" fill="none" xmlns="http://www.w3.org/2000/svg">
<path fill-rule="evenodd" clip-rule="evenodd" d="M10.0329 33.9505C10.0329 34.3664 9.9524 34.7782 9.79603 35.1624C9.63965 35.5467 9.41045 35.8958 9.1215 36.1898C8.83256 36.4839 8.48953 36.7172 8.11201 36.8763C7.73448 37.0355 7.32986 37.1174 6.92123 37.1174C6.5126 37.1174 6.10797 37.0355 5.73045 36.8763C5.35292 36.7172 5.0099 36.4839 4.72095 36.1898C4.43201 35.8958 4.20281 35.5467 4.04643 35.1624C3.89006 34.7782 3.80957 34.3664 3.80957 33.9505C3.80957 33.1106 4.1374 32.3051 4.72095 31.7112C5.3045 31.1173 6.09597 30.7837 6.92123 30.7837C7.74649 30.7837 8.53795 31.1173 9.1215 31.7112C9.70505 32.3051 10.0329 33.1106 10.0329 33.9505ZM51.9024 33.9505C51.9024 34.7904 51.5746 35.5959 50.991 36.1898C50.4075 36.7837 49.616 37.1174 48.7908 37.1174C47.9655 37.1174 47.174 36.7837 46.5905 36.1898C46.0069 35.5959 45.6791 34.7904 45.6791 33.9505C45.6791 33.1106 46.0069 32.3051 46.5905 31.7112C47.174 31.1173 47.9655 30.7837 48.7908 30.7837C49.616 30.7837 50.4075 31.1173 50.991 31.7112C51.5746 32.3051 51.9024 33.1106 51.9024 33.9505Z" fill="#00A6ED"/>
<path fill-rule="evenodd" clip-rule="evenodd" d="M16.5516 13.4459L22.8143 22.0044L9.83594 23.5277L14.0111 13.7265C13.0067 13.3257 12.2977 12.3235 12.2977 11.161C12.2977 9.63771 13.5187 8.39502 15.0155 8.39502C15.5947 8.39814 16.1579 8.58911 16.6232 8.9402C17.0885 9.29128 17.4317 9.78419 17.6029 10.3473C17.7742 10.9105 17.7646 11.5145 17.5756 12.0718C17.3865 12.629 17.0278 13.1103 16.5516 13.4459ZM41.6812 13.7265L45.8563 23.5277L32.878 22.0044L39.1407 13.4459C38.4317 12.9449 37.959 12.103 37.959 11.161C37.959 9.63771 39.1801 8.39502 40.6768 8.39502C42.1735 8.39502 43.3946 9.63771 43.3946 11.161C43.3946 12.3235 42.6856 13.3257 41.6812 13.7265Z" fill="#E19747"/>
<path d="M55.4076 13.0855C55.4076 11.5622 54.1866 10.3195 52.6899 10.3195C51.1931 10.3195 49.9721 11.5622 49.9721 13.0855C49.9721 13.6467 50.1493 14.1879 50.425 14.6088C49.9918 14.6088 49.5585 14.709 49.1449 14.9896L41.4052 20.0806C40.3811 20.742 39.0419 20.5015 38.3132 19.4993L29.7069 7.61364C29.6454 7.51814 29.5726 7.43064 29.4903 7.35308C30.1491 6.98397 30.6685 6.40236 30.9669 5.69982C31.2652 4.99727 31.3255 4.2137 31.1383 3.47245C30.951 2.7312 30.5269 2.07437 29.9326 1.60537C29.3383 1.13637 28.6077 0.881836 27.8557 0.881836C27.1037 0.881836 26.373 1.13637 25.7787 1.60537C25.1844 2.07437 24.7603 2.7312 24.5731 3.47245C24.3858 4.2137 24.4461 4.99727 24.7445 5.69982C25.0428 6.40236 25.5623 6.98397 26.2211 7.35308C26.1423 7.43325 26.0635 7.51343 26.0044 7.61364L17.3981 19.4993C16.6892 20.5015 15.3303 20.742 14.3062 20.0806L6.56641 14.9896C6.15284 14.709 5.71957 14.6088 5.2863 14.6088C5.58171 14.1678 5.73927 13.6467 5.73927 13.0855C5.73927 11.5622 4.51824 10.3195 3.02149 10.3195C1.52474 10.3195 0.303711 11.5622 0.303711 13.0855C0.303711 14.6088 1.52474 15.8515 3.02149 15.8515C3.11996 15.8515 3.21843 15.8515 3.2972 15.8314C3.04118 16.2924 2.94271 16.8336 3.06088 17.4148L8.18133 43.411C8.55551 45.2751 10.1704 46.618 12.0414 46.618H43.67C45.5409 46.618 47.1558 45.2751 47.53 43.411L52.6505 17.4148C52.7686 16.8336 52.6505 16.2724 52.4141 15.8314C52.5126 15.8314 52.6111 15.8515 52.6899 15.8515C54.1866 15.8515 55.4076 14.6088 55.4076 13.0855Z" fill="#FFB02E"/>
<path d="M27.8561 38.9616C29.1619 38.9616 30.4142 38.4337 31.3376 37.494C32.2609 36.5543 32.7796 35.2797 32.7796 33.9508C32.7796 32.6218 32.2609 31.3473 31.3376 30.4076C30.4142 29.4679 29.1619 28.9399 27.8561 28.9399C26.5503 28.9399 25.298 29.4679 24.3747 30.4076C23.4513 31.3473 22.9326 32.6218 22.9326 33.9508C22.9326 35.2797 23.4513 36.5543 24.3747 37.494C25.298 38.4337 26.5503 38.9616 27.8561 38.9616Z" fill="#00A6ED"/>
<path fill-rule="evenodd" clip-rule="evenodd" d="M18.0293 33.9513C18.0293 34.7487 17.7181 35.5134 17.1641 36.0772C16.6101 36.6411 15.8587 36.9578 15.0752 36.9578C14.2917 36.9578 13.5403 36.6411 12.9863 36.0772C12.4323 35.5134 12.1211 34.7487 12.1211 33.9513C12.1211 33.154 12.4323 32.3892 12.9863 31.8254C13.5403 31.2616 14.2917 30.9448 15.0752 30.9448C15.8587 30.9448 16.6101 31.2616 17.1641 31.8254C17.7181 32.3892 18.0293 33.154 18.0293 33.9513ZM43.6316 33.9513C43.6316 34.7487 43.3203 35.5134 42.7663 36.0772C42.2123 36.6411 41.4609 36.9578 40.6774 36.9578C39.894 36.9578 39.1426 36.6411 38.5886 36.0772C38.0346 35.5134 37.7233 34.7487 37.7233 33.9513C37.7233 33.154 38.0346 32.3892 38.5886 31.8254C39.1426 31.2616 39.894 30.9448 40.6774 30.9448C41.4609 30.9448 42.2123 31.2616 42.7663 31.8254C43.3203 32.3892 43.6316 33.154 43.6316 33.9513Z" fill="#F8312F"/>
</svg>
