<svg width="83" height="83" viewBox="0 0 83 83" fill="none" xmlns="http://www.w3.org/2000/svg">
<path d="M51.8752 13.8335C59.2128 13.8335 66.2499 16.7484 71.4385 21.9369C76.627 27.1254 79.5418 34.1625 79.5418 41.5002C79.5418 48.8378 76.627 55.8749 71.4385 61.0634C66.2499 66.252 59.2128 69.1668 51.8752 69.1668C44.5375 69.1668 37.5004 66.252 32.3119 61.0634C27.1234 55.8749 24.2085 48.8378 24.2085 41.5002C24.2085 34.1625 27.1234 27.1254 32.3119 21.9369C37.5004 16.7484 44.5375 13.8335 51.8752 13.8335ZM51.8752 20.7502C46.3719 20.7502 41.0941 22.9363 37.2027 26.8277C33.3113 30.7191 31.1252 35.9969 31.1252 41.5002C31.1252 47.0034 33.3113 52.2813 37.2027 56.1726C41.0941 60.064 46.3719 62.2502 51.8752 62.2502C57.3784 62.2502 62.6563 60.064 66.5476 56.1726C70.439 52.2813 72.6252 47.0034 72.6252 41.5002C72.6252 35.9969 70.439 30.7191 66.5476 26.8277C62.6563 22.9363 57.3784 20.7502 51.8752 20.7502ZM48.4168 27.6668H53.6043V40.7393L61.6622 48.7972L57.9964 52.4631L48.4168 42.8835V27.6668ZM6.91683 62.2502C5.99962 62.2502 5.11998 61.8858 4.47142 61.2372C3.82286 60.5887 3.4585 59.709 3.4585 58.7918C3.4585 57.8746 3.82286 56.995 4.47142 56.3464C5.11998 55.6979 5.99962 55.3335 6.91683 55.3335H20.1622C21.2343 57.7889 22.6177 60.106 24.2085 62.2502H6.91683ZM10.3752 44.9585C9.45796 44.9585 8.57832 44.5941 7.92975 43.9456C7.28119 43.297 6.91683 42.4174 6.91683 41.5002C6.91683 40.583 7.28119 39.7033 7.92975 39.0548C8.57832 38.4062 9.45796 38.0418 10.3752 38.0418H17.4647L17.2918 41.5002L17.4647 44.9585H10.3752ZM13.8335 27.6668C12.9163 27.6668 12.0366 27.3025 11.3881 26.6539C10.7395 26.0053 10.3752 25.1257 10.3752 24.2085C10.3752 23.2913 10.7395 22.4116 11.3881 21.7631C12.0366 21.1145 12.9163 20.7502 13.8335 20.7502H24.2085C22.6177 22.8943 21.2343 25.2114 20.1622 27.6668H13.8335Z" fill="white"/>
<rect x="37" y="26" width="30" height="30" fill="#1192FF"/>
<g clip-path="url(#clip0_119_3606)">
<path d="M67.1159 26.8841C62.8635 22.6317 56.9889 20 50.5 20C37.5222 20 27 30.5222 27 43.5C27 56.4779 37.5222 67 50.5 67C63.4779 67 74 56.4778 74 43.5C74 37.0111 71.3683 31.1365 67.1159 26.8841ZM62.3474 30.2653L66.5825 34.5004L50.6866 50.3962L50.6846 50.3942L50.6826 50.3962L39.5532 39.2669L40.0177 38.8025L43.3097 35.5105L43.7884 35.0319L50.6846 41.9281L62.3474 30.2653Z" fill="white"/>
</g>
<defs>
<clipPath id="clip0_119_3606">
<rect width="47" height="47" fill="white" transform="translate(27 20)"/>
</clipPath>
</defs>
</svg>
