<svg width="74" height="74" viewBox="0 0 74 74" fill="none" xmlns="http://www.w3.org/2000/svg">
<path d="M48.7159 47.7925C51.5533 46.2154 51.1856 40.1382 47.8972 34.2089C46.4866 31.6559 44.7522 29.5885 43.0179 28.1432C40.9439 29.6822 38.4317 30.5169 35.8491 30.5251C33.2626 30.5194 30.746 29.6846 28.6688 28.1432C26.9344 29.5885 25.2047 31.6582 23.7894 34.2089C20.4987 40.1359 20.1357 46.2154 22.9801 47.7925C24.2473 48.514 25.5839 47.9729 26.9622 46.6455C26.704 48.0756 26.5748 49.526 26.576 50.9792C26.576 57.7733 29.2122 63.2632 32.4567 63.2632C34.4131 63.2632 35.382 61.2629 35.8468 58.2034C36.3093 61.2421 37.2806 63.2632 39.2231 63.2632C42.4536 63.2632 45.1107 57.771 45.1107 50.9792C45.1107 49.4529 44.9673 47.9961 44.7222 46.6479C46.1097 47.9776 47.4417 48.5279 48.7136 47.7972L48.7159 47.7925ZM35.8445 28.2126C37.1565 28.2322 38.4594 27.9906 39.6772 27.502C40.895 27.0134 42.0034 26.2874 42.938 25.3663C43.8726 24.4452 44.6147 23.3475 45.121 22.137C45.6274 20.9264 45.8879 19.6272 45.8874 18.3151C45.887 17.0029 45.6255 15.7039 45.1183 14.4937C44.6111 13.2835 43.8683 12.1863 42.9331 11.2659C41.9978 10.3455 40.8889 9.62027 39.6707 9.13247C38.4526 8.64468 37.1496 8.40404 35.8376 8.42455C33.2397 8.46517 30.762 9.52591 28.9396 11.3777C27.1172 13.2295 26.0962 15.7238 26.0971 18.322C26.098 20.9202 27.1207 23.4137 28.9445 25.2643C30.7682 27.1148 33.2466 28.1738 35.8445 28.2126ZM55.7181 34.4887C57.8313 34.427 59.8372 33.5441 61.3101 32.0276C62.783 30.511 63.6068 28.4802 63.6068 26.3661C63.6068 24.252 62.783 22.2212 61.3101 20.7046C59.8372 19.188 57.8313 18.3052 55.7181 18.2434C53.5632 18.2437 51.4967 19.1 49.9732 20.624C48.4497 22.1479 47.594 24.2147 47.5943 26.3695C47.5946 28.5244 48.4509 30.5909 49.9749 32.1144C51.4988 33.6379 53.5656 34.4937 55.7204 34.4934L55.7181 34.4887ZM65.6156 39.4144C64.4547 37.3146 63.0349 35.6172 61.6104 34.4309C59.9064 35.6934 57.8434 36.3781 55.7227 36.385C53.9745 36.385 52.3465 35.9063 50.922 35.1131C52.069 37.6407 52.7789 40.2006 52.9107 42.49C53.1281 45.9957 52.032 48.595 49.8397 49.809C49.3702 50.0679 48.8593 50.2432 48.3297 50.327C48.1979 51.2336 48.1077 52.177 48.1077 53.1714C48.1077 58.7515 50.2699 63.2585 52.9362 63.2585C54.5411 63.2585 55.3412 61.6167 55.7204 59.1053C56.0974 61.6028 56.8952 63.2585 58.4954 63.2585C61.1432 63.2585 63.3286 58.7492 63.3286 53.1761C63.3286 51.9204 63.206 50.7248 63.0048 49.6148C64.1426 50.7086 65.2387 51.1595 66.2839 50.5583C68.6126 49.2633 68.312 44.2729 65.6133 39.412L65.6156 39.4144ZM15.9709 34.4887C17.577 34.4878 19.1467 34.0107 20.4817 33.1178C21.8166 32.2248 22.8569 30.9561 23.4709 29.472C24.0848 27.9879 24.245 26.3551 23.9311 24.78C23.6172 23.2049 22.8434 21.7582 21.7074 20.6228C20.5714 19.4875 19.1243 18.7144 17.549 18.4015C15.9737 18.0885 14.341 18.2496 12.8572 18.8644C11.3735 19.4792 10.1053 20.5202 9.21314 21.8557C8.32095 23.1911 7.84474 24.7612 7.84474 26.3672C7.84536 28.5222 8.7017 30.5888 10.2255 32.1126C11.7493 33.6364 13.8159 34.4928 15.9709 34.4934V34.4887ZM21.8331 49.8021C18.1516 47.7555 17.8139 41.6529 20.7786 35.1085C19.3133 35.9406 17.6582 36.381 15.9732 36.3873C13.7624 36.3873 11.7367 35.6473 10.0763 34.4309C8.65412 35.6149 7.23656 37.3123 6.07106 39.4097C3.37237 44.2752 3.07637 49.2656 5.40737 50.556C6.44799 51.1526 7.54643 50.7063 8.67724 49.6171C8.4715 50.7915 8.36705 51.9814 8.36506 53.1737C8.36506 58.7515 10.5272 63.2562 13.1936 63.2562C14.7984 63.2562 15.5986 61.6144 15.9778 59.1053C16.3594 61.6028 17.1572 63.2585 18.7528 63.2585C21.4052 63.2585 23.5859 58.7492 23.5859 53.1761C23.5859 52.1747 23.4934 51.2289 23.3616 50.3224C22.8262 50.239 22.3096 50.0621 21.8354 49.7998L21.8331 49.8021Z" fill="white"/>
</svg>
