<svg width="37" height="40" viewBox="0 0 37 40" fill="none" xmlns="http://www.w3.org/2000/svg">
<path d="M13.3168 6.7597C14.3882 3.62428 18.7204 3.52932 19.9907 6.47482L20.0982 6.76149L21.5441 10.9898C21.8755 11.9595 22.4109 12.8469 23.1144 13.5921C23.8178 14.3373 24.6729 14.9229 25.6219 15.3095L26.0107 15.4547L30.2391 16.8987C33.3745 17.9702 33.4694 22.3024 30.5257 23.5727L30.2391 23.6802L26.0107 25.1261C25.0407 25.4572 24.153 25.9926 23.4075 26.696C22.662 27.3995 22.076 28.2547 21.6892 29.2039L21.5441 29.5909L20.1 33.821C19.0286 36.9564 14.6964 37.0514 13.4279 34.1077L13.3168 33.821L11.8727 29.5927C11.5416 28.6227 11.0062 27.7349 10.3027 26.9894C9.59926 26.2439 8.74407 25.658 7.79486 25.2712L7.40786 25.1261L3.17952 23.682C0.0423148 22.6106 -0.0526433 18.2783 2.89286 17.0098L3.17952 16.8987L7.40786 15.4547C8.37757 15.1233 9.26494 14.5878 10.0101 13.8844C10.7553 13.1809 11.3409 12.3259 11.7276 11.3768L11.8727 10.9898L13.3168 6.7597ZM31.0417 0.582032C31.3769 0.582031 31.7054 0.676055 31.9898 0.853418C32.2742 1.03078 32.5032 1.28437 32.6507 1.58536L32.7366 1.79499L33.3637 3.63324L35.2038 4.26032C35.5397 4.37444 35.8341 4.58572 36.0499 4.86737C36.2656 5.14902 36.3928 5.48836 36.4154 5.8424C36.4381 6.19644 36.3551 6.54923 36.177 6.85607C35.999 7.1629 35.7338 7.40997 35.4152 7.56595L35.2038 7.65195L33.3655 8.27903L32.7384 10.1191C32.6241 10.4549 32.4127 10.7492 32.1309 10.9647C31.8492 11.1803 31.5098 11.3073 31.1558 11.3297C30.8017 11.3522 30.449 11.269 30.1423 11.0908C29.8356 10.9126 29.5886 10.6474 29.4328 10.3287L29.3468 10.1191L28.7197 8.28082L26.8797 7.65374C26.5438 7.53962 26.2493 7.32835 26.0336 7.0467C25.8179 6.76505 25.6907 6.4257 25.668 6.07166C25.6454 5.71762 25.7284 5.36483 25.9064 5.058C26.0845 4.75116 26.3496 4.5041 26.6683 4.34812L26.8797 4.26211L28.7179 3.63503L29.345 1.79499C29.4658 1.441 29.6944 1.1337 29.9987 0.916175C30.303 0.698649 30.6677 0.581807 31.0417 0.582032Z" fill="white"/>
</svg>
