<svg width="36" height="42" viewBox="0 0 36 42" fill="none" xmlns="http://www.w3.org/2000/svg">
<path d="M29.7834 40.32C27.4967 42.5367 25.0001 42.1867 22.5967 41.1367C20.0534 40.0633 17.7201 40.0167 15.0367 41.1367C11.6767 42.5833 9.90339 42.1633 7.89672 40.32C-3.48994 28.5833 -1.80994 10.71 11.1167 10.0567C14.2667 10.22 16.4601 11.7833 18.3034 11.9233C21.0567 11.3633 23.6934 9.75333 26.6334 9.96333C30.1567 10.2433 32.8167 11.6433 34.5667 14.1633C27.2867 18.5267 29.0134 28.1167 35.6867 30.8C34.3567 34.3 32.6301 37.7767 29.7601 40.3433L29.7834 40.32ZM18.0701 9.91667C17.7201 4.71333 21.9434 0.42 26.7967 0C27.4734 6.02 21.3367 10.5 18.0701 9.91667Z" fill="white"/>
</svg>
