<svg width="35" height="43" viewBox="0 0 35 43" fill="none" xmlns="http://www.w3.org/2000/svg">
<path d="M4.75 42.75C3.58125 42.75 2.58108 42.3342 1.7495 41.5026C0.917916 40.671 0.501417 39.6702 0.5 38.5V13C0.5 11.8313 0.9165 10.8311 1.7495 9.9995C2.5825 9.16792 3.58267 8.75142 4.75 8.75H9C9 6.4125 9.83229 4.41146 11.4969 2.74688C13.1615 1.08229 15.1625 0.25 17.5 0.25C19.8375 0.25 21.8385 1.08229 23.5031 2.74688C25.1677 4.41146 26 6.4125 26 8.75H30.25C31.4188 8.75 32.4196 9.1665 33.2526 9.9995C34.0856 10.8325 34.5014 11.8327 34.5 13V38.5C34.5 39.6688 34.0842 40.6696 33.2526 41.5026C32.421 42.3356 31.4202 42.7514 30.25 42.75H4.75ZM13.25 8.75H21.75C21.75 7.58125 21.3342 6.58108 20.5026 5.7495C19.671 4.91792 18.6702 4.50142 17.5 4.5C16.3298 4.49858 15.3297 4.91508 14.4995 5.7495C13.6693 6.58392 13.2528 7.58408 13.25 8.75ZM23.875 19.375C24.4771 19.375 24.9821 19.171 25.3901 18.763C25.7981 18.355 26.0014 17.8507 26 17.25V13H21.75V17.25C21.75 17.8521 21.954 18.3571 22.362 18.7651C22.77 19.1731 23.2743 19.3764 23.875 19.375ZM11.125 19.375C11.7271 19.375 12.2321 19.171 12.6401 18.763C13.0481 18.355 13.2514 17.8507 13.25 17.25V13H9V17.25C9 17.8521 9.204 18.3571 9.612 18.7651C10.02 19.1731 10.5243 19.3764 11.125 19.375Z" fill="white"/>
</svg>
