<svg width="73" height="73" viewBox="0 0 73 73" fill="none" xmlns="http://www.w3.org/2000/svg">
<path fill-rule="evenodd" clip-rule="evenodd" d="M63.6102 17.9125C64.6353 19.4455 64.6353 21.5838 64.6353 25.8543V64.6356H66.1561C66.7611 64.6356 67.3414 64.8759 67.7692 65.3037C68.197 65.7316 68.4373 66.3118 68.4373 66.9168C68.4373 67.5219 68.197 68.1021 67.7692 68.5299C67.3414 68.9577 66.7611 69.1981 66.1561 69.1981H5.32275C4.71773 69.1981 4.13748 68.9577 3.70967 68.5299C3.28185 68.1021 3.0415 67.5219 3.0415 66.9168C3.0415 66.3118 3.28185 65.7316 3.70967 65.3037C4.13748 64.8759 4.71773 64.6356 5.32275 64.6356H6.84359V25.8543C6.84359 21.5838 6.84359 19.4455 7.86863 17.9125C8.31258 17.248 8.88311 16.6775 9.54763 16.2335C10.889 15.3362 12.6927 15.2237 15.9808 15.2115C15.9706 16.0997 15.9666 17.0223 15.9686 17.9795V22.0522H12.9269C12.3219 22.0522 11.7417 22.2926 11.3138 22.7204C10.886 23.1482 10.6457 23.7285 10.6457 24.3335C10.6457 24.9385 10.886 25.5188 11.3138 25.9466C11.7417 26.3744 12.3219 26.6147 12.9269 26.6147H15.9686V31.1772H12.9269C12.3219 31.1772 11.7417 31.4176 11.3138 31.8454C10.886 32.2732 10.6457 32.8535 10.6457 33.4585C10.6457 34.0635 10.886 34.6438 11.3138 35.0716C11.7417 35.4994 12.3219 35.7397 12.9269 35.7397H15.9686V40.3022H12.9269C12.3219 40.3022 11.7417 40.5426 11.3138 40.9704C10.886 41.3982 10.6457 41.9785 10.6457 42.5835C10.6457 43.1885 10.886 43.7688 11.3138 44.1966C11.7417 44.6244 12.3219 44.8647 12.9269 44.8647H15.9686V64.6356H20.5311V18.2502C20.5311 12.5136 20.5311 9.64833 22.3135 7.86591C24.0959 6.0835 26.9612 6.0835 32.6978 6.0835H38.7811C44.5177 6.0835 47.3829 6.0835 49.1653 7.86591C50.9478 9.64833 50.9478 12.5136 50.9478 18.2502V64.6356H55.5103V44.8647H58.5519C59.1569 44.8647 59.7372 44.6244 60.165 44.1966C60.5928 43.7688 60.8332 43.1885 60.8332 42.5835C60.8332 41.9785 60.5928 41.3982 60.165 40.9704C59.7372 40.5426 59.1569 40.3022 58.5519 40.3022H55.5103V35.7397H58.5519C59.1569 35.7397 59.7372 35.4994 60.165 35.0716C60.5928 34.6438 60.8332 34.0635 60.8332 33.4585C60.8332 32.8535 60.5928 32.2732 60.165 31.8454C59.7372 31.4176 59.1569 31.1772 58.5519 31.1772H55.5103V26.6147H58.5519C59.1569 26.6147 59.7372 26.3744 60.165 25.9466C60.5928 25.5188 60.8332 24.9385 60.8332 24.3335C60.8332 23.7285 60.5928 23.1482 60.165 22.7204C59.7372 22.2926 59.1569 22.0522 58.5519 22.0522H55.5103V17.9764C55.5123 17.0234 55.5082 16.1007 55.4981 15.2085C58.7861 15.2237 60.5898 15.3362 61.9312 16.2335C62.5957 16.6775 63.1663 17.248 63.6102 17.9125ZM38.0207 57.7918C38.0207 57.1868 37.7803 56.6066 37.3525 56.1787C36.9247 55.7509 36.3444 55.5106 35.7394 55.5106C35.1344 55.5106 34.5542 55.7509 34.1263 56.1787C33.6985 56.6066 33.4582 57.1868 33.4582 57.7918V64.6356H38.0207V57.7918ZM27.3748 45.6252C27.3748 45.0201 27.6152 44.4399 28.043 44.0121C28.4708 43.5843 29.0511 43.3439 29.6561 43.3439H41.8228C42.4278 43.3439 43.008 43.5843 43.4358 44.0121C43.8637 44.4399 44.104 45.0201 44.104 45.6252C44.104 46.2302 43.8637 46.8104 43.4358 47.2382C43.008 47.6661 42.4278 47.9064 41.8228 47.9064H29.6561C29.0511 47.9064 28.4708 47.6661 28.043 47.2382C27.6152 46.8104 27.3748 46.2302 27.3748 45.6252ZM29.6561 34.2189C29.0511 34.2189 28.4708 34.4593 28.043 34.8871C27.6152 35.3149 27.3748 35.8951 27.3748 36.5002C27.3748 37.1052 27.6152 37.6854 28.043 38.1132C28.4708 38.5411 29.0511 38.7814 29.6561 38.7814H41.8228C42.4278 38.7814 43.008 38.5411 43.4358 38.1132C43.8637 37.6854 44.104 37.1052 44.104 36.5002C44.104 35.8951 43.8637 35.3149 43.4358 34.8871C43.008 34.4593 42.4278 34.2189 41.8228 34.2189H29.6561ZM28.1353 21.2918C28.1353 19.0734 29.0165 16.9458 30.5852 15.3772C32.1538 13.8085 34.2814 12.9272 36.4998 12.9272C38.7183 12.9272 40.8458 13.8085 42.4145 15.3772C43.9832 16.9458 44.8644 19.0734 44.8644 21.2918C44.8644 23.5103 43.9832 25.6378 42.4145 27.2065C40.8458 28.7751 38.7183 29.6564 36.4998 29.6564C34.2814 29.6564 32.1538 28.7751 30.5852 27.2065C29.0165 25.6378 28.1353 23.5103 28.1353 21.2918ZM32.6978 21.2918C32.6978 20.2835 33.0983 19.3164 33.8114 18.6033C34.5244 17.8903 35.4915 17.4897 36.4998 17.4897C37.5082 17.4897 38.4753 17.8903 39.1883 18.6033C39.9013 19.3164 40.3019 20.2835 40.3019 21.2918C40.3019 22.3002 39.9013 23.2673 39.1883 23.9803C38.4753 24.6933 37.5082 25.0939 36.4998 25.0939C35.4915 25.0939 34.5244 24.6933 33.8114 23.9803C33.0983 23.2673 32.6978 22.3002 32.6978 21.2918Z" fill="white"/>
</svg>
