<svg width="44" height="39" viewBox="0 0 44 39" fill="none" xmlns="http://www.w3.org/2000/svg">
<path fill-rule="evenodd" clip-rule="evenodd" d="M30.156 0.667969C31.3629 0.66801 32.546 1.00409 33.5727 1.63857C34.5995 2.27304 35.4292 3.18085 35.9692 4.2603L38.9722 10.2641C39.5008 10.0475 40.0208 9.81347 40.5322 9.56213C41.0465 9.30527 41.6417 9.26324 42.187 9.44527C42.7323 9.62731 43.183 10.0185 43.4398 10.5328C43.6967 11.0471 43.7387 11.6424 43.5567 12.1877C43.3746 12.733 42.9835 13.1836 42.4692 13.4405C41.9483 13.6723 41.4247 13.8976 40.8983 14.1165L42.9805 18.283C43.4324 19.1864 43.6676 20.1827 43.6673 21.1928V26.668C43.6673 27.5825 43.4743 28.4867 43.101 29.3215C42.7276 30.1563 42.1823 30.903 41.5007 31.5126V34.2513C41.5007 35.1133 41.1582 35.9399 40.5487 36.5494C39.9393 37.1589 39.1126 37.5013 38.2507 37.5013C37.3887 37.5013 36.5621 37.1589 35.9526 36.5494C35.3431 35.9399 35.0007 35.1133 35.0007 34.2513V33.168H9.00065V34.2513C9.00065 35.1133 8.65824 35.9399 8.04875 36.5494C7.43926 37.1589 6.6126 37.5013 5.75065 37.5013C4.8887 37.5013 4.06205 37.1589 3.45255 36.5494C2.84306 35.9399 2.50065 35.1133 2.50065 34.2513V31.5126C1.17032 30.321 0.333984 28.592 0.333984 26.668V21.1906C0.334389 20.182 0.569536 19.1872 1.02082 18.2851L3.08565 14.1511C2.56276 13.9316 2.04637 13.6954 1.53648 13.4426C1.02479 13.1824 0.635822 12.7316 0.453438 12.1873C0.271055 11.643 0.309859 11.0488 0.561484 10.5328C0.688578 10.2781 0.864628 10.0509 1.07957 9.8642C1.29451 9.67754 1.54413 9.53506 1.81417 9.44491C2.0842 9.35477 2.36935 9.31872 2.65332 9.33884C2.9373 9.35895 3.21452 9.43483 3.46915 9.56213C3.98193 9.81491 4.50193 10.0489 5.02915 10.2641L8.03215 4.26247C8.57176 3.18261 9.40141 2.27436 10.4282 1.63949C11.4549 1.00462 12.6381 0.668211 13.8453 0.667969H30.156ZM12.2507 20.168C11.3887 20.168 10.562 20.5104 9.95255 21.1199C9.34306 21.7294 9.00065 22.556 9.00065 23.418C9.00065 24.2799 9.34306 25.1066 9.95255 25.7161C10.562 26.3256 11.3887 26.668 12.2507 26.668C13.1126 26.668 13.9393 26.3256 14.5487 25.7161C15.1582 25.1066 15.5007 24.2799 15.5007 23.418C15.5007 22.556 15.1582 21.7294 14.5487 21.1199C13.9393 20.5104 13.1126 20.168 12.2507 20.168ZM31.7507 20.168C30.8887 20.168 30.062 20.5104 29.4526 21.1199C28.8431 21.7294 28.5007 22.556 28.5007 23.418C28.5007 24.2799 28.8431 25.1066 29.4526 25.7161C30.062 26.3256 30.8887 26.668 31.7507 26.668C32.6126 26.668 33.4393 26.3256 34.0487 25.7161C34.6582 25.1066 35.0007 24.2799 35.0007 23.418C35.0007 22.556 34.6582 21.7294 34.0487 21.1199C33.4393 20.5104 32.6126 20.168 31.7507 20.168ZM30.156 5.0013H13.8453C13.4887 5.00125 13.1376 5.08922 12.8231 5.25741C12.5087 5.4256 12.2406 5.66882 12.0427 5.96547L11.9083 6.19947L9.15665 11.6985C12.5107 12.7038 17.0303 13.668 22.0007 13.668C26.6417 13.668 30.8862 12.8273 34.1557 11.8978L34.8425 11.6985L32.093 6.19947C31.9335 5.88057 31.6978 5.60595 31.4068 5.39996C31.1158 5.19398 30.7784 5.063 30.4247 5.01863L30.1582 5.0013H30.156Z" fill="white"/>
</svg>
