<svg width="335" height="105" viewBox="0 0 335 105" fill="none" xmlns="http://www.w3.org/2000/svg">
<path d="M52.4062 61.7227C52.4062 64.0273 52.224 66.0846 51.8594 67.8945C51.5078 69.7044 50.9349 71.2409 50.1406 72.5039C49.3594 73.7669 48.3307 74.7305 47.0547 75.3945C45.7786 76.0586 44.2292 76.3906 42.4062 76.3906C40.1146 76.3906 38.2331 75.8112 36.7617 74.6523C35.2904 73.4805 34.2031 71.8008 33.5 69.6133C32.7969 67.4128 32.4453 64.7826 32.4453 61.7227C32.4453 58.6367 32.7643 56 33.4023 53.8125C34.0534 51.612 35.1081 49.9258 36.5664 48.7539C38.0247 47.582 39.9714 46.9961 42.4062 46.9961C44.6849 46.9961 46.5599 47.582 48.0312 48.7539C49.5156 49.9128 50.6159 51.5924 51.332 53.793C52.0482 55.9805 52.4062 58.6237 52.4062 61.7227ZM38.4414 61.7227C38.4414 63.8971 38.5586 65.7135 38.793 67.1719C39.0404 68.6172 39.4505 69.7044 40.0234 70.4336C40.5964 71.1628 41.3906 71.5273 42.4062 71.5273C43.4089 71.5273 44.1966 71.1693 44.7695 70.4531C45.3555 69.724 45.7721 68.6367 46.0195 67.1914C46.2669 65.7331 46.3906 63.9102 46.3906 61.7227C46.3906 59.5482 46.2669 57.7318 46.0195 56.2734C45.7721 54.8151 45.3555 53.7214 44.7695 52.9922C44.1966 52.25 43.4089 51.8789 42.4062 51.8789C41.3906 51.8789 40.5964 52.25 40.0234 52.9922C39.4505 53.7214 39.0404 54.8151 38.793 56.2734C38.5586 57.7318 38.4414 59.5482 38.4414 61.7227ZM74.4141 76H68.3789V59.4766C68.3789 59.0208 68.3854 58.4609 68.3984 57.7969C68.4115 57.1198 68.431 56.4297 68.457 55.7266C68.4831 55.0104 68.5091 54.3659 68.5352 53.793C68.3919 53.9622 68.099 54.2552 67.6562 54.6719C67.2266 55.0755 66.8229 55.4401 66.4453 55.7656L63.1641 58.4023L60.2539 54.7695L69.4531 47.4453H74.4141V76ZM111.086 47.4453C113.677 47.4453 115.812 47.7578 117.492 48.3828C119.185 49.0078 120.441 49.9518 121.262 51.2148C122.082 52.4779 122.492 54.0729 122.492 56C122.492 57.3021 122.245 58.4414 121.75 59.418C121.255 60.3945 120.604 61.2214 119.797 61.8984C118.99 62.5755 118.117 63.1289 117.18 63.5586L125.578 76H118.859L112.043 65.043H108.82V76H102.766V47.4453H111.086ZM110.656 52.4062H108.82V60.1211H110.773C112.779 60.1211 114.211 59.7891 115.07 59.125C115.943 58.4479 116.379 57.4583 116.379 56.1562C116.379 54.8021 115.91 53.8385 114.973 53.2656C114.048 52.6927 112.609 52.4062 110.656 52.4062ZM149.617 76H133.172V47.4453H149.617V52.4062H139.227V58.6758H148.895V63.6367H139.227V71H149.617V76ZM176.449 68.0703C176.449 69.763 176.039 71.2344 175.219 72.4844C174.398 73.7344 173.201 74.6979 171.625 75.375C170.062 76.0521 168.161 76.3906 165.922 76.3906C164.932 76.3906 163.962 76.3255 163.012 76.1953C162.074 76.0651 161.169 75.8763 160.297 75.6289C159.438 75.3685 158.617 75.0495 157.836 74.6719V69.0469C159.19 69.6458 160.596 70.1862 162.055 70.668C163.513 71.1497 164.958 71.3906 166.391 71.3906C167.38 71.3906 168.174 71.2604 168.773 71C169.385 70.7396 169.828 70.3815 170.102 69.9258C170.375 69.4701 170.512 68.9492 170.512 68.3633C170.512 67.6471 170.271 67.0352 169.789 66.5273C169.307 66.0195 168.643 65.5443 167.797 65.1016C166.964 64.6589 166.02 64.1836 164.965 63.6758C164.301 63.3633 163.578 62.9857 162.797 62.543C162.016 62.0872 161.273 61.5339 160.57 60.8828C159.867 60.2318 159.288 59.444 158.832 58.5195C158.389 57.582 158.168 56.4622 158.168 55.1602C158.168 53.4544 158.559 51.9961 159.34 50.7852C160.121 49.5742 161.234 48.6497 162.68 48.0117C164.138 47.3607 165.857 47.0352 167.836 47.0352C169.32 47.0352 170.733 47.2109 172.074 47.5625C173.428 47.901 174.841 48.3958 176.312 49.0469L174.359 53.7539C173.044 53.2201 171.866 52.8099 170.824 52.5234C169.783 52.224 168.721 52.0742 167.641 52.0742C166.885 52.0742 166.241 52.1979 165.707 52.4453C165.173 52.6797 164.77 53.0182 164.496 53.4609C164.223 53.8906 164.086 54.3919 164.086 54.9648C164.086 55.6419 164.281 56.2148 164.672 56.6836C165.076 57.1393 165.674 57.582 166.469 58.0117C167.276 58.4414 168.279 58.9427 169.477 59.5156C170.935 60.2057 172.178 60.9284 173.207 61.6836C174.249 62.4258 175.049 63.3047 175.609 64.3203C176.169 65.3229 176.449 66.5729 176.449 68.0703ZM202.07 76H185.625V47.4453H202.07V52.4062H191.68V58.6758H201.348V63.6367H191.68V71H202.07V76ZM229.527 76L227.457 69.2031H217.047L214.977 76H208.453L218.531 47.3281H225.934L236.051 76H229.527ZM226.012 64.125L223.941 57.4844C223.811 57.0417 223.635 56.4753 223.414 55.7852C223.206 55.082 222.991 54.3724 222.77 53.6562C222.561 52.9271 222.392 52.2956 222.262 51.7617C222.132 52.2956 221.949 52.9596 221.715 53.7539C221.493 54.5352 221.279 55.2773 221.07 55.9805C220.862 56.6836 220.712 57.1849 220.621 57.4844L218.57 64.125H226.012ZM251.984 47.4453C254.576 47.4453 256.711 47.7578 258.391 48.3828C260.083 49.0078 261.34 49.9518 262.16 51.2148C262.98 52.4779 263.391 54.0729 263.391 56C263.391 57.3021 263.143 58.4414 262.648 59.418C262.154 60.3945 261.503 61.2214 260.695 61.8984C259.888 62.5755 259.016 63.1289 258.078 63.5586L266.477 76H259.758L252.941 65.043H249.719V76H243.664V47.4453H251.984ZM251.555 52.4062H249.719V60.1211H251.672C253.677 60.1211 255.109 59.7891 255.969 59.125C256.841 58.4479 257.277 57.4583 257.277 56.1562C257.277 54.8021 256.809 53.8385 255.871 53.2656C254.947 52.6927 253.508 52.4062 251.555 52.4062ZM286.199 52.0742C285.04 52.0742 284.012 52.3021 283.113 52.7578C282.228 53.2005 281.479 53.8451 280.867 54.6914C280.268 55.5378 279.812 56.5599 279.5 57.7578C279.188 58.9557 279.031 60.3034 279.031 61.8008C279.031 63.819 279.279 65.5443 279.773 66.9766C280.281 68.3958 281.062 69.4831 282.117 70.2383C283.172 70.9805 284.533 71.3516 286.199 71.3516C287.358 71.3516 288.517 71.2214 289.676 70.9609C290.848 70.7005 292.117 70.3294 293.484 69.8477V74.9258C292.221 75.4466 290.978 75.8177 289.754 76.0391C288.53 76.2734 287.156 76.3906 285.633 76.3906C282.69 76.3906 280.268 75.7852 278.367 74.5742C276.479 73.3503 275.079 71.6445 274.168 69.457C273.257 67.2565 272.801 64.6914 272.801 61.7617C272.801 59.6003 273.094 57.6211 273.68 55.8242C274.266 54.0273 275.125 52.4714 276.258 51.1562C277.391 49.8411 278.79 48.8255 280.457 48.1094C282.124 47.3932 284.038 47.0352 286.199 47.0352C287.618 47.0352 289.038 47.2174 290.457 47.582C291.889 47.9336 293.257 48.4219 294.559 49.0469L292.605 53.9688C291.538 53.4609 290.464 53.0182 289.383 52.6406C288.302 52.263 287.241 52.0742 286.199 52.0742ZM326.977 76H320.941V63.6758H309.633V76H303.578V47.4453H309.633V58.6367H320.941V47.4453H326.977V76Z" fill="#1F1F29"/>
<ellipse cx="13.4831" cy="13.5" rx="13.4831" ry="13.5" fill="#3771E0"/>
<ellipse cx="44.4949" cy="13.5" rx="13.4831" ry="13.5" fill="#EA4435"/>
<ellipse cx="75.5056" cy="13.5" rx="13.4831" ry="13.5" fill="#F6B429"/>
<ellipse cx="106.517" cy="13.5" rx="13.4831" ry="13.5" fill="#009D5C"/>
<rect x="31" y="97" width="76" height="8" fill="#3771E0"/>
<rect x="107" y="97" width="76" height="8" fill="#EA4435"/>
<rect x="183" y="97" width="76" height="8" fill="#F6B429"/>
<rect x="259" y="97" width="76" height="8" fill="#009D5C"/>
</svg>
