<svg width="272" height="105" viewBox="0 0 272 105" fill="none" xmlns="http://www.w3.org/2000/svg">
<path d="M52.4062 61.7227C52.4062 64.0273 52.224 66.0846 51.8594 67.8945C51.5078 69.7044 50.9349 71.2409 50.1406 72.5039C49.3594 73.7669 48.3307 74.7305 47.0547 75.3945C45.7786 76.0586 44.2292 76.3906 42.4062 76.3906C40.1146 76.3906 38.2331 75.8112 36.7617 74.6523C35.2904 73.4805 34.2031 71.8008 33.5 69.6133C32.7969 67.4128 32.4453 64.7826 32.4453 61.7227C32.4453 58.6367 32.7643 56 33.4023 53.8125C34.0534 51.612 35.1081 49.9258 36.5664 48.7539C38.0247 47.582 39.9714 46.9961 42.4062 46.9961C44.6849 46.9961 46.5599 47.582 48.0312 48.7539C49.5156 49.9128 50.6159 51.5924 51.332 53.793C52.0482 55.9805 52.4062 58.6237 52.4062 61.7227ZM38.4414 61.7227C38.4414 63.8971 38.5586 65.7135 38.793 67.1719C39.0404 68.6172 39.4505 69.7044 40.0234 70.4336C40.5964 71.1628 41.3906 71.5273 42.4062 71.5273C43.4089 71.5273 44.1966 71.1693 44.7695 70.4531C45.3555 69.724 45.7721 68.6367 46.0195 67.1914C46.2669 65.7331 46.3906 63.9102 46.3906 61.7227C46.3906 59.5482 46.2669 57.7318 46.0195 56.2734C45.7721 54.8151 45.3555 53.7214 44.7695 52.9922C44.1966 52.25 43.4089 51.8789 42.4062 51.8789C41.3906 51.8789 40.5964 52.25 40.0234 52.9922C39.4505 53.7214 39.0404 54.8151 38.793 56.2734C38.5586 57.7318 38.4414 59.5482 38.4414 61.7227ZM78.3398 53.832C78.3398 55.1471 78.0664 56.2865 77.5195 57.25C76.9727 58.2135 76.2305 59.0013 75.293 59.6133C74.3685 60.2253 73.3268 60.6745 72.168 60.9609V61.0781C74.4596 61.3646 76.1979 62.0677 77.3828 63.1875C78.5807 64.3073 79.1797 65.8047 79.1797 67.6797C79.1797 69.3464 78.7695 70.8372 77.9492 72.1523C77.1419 73.4674 75.8919 74.5026 74.1992 75.2578C72.5065 76.013 70.3255 76.3906 67.6562 76.3906C66.0807 76.3906 64.6094 76.2604 63.2422 76C61.888 75.7526 60.612 75.3685 59.4141 74.8477V69.7109C60.638 70.3359 61.9206 70.8112 63.2617 71.1367C64.6029 71.4492 65.8529 71.6055 67.0117 71.6055C69.1732 71.6055 70.6836 71.2344 71.543 70.4922C72.4154 69.737 72.8516 68.6823 72.8516 67.3281C72.8516 66.5339 72.6497 65.8633 72.2461 65.3164C71.8424 64.7695 71.1393 64.3529 70.1367 64.0664C69.1471 63.7799 67.7604 63.6367 65.9766 63.6367H63.8086V59.0078H66.0156C67.7734 59.0078 69.1081 58.8451 70.0195 58.5195C70.944 58.181 71.569 57.7253 71.8945 57.1523C72.2331 56.5664 72.4023 55.9023 72.4023 55.1602C72.4023 54.1445 72.0898 53.3503 71.4648 52.7773C70.8398 52.2044 69.7982 51.918 68.3398 51.918C67.4284 51.918 66.5951 52.0352 65.8398 52.2695C65.0977 52.4909 64.4271 52.7643 63.8281 53.0898C63.2292 53.4023 62.7018 53.7083 62.2461 54.0078L59.4531 49.8477C60.5729 49.0404 61.8815 48.3698 63.3789 47.8359C64.8893 47.3021 66.6862 47.0352 68.7695 47.0352C71.7122 47.0352 74.043 47.6276 75.7617 48.8125C77.4805 49.9974 78.3398 51.6706 78.3398 53.832ZM126.457 61.4492C126.457 64.6654 125.839 67.3542 124.602 69.5156C123.378 71.6641 121.6 73.2852 119.27 74.3789C116.939 75.4596 114.133 76 110.852 76H102.766V47.4453H111.73C114.725 47.4453 117.323 47.9792 119.523 49.0469C121.724 50.1016 123.43 51.6706 124.641 53.7539C125.852 55.8242 126.457 58.3893 126.457 61.4492ZM120.168 61.6055C120.168 59.4961 119.855 57.7643 119.23 56.4102C118.618 55.043 117.707 54.0339 116.496 53.3828C115.298 52.7318 113.814 52.4062 112.043 52.4062H108.82V71H111.418C114.374 71 116.568 70.2122 118 68.6367C119.445 67.0612 120.168 64.7174 120.168 61.6055ZM152.82 76H136.375V47.4453H152.82V52.4062H142.43V58.6758H152.098V63.6367H142.43V71H152.82V76ZM179.652 68.0703C179.652 69.763 179.242 71.2344 178.422 72.4844C177.602 73.7344 176.404 74.6979 174.828 75.375C173.266 76.0521 171.365 76.3906 169.125 76.3906C168.135 76.3906 167.165 76.3255 166.215 76.1953C165.277 76.0651 164.372 75.8763 163.5 75.6289C162.641 75.3685 161.82 75.0495 161.039 74.6719V69.0469C162.393 69.6458 163.799 70.1862 165.258 70.668C166.716 71.1497 168.161 71.3906 169.594 71.3906C170.583 71.3906 171.378 71.2604 171.977 71C172.589 70.7396 173.031 70.3815 173.305 69.9258C173.578 69.4701 173.715 68.9492 173.715 68.3633C173.715 67.6471 173.474 67.0352 172.992 66.5273C172.51 66.0195 171.846 65.5443 171 65.1016C170.167 64.6589 169.223 64.1836 168.168 63.6758C167.504 63.3633 166.781 62.9857 166 62.543C165.219 62.0872 164.477 61.5339 163.773 60.8828C163.07 60.2318 162.491 59.444 162.035 58.5195C161.592 57.582 161.371 56.4622 161.371 55.1602C161.371 53.4544 161.762 51.9961 162.543 50.7852C163.324 49.5742 164.438 48.6497 165.883 48.0117C167.341 47.3607 169.06 47.0352 171.039 47.0352C172.523 47.0352 173.936 47.2109 175.277 47.5625C176.632 47.901 178.044 48.3958 179.516 49.0469L177.562 53.7539C176.247 53.2201 175.069 52.8099 174.027 52.5234C172.986 52.224 171.924 52.0742 170.844 52.0742C170.089 52.0742 169.444 52.1979 168.91 52.4453C168.376 52.6797 167.973 53.0182 167.699 53.4609C167.426 53.8906 167.289 54.3919 167.289 54.9648C167.289 55.6419 167.484 56.2148 167.875 56.6836C168.279 57.1393 168.878 57.582 169.672 58.0117C170.479 58.4414 171.482 58.9427 172.68 59.5156C174.138 60.2057 175.382 60.9284 176.41 61.6836C177.452 62.4258 178.253 63.3047 178.812 64.3203C179.372 65.3229 179.652 66.5729 179.652 68.0703ZM188.828 76V47.4453H194.883V76H188.828ZM216.91 59.9648H228.238V74.7695C226.741 75.2643 225.185 75.6615 223.57 75.9609C221.956 76.2474 220.126 76.3906 218.082 76.3906C215.243 76.3906 212.835 75.8307 210.855 74.7109C208.876 73.5911 207.372 71.9375 206.344 69.75C205.315 67.5625 204.801 64.8737 204.801 61.6836C204.801 58.6888 205.374 56.0977 206.52 53.9102C207.678 51.7227 209.365 50.0299 211.578 48.832C213.805 47.6341 216.52 47.0352 219.723 47.0352C221.233 47.0352 222.724 47.1979 224.195 47.5234C225.667 47.849 227.001 48.2721 228.199 48.793L226.188 53.6367C225.315 53.194 224.319 52.8229 223.199 52.5234C222.079 52.224 220.908 52.0742 219.684 52.0742C217.926 52.0742 216.396 52.4779 215.094 53.2852C213.805 54.0924 212.802 55.2253 212.086 56.6836C211.383 58.1289 211.031 59.8346 211.031 61.8008C211.031 63.6628 211.285 65.3164 211.793 66.7617C212.301 68.194 213.102 69.3203 214.195 70.1406C215.289 70.9479 216.715 71.3516 218.473 71.3516C219.332 71.3516 220.055 71.3125 220.641 71.2344C221.24 71.1432 221.799 71.0521 222.32 70.9609V65.0039H216.91V59.9648ZM264.387 76H256.691L244.27 54.3984H244.094C244.146 55.2969 244.191 56.2018 244.23 57.1133C244.27 58.0247 244.309 58.9362 244.348 59.8477C244.387 60.7461 244.426 61.651 244.465 62.5625V76H239.055V47.4453H246.691L259.094 68.832H259.23C259.204 67.9466 259.172 67.0677 259.133 66.1953C259.094 65.3229 259.055 64.4505 259.016 63.5781C258.99 62.7057 258.964 61.8333 258.938 60.9609V47.4453H264.387V76Z" fill="#1F1F29"/>
<ellipse cx="13.4831" cy="13.5" rx="13.4831" ry="13.5" fill="#3771E0"/>
<ellipse cx="44.4949" cy="13.5" rx="13.4831" ry="13.5" fill="#EA4435"/>
<ellipse cx="75.5056" cy="13.5" rx="13.4831" ry="13.5" fill="#F6B429"/>
<ellipse cx="106.517" cy="13.5" rx="13.4831" ry="13.5" fill="#009D5C"/>
<rect x="31" y="97" width="58.75" height="8" fill="#3771E0"/>
<rect x="89.75" y="97" width="58.75" height="8" fill="#EA4435"/>
<rect x="148.5" y="97" width="58.75" height="8" fill="#F6B429"/>
<rect x="207.25" y="97" width="58.75" height="8" fill="#009D5C"/>
</svg>
