<svg width="108" height="23" viewBox="0 0 108 23" fill="none" xmlns="http://www.w3.org/2000/svg">
<g clip-path="url(#clip0_67_344)">
<path d="M85.4209 7.42799C85.1771 7.42799 84.9357 7.38049 84.7105 7.2882C84.4853 7.19592 84.2806 7.06065 84.1082 6.89012C83.9359 6.7196 83.7991 6.51715 83.7058 6.29435C83.6125 6.07155 83.5645 5.83275 83.5645 5.59159C83.5645 5.35044 83.6125 5.11164 83.7058 4.88884C83.7991 4.66603 83.9359 4.46359 84.1082 4.29307C84.2806 4.12254 84.4853 3.98727 84.7105 3.89499C84.9357 3.8027 85.1771 3.7552 85.4209 3.7552C85.6653 3.75307 85.9076 3.79911 86.1338 3.89065C86.36 3.98218 86.5655 4.11737 86.7383 4.28832C86.9111 4.45927 87.0478 4.66256 87.1403 4.88632C87.2328 5.11009 87.2794 5.34984 87.2772 5.59159C87.2751 6.07799 87.0789 6.54386 86.7312 6.8878C86.3835 7.23174 85.9126 7.42589 85.4209 7.42799ZM33.0716 19.2448H36.3646L36.752 9.45601L40.0854 15.2606H41.8691L45.0249 9.38415L45.4608 19.2448H48.9071L48.2049 4.1624H44.9119L41.0216 11.2365L37.0507 4.1624H33.8222L33.0716 19.2448ZM59.561 16.0511C59.1937 16.298 58.8048 16.5118 58.3988 16.6898C57.7411 16.9653 57.03 17.0934 56.3164 17.0651C55.5758 17.1075 54.8455 16.8771 54.2664 16.4183C54.0365 16.2384 53.8494 16.0106 53.7183 15.7513C53.5872 15.4919 53.5153 15.2072 53.5077 14.9173H61.1349V14.3744C61.1433 13.5453 61.0291 12.7195 60.7959 11.9232C60.5941 11.2195 60.2479 10.5645 59.7789 9.99895C59.3279 9.46518 58.7628 9.03704 58.1243 8.74541C57.4032 8.42943 56.6207 8.27406 55.8322 8.2903C55.0329 8.28027 54.2407 8.43811 53.5077 8.75339C52.8511 9.03963 52.2614 9.45683 51.7753 9.9789C51.2892 10.501 50.9173 11.1167 50.6828 11.7874C50.4318 12.4708 50.3035 13.1922 50.3034 13.9193C50.2953 14.7115 50.432 15.4986 50.707 16.2427C50.9562 16.9188 51.353 17.5321 51.8692 18.0392C52.4024 18.5512 53.0373 18.9482 53.7337 19.2049C54.5237 19.494 55.3612 19.6348 56.2034 19.6201C56.817 19.6278 57.4293 19.5635 58.0275 19.4284C58.5017 19.3203 58.966 19.1734 59.4157 18.9893C59.7482 18.8531 60.0648 18.6817 60.3601 18.4783C60.6022 18.3027 60.7878 18.1829 60.9089 18.103L59.561 16.0511ZM53.5077 12.8573C53.51 12.6187 53.5593 12.3827 53.6529 12.1627C53.7542 11.9234 53.9023 11.7063 54.0888 11.524C54.2919 11.3146 54.5364 11.1488 54.8071 11.0369C55.1257 10.9024 55.4697 10.837 55.816 10.8453C56.1519 10.8368 56.4854 10.9023 56.7926 11.0369C57.0526 11.151 57.2862 11.3168 57.4787 11.524C57.658 11.7072 57.798 11.9245 57.8903 12.1627C57.9815 12.3831 58.0281 12.6191 58.0275 12.8573H53.5077ZM72.3053 19.2448H82.3296V16.4503H75.7517V4.1624H72.3053V19.2448ZM83.7744 19.2448H87.0674V8.64161H83.7744V19.2448ZM98.2378 4.873C97.769 4.47368 97.2183 4.1795 96.6236 4.0107C96.0517 3.84693 95.4594 3.76361 94.8641 3.76318C94.3151 3.76367 93.7699 3.85267 93.2499 4.02667C92.7165 4.19173 92.2247 4.46719 91.8072 4.83475C91.3898 5.20231 91.0561 5.65355 90.8285 6.15848C90.562 6.77336 90.4326 7.43785 90.4492 8.10666V8.64959H88.7139V11.2046H90.4492V19.2448H93.718V11.1966H96.2604V8.64161H93.718V8.05077C93.6889 7.60605 93.8366 7.16768 94.1296 6.82917C94.2716 6.68487 94.4427 6.57186 94.6319 6.49756C94.8211 6.42326 95.024 6.38934 95.2273 6.39801C95.5017 6.40296 95.7738 6.44871 96.0344 6.53374C96.3016 6.62586 96.5543 6.75489 96.785 6.91699L98.2378 4.873ZM69.7468 16.4183C69.5314 16.5704 69.3016 16.7014 69.0607 16.8096C68.788 16.9345 68.4895 16.9947 68.189 16.9852C68.0049 16.9983 67.8204 16.9666 67.6516 16.8928C67.4827 16.8191 67.3347 16.7055 67.2205 16.5621C66.9966 16.2093 66.8894 15.7962 66.9138 15.3804V11.1966H69.6822V8.64161H66.9138V5.79919H63.6208V8.64161H61.9258V11.1966H63.6208V15.1888C63.6157 15.7965 63.6862 16.4025 63.8306 16.9932C63.9511 17.5038 64.1855 17.9812 64.5167 18.3905C64.8471 18.8034 65.2774 19.1274 65.7677 19.3326C66.3799 19.5661 67.0328 19.6773 67.6886 19.66C68.9252 19.654 70.121 19.2221 71.0704 18.4384L69.7468 16.4183ZM106.172 16.0351C105.804 16.282 105.415 16.4958 105.009 16.6738C104.352 16.9493 103.641 17.0774 102.927 17.0491C102.189 17.091 101.461 16.8606 100.885 16.4024C100.647 16.2268 100.451 16.0011 100.311 15.7415C100.172 15.4819 100.092 15.195 100.078 14.9013H107.713V14.3584C107.723 13.5287 107.606 12.7023 107.366 11.9072C107.164 11.2035 106.818 10.5485 106.349 9.98298C105.9 9.44745 105.334 9.01898 104.695 8.72944C103.976 8.41336 103.197 8.25796 102.411 8.27433C101.609 8.26317 100.814 8.42103 100.078 8.73742C99.4236 9.02688 98.8356 9.44518 98.3499 9.96681C97.8642 10.4884 97.4911 11.1025 97.2531 11.7715C97.0022 12.4548 96.8738 13.1763 96.8738 13.9033C96.8656 14.6955 97.0024 15.4826 97.2774 16.2267C97.5266 16.9028 97.9234 17.5162 98.4396 18.0232C98.9756 18.5317 99.6097 18.9282 100.304 19.1889C101.094 19.4766 101.932 19.6174 102.774 19.6041C103.39 19.6118 104.005 19.5475 104.606 19.4125C105.078 19.3056 105.54 19.1586 105.986 18.9733C106.319 18.8371 106.635 18.6658 106.93 18.4623L107.479 18.0871L106.172 16.0351ZM100.118 12.8414C100.121 12.6027 100.17 12.3667 100.264 12.1467C100.371 11.9106 100.518 11.6945 100.7 11.508C100.904 11.3003 101.148 11.1348 101.418 11.0209C101.737 10.8878 102.081 10.8225 102.427 10.8293C102.765 10.8207 103.101 10.8862 103.411 11.0209C103.67 11.1371 103.903 11.3026 104.097 11.508C104.271 11.6954 104.411 11.9116 104.509 12.1467C104.596 12.3683 104.643 12.6036 104.646 12.8414H100.118Z" fill="white"/>
<path d="M12.7808 7.48384C15.4648 10.9931 16.9134 15.2753 16.9051 19.6759C16.9053 20.7642 16.8189 21.8507 16.6469 22.9255H24.1369C24.2974 22.9299 24.4572 22.902 24.6065 22.8434C24.7559 22.7849 24.8916 22.697 25.0056 22.585C25.1195 22.473 25.2093 22.3393 25.2695 22.192C25.3296 22.0446 25.3589 21.8868 25.3556 21.7279V1.25606C25.3565 1.07729 25.3159 0.900698 25.2369 0.73994C25.1578 0.579183 25.0424 0.438568 24.8996 0.328972C24.7569 0.219375 24.5905 0.143731 24.4135 0.107892C24.2364 0.0720532 24.0534 0.0769795 23.8786 0.122288C19.4489 1.27438 15.54 3.86734 12.7808 7.48384Z" fill="white" fill-opacity="0.4"/>
<path d="M8.92279 22.9256C8.74401 21.8514 8.65492 20.7646 8.65644 19.676C8.64816 15.2754 10.0967 10.9932 12.7808 7.48389C10.0329 3.87009 6.13497 1.2769 1.71528 0.122334C1.54088 0.0767883 1.3582 0.0717379 1.1815 0.107577C1.0048 0.143417 0.838865 0.219176 0.696653 0.328938C0.554442 0.438701 0.439803 0.579497 0.361687 0.740332C0.283572 0.901167 0.244094 1.07769 0.246337 1.25611V21.7279C0.245272 21.8817 0.274967 22.0341 0.33371 22.1765C0.392452 22.3188 0.479081 22.4483 0.588611 22.5574C0.69814 22.6665 0.828405 22.7531 0.971901 22.8121C1.1154 22.8712 1.26929 22.9016 1.42472 22.9016L8.92279 22.9256Z" fill="white" fill-opacity="0.6"/>
<path d="M12.7808 7.48389C10.0967 10.9932 8.64815 15.2754 8.65644 19.676C8.65492 20.7646 8.744 21.8514 8.92278 22.9256H16.6468C16.8189 21.8507 16.9053 20.7642 16.9051 19.676C16.9134 15.2754 15.4648 10.9932 12.7808 7.48389Z" fill="white" fill-opacity="0.8"/>
</g>
<defs>
<clipPath id="clip0_67_344">
<rect width="108" height="23" fill="white"/>
</clipPath>
</defs>
</svg>
