<svg version="1.2" xmlns="http://www.w3.org/2000/svg" viewBox="0 0 1551 1429" width="1551" height="1429">
	<title>MetLife_logo-svg</title>
	<defs>
		<clipPath clipPathUnits="userSpaceOnUse" id="cp1">
			<path d="m-574.86-331.94h7914.59v2110.45h-7914.59z"/>
		</clipPath>
	</defs>
	<style>
		.s0 { fill: #99d538 } 
		.s1 { fill: #239de0 } 
		.s2 { fill: #1563a9 } 
	</style>
	<g id="layer1">
		<g id="g74">
			<g id="Clip-Path: g76" clip-path="url(#cp1)">
				<g id="g76">
					<g id="g86">
						<path id="path88" class="s0" d="m1459.7 3.2c46-12.1 91 23.2 91 70.9v1280.9c0 40.4-32.7 73.1-72.9 73.1h-463.3c10.6-66.1 16.2-133.8 16.2-202.8 0-286.2-94.9-550.1-254.9-762 167.8-222.2 407.2-387 683.9-460.1z"/>
					</g>
					<g id="g90">
						<path id="path92" class="s1" d="m73.8 1428.1c-40.3 0-73-32.8-73-73.1v-1280.9c0-47.7 45-83 91-70.8 276.7 72.9 516.1 237.8 683.9 460-159.9 211.9-254.9 475.8-254.9 761.9 0 69.1 5.6 136.8 16.2 202.9z"/>
					</g>
					<g id="g94">
						<path id="path96" class="s2" d="m1030.7 1225.3c0 69-5.6 136.7-16.2 202.8h-477.4c-10.7-66.1-16.3-133.8-16.3-202.8 0-286.2 94.9-550.1 255-762 160 211.9 254.9 475.8 254.9 762z"/>
					</g>
				</g>
			</g>
		</g>
	</g>
</svg>