<svg width="293" height="270" viewBox="0 0 293 270" fill="none" xmlns="http://www.w3.org/2000/svg">
<g filter="url(#filter0_d_818_45456)">
<rect x="20" y="20" width="252.325" height="230" rx="10" fill="white"/>
</g>
<path d="M20 234.786H272.325V240C272.325 245.523 267.847 250 262.325 250H30C24.4772 250 20 245.523 20 240V234.786Z" fill="#3771E0"/>
<path d="M98.7937 147.15C100.452 147.15 101.662 147.476 102.424 148.126C103.191 148.771 103.575 149.696 103.575 150.903C103.575 151.448 103.484 151.967 103.302 152.459C103.127 152.945 102.84 153.376 102.441 153.751C102.043 154.12 101.518 154.413 100.868 154.63C100.223 154.841 99.4324 154.946 98.4949 154.946H96.9304V160H95.4363V147.15H98.7937ZM98.6531 148.425H96.9304V153.663H98.3279C99.1482 153.663 99.8308 153.575 100.376 153.399C100.927 153.224 101.34 152.939 101.615 152.547C101.89 152.148 102.028 151.621 102.028 150.965C102.028 150.109 101.756 149.474 101.211 149.058C100.666 148.636 99.8132 148.425 98.6531 148.425ZM110.422 150.191C110.615 150.191 110.817 150.203 111.028 150.227C111.239 150.244 111.427 150.271 111.591 150.306L111.406 151.659C111.248 151.618 111.072 151.586 110.879 151.562C110.685 151.539 110.504 151.527 110.334 151.527C109.947 151.527 109.581 151.606 109.235 151.765C108.895 151.917 108.596 152.14 108.339 152.433C108.081 152.72 107.879 153.068 107.732 153.479C107.586 153.883 107.512 154.334 107.512 154.832V160H106.045V150.367H107.258L107.416 152.143H107.477C107.677 151.785 107.917 151.46 108.198 151.167C108.479 150.868 108.804 150.631 109.174 150.455C109.549 150.279 109.965 150.191 110.422 150.191ZM121.716 155.166C121.716 155.957 121.613 156.663 121.408 157.284C121.203 157.905 120.907 158.43 120.52 158.857C120.134 159.285 119.665 159.613 119.114 159.842C118.569 160.064 117.951 160.176 117.26 160.176C116.615 160.176 116.023 160.064 115.484 159.842C114.951 159.613 114.488 159.285 114.095 158.857C113.709 158.43 113.407 157.905 113.19 157.284C112.979 156.663 112.874 155.957 112.874 155.166C112.874 154.111 113.052 153.215 113.41 152.477C113.767 151.732 114.277 151.167 114.939 150.78C115.607 150.388 116.401 150.191 117.321 150.191C118.2 150.191 118.968 150.388 119.624 150.78C120.286 151.173 120.799 151.741 121.162 152.485C121.531 153.224 121.716 154.117 121.716 155.166ZM114.385 155.166C114.385 155.939 114.488 156.61 114.693 157.179C114.898 157.747 115.215 158.187 115.642 158.497C116.07 158.808 116.621 158.963 117.295 158.963C117.963 158.963 118.51 158.808 118.938 158.497C119.372 158.187 119.691 157.747 119.896 157.179C120.101 156.61 120.204 155.939 120.204 155.166C120.204 154.398 120.101 153.736 119.896 153.18C119.691 152.617 119.375 152.184 118.947 151.879C118.519 151.574 117.966 151.422 117.286 151.422C116.284 151.422 115.549 151.753 115.08 152.415C114.617 153.077 114.385 153.994 114.385 155.166ZM123.078 164.324C122.779 164.324 122.518 164.301 122.296 164.254C122.073 164.213 121.88 164.163 121.716 164.104V162.918C121.897 162.977 122.082 163.021 122.269 163.05C122.457 163.085 122.668 163.103 122.902 163.103C123.301 163.103 123.623 162.991 123.869 162.769C124.115 162.546 124.238 162.142 124.238 161.556V150.367H125.697V161.521C125.697 162.106 125.603 162.607 125.416 163.023C125.228 163.445 124.941 163.768 124.554 163.99C124.168 164.213 123.676 164.324 123.078 164.324ZM124.106 147.722C124.106 147.394 124.188 147.153 124.352 147.001C124.522 146.843 124.733 146.764 124.985 146.764C125.225 146.764 125.43 146.843 125.6 147.001C125.776 147.153 125.864 147.394 125.864 147.722C125.864 148.044 125.776 148.284 125.6 148.442C125.43 148.601 125.225 148.68 124.985 148.68C124.733 148.68 124.522 148.601 124.352 148.442C124.188 148.284 124.106 148.044 124.106 147.722ZM132.5 150.191C133.32 150.191 134.023 150.373 134.609 150.736C135.195 151.1 135.643 151.609 135.954 152.266C136.264 152.916 136.42 153.678 136.42 154.551V155.456H129.766C129.784 156.587 130.065 157.448 130.61 158.04C131.155 158.632 131.923 158.928 132.913 158.928C133.522 158.928 134.061 158.872 134.53 158.761C134.999 158.649 135.485 158.485 135.989 158.269V159.552C135.503 159.769 135.019 159.927 134.539 160.026C134.064 160.126 133.502 160.176 132.851 160.176C131.926 160.176 131.117 159.988 130.426 159.613C129.74 159.232 129.207 158.676 128.826 157.943C128.445 157.211 128.255 156.314 128.255 155.254C128.255 154.217 128.427 153.32 128.773 152.564C129.125 151.803 129.617 151.217 130.25 150.807C130.888 150.396 131.638 150.191 132.5 150.191ZM132.482 151.387C131.703 151.387 131.082 151.642 130.619 152.151C130.156 152.661 129.881 153.373 129.793 154.287H134.89C134.885 153.713 134.794 153.209 134.618 152.775C134.448 152.336 134.187 151.996 133.836 151.756C133.484 151.51 133.033 151.387 132.482 151.387ZM142.757 160.176C141.889 160.176 141.125 159.997 140.463 159.64C139.801 159.282 139.285 158.737 138.916 158.005C138.547 157.272 138.362 156.35 138.362 155.236C138.362 154.07 138.555 153.118 138.942 152.38C139.335 151.636 139.874 151.085 140.559 150.728C141.245 150.37 142.024 150.191 142.897 150.191C143.378 150.191 143.841 150.241 144.286 150.341C144.737 150.435 145.106 150.555 145.393 150.701L144.954 151.923C144.661 151.806 144.321 151.7 143.934 151.606C143.553 151.513 143.196 151.466 142.862 151.466C142.194 151.466 141.637 151.609 141.192 151.896C140.753 152.184 140.422 152.605 140.199 153.162C139.982 153.719 139.874 154.404 139.874 155.219C139.874 155.998 139.979 156.663 140.19 157.214C140.407 157.765 140.726 158.187 141.148 158.479C141.576 158.767 142.109 158.91 142.748 158.91C143.258 158.91 143.718 158.857 144.128 158.752C144.538 158.641 144.91 158.512 145.244 158.365V159.666C144.922 159.83 144.561 159.956 144.163 160.044C143.77 160.132 143.302 160.176 142.757 160.176ZM150.64 158.98C150.881 158.98 151.127 158.96 151.379 158.919C151.631 158.878 151.836 158.828 151.994 158.77V159.903C151.824 159.979 151.587 160.044 151.282 160.097C150.983 160.149 150.69 160.176 150.403 160.176C149.893 160.176 149.43 160.088 149.014 159.912C148.598 159.73 148.264 159.426 148.012 158.998C147.766 158.57 147.643 157.979 147.643 157.223V151.51H146.272V150.798L147.652 150.227L148.232 148.135H149.111V150.367H151.932V151.51H149.111V157.179C149.111 157.782 149.249 158.233 149.524 158.532C149.805 158.831 150.177 158.98 150.64 158.98ZM162.787 160H161.284V148.469H157.241V147.15H166.812V148.469H162.787V160ZM167.014 150.367H168.579L170.706 155.957C170.829 156.285 170.943 156.602 171.049 156.906C171.154 157.205 171.248 157.492 171.33 157.768C171.412 158.043 171.476 158.31 171.523 158.567H171.585C171.667 158.274 171.784 157.891 171.936 157.416C172.089 156.936 172.253 156.446 172.428 155.948L174.441 150.367H176.014L171.822 161.415C171.599 162.007 171.339 162.522 171.04 162.962C170.747 163.401 170.389 163.738 169.968 163.973C169.546 164.213 169.036 164.333 168.438 164.333C168.163 164.333 167.92 164.315 167.709 164.28C167.498 164.251 167.316 164.216 167.164 164.175V163.006C167.293 163.035 167.448 163.062 167.63 163.085C167.817 163.108 168.01 163.12 168.21 163.12C168.573 163.12 168.886 163.05 169.15 162.909C169.42 162.774 169.651 162.575 169.844 162.312C170.038 162.048 170.205 161.734 170.345 161.371L170.873 160.018L167.014 150.367ZM182.079 150.191C183.28 150.191 184.238 150.604 184.953 151.431C185.668 152.257 186.025 153.499 186.025 155.157C186.025 156.253 185.861 157.173 185.533 157.917C185.205 158.661 184.742 159.224 184.144 159.604C183.552 159.985 182.852 160.176 182.044 160.176C181.534 160.176 181.086 160.108 180.699 159.974C180.312 159.839 179.981 159.657 179.706 159.429C179.43 159.2 179.202 158.951 179.02 158.682H178.915C178.932 158.91 178.953 159.186 178.976 159.508C179.006 159.83 179.02 160.111 179.02 160.352V164.307H177.552V150.367H178.757L178.95 151.791H179.02C179.208 151.498 179.436 151.231 179.706 150.991C179.975 150.745 180.303 150.552 180.69 150.411C181.083 150.265 181.546 150.191 182.079 150.191ZM181.824 151.422C181.156 151.422 180.617 151.551 180.207 151.809C179.802 152.066 179.507 152.453 179.319 152.969C179.132 153.479 179.032 154.12 179.02 154.894V155.175C179.02 155.989 179.108 156.678 179.284 157.24C179.466 157.803 179.761 158.23 180.172 158.523C180.588 158.816 181.144 158.963 181.842 158.963C182.439 158.963 182.937 158.802 183.336 158.479C183.734 158.157 184.03 157.709 184.223 157.135C184.423 156.555 184.522 155.89 184.522 155.14C184.522 154.003 184.3 153.101 183.854 152.433C183.415 151.759 182.738 151.422 181.824 151.422ZM192.283 150.191C193.103 150.191 193.806 150.373 194.392 150.736C194.978 151.1 195.427 151.609 195.737 152.266C196.048 152.916 196.203 153.678 196.203 154.551V155.456H189.55C189.567 156.587 189.848 157.448 190.393 158.04C190.938 158.632 191.706 158.928 192.696 158.928C193.305 158.928 193.844 158.872 194.313 158.761C194.782 158.649 195.268 158.485 195.772 158.269V159.552C195.286 159.769 194.802 159.927 194.322 160.026C193.847 160.126 193.285 160.176 192.635 160.176C191.709 160.176 190.9 159.988 190.209 159.613C189.523 159.232 188.99 158.676 188.609 157.943C188.228 157.211 188.038 156.314 188.038 155.254C188.038 154.217 188.211 153.32 188.556 152.564C188.908 151.803 189.4 151.217 190.033 150.807C190.672 150.396 191.422 150.191 192.283 150.191ZM192.265 151.387C191.486 151.387 190.865 151.642 190.402 152.151C189.939 152.661 189.664 153.373 189.576 154.287H194.674C194.668 153.713 194.577 153.209 194.401 152.775C194.231 152.336 193.97 151.996 193.619 151.756C193.267 151.51 192.816 151.387 192.265 151.387Z" fill="#1F1F29"/>
<path d="M80.5637 178.723V187.961C80.5637 188.957 80.3521 189.849 79.9289 190.637C79.5123 191.424 78.8807 192.049 78.0344 192.512C77.188 192.967 76.1236 193.195 74.841 193.195C73.0116 193.195 71.6184 192.717 70.6613 191.76C69.7108 190.796 69.2356 189.517 69.2356 187.922V178.723H71.5793V187.717C71.5793 188.908 71.8593 189.787 72.4192 190.354C72.9791 190.92 73.8156 191.203 74.9289 191.203C75.6972 191.203 76.3222 191.07 76.8039 190.803C77.2922 190.529 77.6503 190.132 77.8781 189.611C78.1125 189.084 78.2297 188.449 78.2297 187.707V178.723H80.5637ZM94.7531 193H92.0871L88.4934 187.15L84.8801 193H82.3703L87.1164 185.598L82.6926 178.723H85.2805L88.6008 184.133L91.9016 178.723H94.4113L89.968 185.666L94.7531 193ZM102.448 178.723L97.1262 193H94.9778L100.3 178.723H102.448ZM115.7 178.723V187.961C115.7 188.957 115.489 189.849 115.066 190.637C114.649 191.424 114.017 192.049 113.171 192.512C112.325 192.967 111.26 193.195 109.978 193.195C108.148 193.195 106.755 192.717 105.798 191.76C104.848 190.796 104.372 189.517 104.372 187.922V178.723H106.716V187.717C106.716 188.908 106.996 189.787 107.556 190.354C108.116 190.92 108.952 191.203 110.066 191.203C110.834 191.203 111.459 191.07 111.941 190.803C112.429 190.529 112.787 190.132 113.015 189.611C113.249 189.084 113.366 188.449 113.366 187.707V178.723H115.7ZM119.353 193V178.723H121.697V193H119.353ZM134.675 178.723C135.905 178.723 136.921 178.872 137.722 179.172C138.529 179.471 139.128 179.927 139.519 180.539C139.916 181.151 140.114 181.929 140.114 182.873C140.114 183.576 139.984 184.175 139.724 184.67C139.463 185.165 139.122 185.575 138.698 185.9C138.275 186.226 137.823 186.486 137.341 186.682L141.394 193H138.747L135.3 187.277H133.005V193H130.661V178.723H134.675ZM134.519 180.676H133.005V185.344H134.626C135.713 185.344 136.501 185.142 136.989 184.738C137.484 184.335 137.732 183.739 137.732 182.951C137.732 182.124 137.468 181.538 136.941 181.193C136.42 180.848 135.613 180.676 134.519 180.676ZM151.521 193H143.435V178.723H151.521V180.695H145.779V184.572H151.159V186.535H145.779V191.018H151.521V193ZM166.198 185.725C166.198 187.333 165.899 188.677 165.3 189.758C164.701 190.832 163.832 191.643 162.693 192.189C161.553 192.73 160.18 193 158.572 193H154.607V178.723H159.001C160.479 178.723 161.755 178.99 162.829 179.523C163.904 180.051 164.734 180.835 165.32 181.877C165.905 182.912 166.198 184.195 166.198 185.725ZM163.757 185.793C163.757 184.621 163.572 183.658 163.2 182.902C162.836 182.147 162.295 181.587 161.579 181.223C160.87 180.852 159.994 180.666 158.952 180.666H156.95V191.037H158.611C160.336 191.037 161.625 190.598 162.478 189.719C163.331 188.84 163.757 187.531 163.757 185.793ZM177.361 193H169.275V178.723H177.361V180.695H171.618V184.572H176.999V186.535H171.618V191.018H177.361V193ZM188.689 189.113C188.689 189.96 188.48 190.689 188.064 191.301C187.654 191.913 187.061 192.382 186.286 192.707C185.518 193.033 184.6 193.195 183.532 193.195C183.012 193.195 182.514 193.166 182.038 193.107C181.563 193.049 181.114 192.964 180.691 192.854C180.274 192.736 179.893 192.596 179.548 192.434V190.227C180.127 190.48 180.775 190.712 181.491 190.92C182.208 191.122 182.937 191.223 183.679 191.223C184.284 191.223 184.786 191.145 185.183 190.988C185.586 190.826 185.886 190.598 186.081 190.305C186.277 190.005 186.374 189.657 186.374 189.26C186.374 188.837 186.26 188.479 186.032 188.186C185.805 187.893 185.46 187.626 184.997 187.385C184.542 187.137 183.969 186.874 183.279 186.594C182.81 186.405 182.361 186.19 181.931 185.949C181.508 185.708 181.13 185.425 180.798 185.1C180.466 184.774 180.202 184.39 180.007 183.947C179.818 183.498 179.724 182.971 179.724 182.365C179.724 181.558 179.916 180.868 180.3 180.295C180.691 179.722 181.238 179.283 181.941 178.977C182.65 178.671 183.477 178.518 184.421 178.518C185.17 178.518 185.873 178.596 186.53 178.752C187.195 178.908 187.846 179.13 188.484 179.416L187.741 181.301C187.155 181.06 186.586 180.868 186.032 180.725C185.486 180.581 184.926 180.51 184.353 180.51C183.858 180.51 183.438 180.585 183.093 180.734C182.748 180.884 182.484 181.096 182.302 181.369C182.126 181.636 182.038 181.955 182.038 182.326C182.038 182.743 182.139 183.094 182.341 183.381C182.549 183.661 182.868 183.918 183.298 184.152C183.734 184.387 184.294 184.647 184.978 184.934C185.766 185.259 186.433 185.601 186.98 185.959C187.533 186.317 187.956 186.747 188.249 187.248C188.542 187.743 188.689 188.365 188.689 189.113ZM191.443 193V178.723H193.786V193H191.443ZM203.318 185.246H208.65V192.414C207.901 192.661 207.126 192.854 206.325 192.99C205.525 193.127 204.626 193.195 203.63 193.195C202.178 193.195 200.948 192.909 199.939 192.336C198.936 191.757 198.174 190.92 197.654 189.826C197.133 188.726 196.872 187.401 196.872 185.852C196.872 184.361 197.162 183.068 197.741 181.975C198.321 180.874 199.164 180.025 200.271 179.426C201.377 178.82 202.719 178.518 204.294 178.518C205.069 178.518 205.818 178.596 206.54 178.752C207.269 178.902 207.937 179.11 208.542 179.377L207.722 181.311C207.24 181.083 206.7 180.891 206.101 180.734C205.502 180.578 204.88 180.5 204.236 180.5C203.213 180.5 202.331 180.721 201.589 181.164C200.853 181.607 200.287 182.232 199.89 183.039C199.493 183.84 199.294 184.787 199.294 185.881C199.294 186.942 199.454 187.873 199.773 188.674C200.092 189.475 200.59 190.1 201.267 190.549C201.95 190.992 202.833 191.213 203.913 191.213C204.454 191.213 204.913 191.184 205.29 191.125C205.668 191.066 206.016 191.001 206.335 190.93V187.248H203.318V185.246ZM223.982 193H221.101L214.109 181.604H214.021C214.047 181.988 214.07 182.395 214.089 182.824C214.115 183.254 214.135 183.697 214.148 184.152C214.167 184.608 214.183 185.07 214.197 185.539V193H212.068V178.723H214.929L221.911 190.041H221.98C221.967 189.709 221.95 189.328 221.931 188.898C221.911 188.469 221.892 188.026 221.872 187.57C221.859 187.108 221.849 186.662 221.843 186.232V178.723H223.982V193Z" fill="#1F1F29"/>
<path d="M132.704 62H122.611C120.751 62 119.247 60.5067 119.247 58.6667C119.247 56.8267 120.751 55.3334 122.611 55.3334H132.704C134.565 55.3334 136.069 56.8267 136.069 58.6667C136.069 60.5067 134.565 62 132.704 62ZM149.526 75.3334H122.611C120.751 75.3334 119.247 73.8401 119.247 72.0001C119.247 70.1601 120.751 68.6667 122.611 68.6667H149.526C151.387 68.6667 152.89 70.1601 152.89 72.0001C152.89 73.8401 151.387 75.3334 149.526 75.3334ZM149.526 88.6667H122.611C120.751 88.6667 119.247 87.1734 119.247 85.3334C119.247 83.4934 120.751 82.0001 122.611 82.0001H149.526C151.387 82.0001 152.89 83.4934 152.89 85.3334C152.89 87.1734 151.387 88.6667 149.526 88.6667Z" fill="#3771E0"/>
<path d="M166.349 48.6667V75.3334C166.349 77.1667 164.835 78.6667 162.985 78.6667C161.134 78.6667 159.62 77.1667 159.62 75.3334V50.3333C159.62 49.4 158.88 48.6667 157.938 48.6667H114.202C113.26 48.6667 112.52 49.4 112.52 50.3333V113.667C112.52 114.6 113.26 115.333 114.202 115.333H157.938C158.88 115.333 159.62 114.6 159.62 113.667V112C159.62 110.167 161.134 108.667 162.985 108.667C164.835 108.667 166.349 110.167 166.349 112V115.333C166.349 119 163.321 122 159.62 122H112.52C108.819 122 105.791 119 105.791 115.333V48.6667C105.791 45 108.819 42 112.52 42H159.62C163.321 42 166.349 45 166.349 48.6667Z" fill="#3771E0"/>
<path d="M186.099 81.6067C187.142 83.4067 186.25 85.85 184.097 87.0833L151.631 105.65C151.349 105.817 151.039 105.937 150.74 106.017L141.804 108.217C140.559 108.523 139.382 108.1 138.843 107.17C138.298 106.243 138.541 105.003 139.415 104.127L145.831 97.6C146.043 97.36 146.292 97.19 146.551 97.0433C146.565 97.01 146.592 96.9933 146.592 96.9933L179.057 78.4267C181.21 77.1933 183.794 77.6467 184.844 79.4433L186.102 81.61L186.099 81.6067Z" fill="#3771E0"/>
<defs>
<filter id="filter0_d_818_45456" x="0" y="0" width="292.325" height="270" filterUnits="userSpaceOnUse" color-interpolation-filters="sRGB">
<feFlood flood-opacity="0" result="BackgroundImageFix"/>
<feColorMatrix in="SourceAlpha" type="matrix" values="0 0 0 0 0 0 0 0 0 0 0 0 0 0 0 0 0 0 127 0" result="hardAlpha"/>
<feOffset/>
<feGaussianBlur stdDeviation="10"/>
<feComposite in2="hardAlpha" operator="out"/>
<feColorMatrix type="matrix" values="0 0 0 0 0 0 0 0 0 0 0 0 0 0 0 0 0 0 0.25 0"/>
<feBlend mode="normal" in2="BackgroundImageFix" result="effect1_dropShadow_818_45456"/>
<feBlend mode="normal" in="SourceGraphic" in2="effect1_dropShadow_818_45456" result="shape"/>
</filter>
</defs>
</svg>
