<svg width="293" height="270" viewBox="0 0 293 270" fill="none" xmlns="http://www.w3.org/2000/svg">
<g filter="url(#filter0_d_818_45454)">
<rect x="20" y="20" width="252.325" height="230" rx="10" fill="white"/>
</g>
<path d="M20 234.786H272.325V240C272.325 245.523 267.847 250 262.325 250H30C24.4772 250 20 245.523 20 240V234.786Z" fill="#F6B429"/>
<path d="M48.6105 178.723C49.841 178.723 50.8566 178.872 51.6574 179.172C52.4646 179.471 53.0636 179.927 53.4542 180.539C53.8514 181.151 54.0499 181.929 54.0499 182.873C54.0499 183.576 53.9197 184.175 53.6593 184.67C53.3989 185.165 53.0571 185.575 52.6339 185.9C52.2107 186.226 51.7583 186.486 51.2765 186.682L55.3292 193H52.6827L49.2355 187.277H46.9406V193H44.5968V178.723H48.6105ZM48.4542 180.676H46.9406V185.344H48.5617C49.6489 185.344 50.4367 185.142 50.9249 184.738C51.4197 184.335 51.6671 183.739 51.6671 182.951C51.6671 182.124 51.4035 181.538 50.8761 181.193C50.3553 180.848 49.548 180.676 48.4542 180.676ZM65.4562 193H57.3702V178.723H65.4562V180.695H59.714V184.572H65.0949V186.535H59.714V191.018H65.4562V193ZM76.7843 189.113C76.7843 189.96 76.576 190.689 76.1593 191.301C75.7492 191.913 75.1567 192.382 74.382 192.707C73.6137 193.033 72.6958 193.195 71.6281 193.195C71.1072 193.195 70.6092 193.166 70.1339 193.107C69.6587 193.049 69.2094 192.964 68.7863 192.854C68.3696 192.736 67.9887 192.596 67.6437 192.434V190.227C68.2231 190.48 68.8709 190.712 69.587 190.92C70.3032 191.122 71.0324 191.223 71.7745 191.223C72.38 191.223 72.8813 191.145 73.2785 190.988C73.6821 190.826 73.9816 190.598 74.1769 190.305C74.3722 190.005 74.4699 189.657 74.4699 189.26C74.4699 188.837 74.3559 188.479 74.1281 188.186C73.9002 187.893 73.5551 187.626 73.0929 187.385C72.6372 187.137 72.0643 186.874 71.3742 186.594C70.9054 186.405 70.4562 186.19 70.0265 185.949C69.6033 185.708 69.2257 185.425 68.8937 185.1C68.5617 184.774 68.298 184.39 68.1027 183.947C67.9139 183.498 67.8195 182.971 67.8195 182.365C67.8195 181.558 68.0115 180.868 68.3956 180.295C68.7863 179.722 69.3331 179.283 70.0363 178.977C70.7459 178.671 71.5727 178.518 72.5167 178.518C73.2654 178.518 73.9686 178.596 74.6261 178.752C75.2902 178.908 75.9412 179.13 76.5792 179.416L75.837 181.301C75.2511 181.06 74.6814 180.868 74.1281 180.725C73.5812 180.581 73.0213 180.51 72.4484 180.51C71.9536 180.51 71.5337 180.585 71.1886 180.734C70.8436 180.884 70.5799 181.096 70.3976 181.369C70.2218 181.636 70.1339 181.955 70.1339 182.326C70.1339 182.743 70.2348 183.094 70.4367 183.381C70.645 183.661 70.964 183.918 71.3937 184.152C71.8299 184.387 72.3898 184.647 73.0734 184.934C73.8611 185.259 74.5285 185.601 75.0753 185.959C75.6287 186.317 76.0519 186.747 76.3449 187.248C76.6378 187.743 76.7843 188.365 76.7843 189.113ZM87.6242 193H79.5382V178.723H87.6242V180.695H81.882V184.572H87.2628V186.535H81.882V191.018H87.6242V193ZM99.5577 193L98.1613 189.035H92.7023L91.3058 193H88.8351L94.1476 178.664H96.7452L102.048 193H99.5577ZM97.5558 187.023L96.1984 183.117C96.1463 182.948 96.0714 182.71 95.9738 182.404C95.8761 182.092 95.7785 181.776 95.6808 181.457C95.5831 181.132 95.5018 180.858 95.4367 180.637C95.3715 180.904 95.2902 181.203 95.1925 181.535C95.1014 181.861 95.0102 182.167 94.9191 182.453C94.8344 182.74 94.7693 182.961 94.7238 183.117L93.3566 187.023H97.5558ZM107.946 178.723C109.177 178.723 110.193 178.872 110.993 179.172C111.801 179.471 112.4 179.927 112.79 180.539C113.187 181.151 113.386 181.929 113.386 182.873C113.386 183.576 113.256 184.175 112.995 184.67C112.735 185.165 112.393 185.575 111.97 185.9C111.547 186.226 111.094 186.486 110.612 186.682L114.665 193H112.019L108.571 187.277H106.276V193H103.933V178.723H107.946ZM107.79 180.676H106.276V185.344H107.898C108.985 185.344 109.773 185.142 110.261 184.738C110.756 184.335 111.003 183.739 111.003 182.951C111.003 182.124 110.739 181.538 110.212 181.193C109.691 180.848 108.884 180.676 107.79 180.676ZM122.79 180.51C122.107 180.51 121.495 180.633 120.954 180.881C120.42 181.128 119.968 181.486 119.597 181.955C119.226 182.417 118.943 182.98 118.747 183.645C118.552 184.302 118.454 185.044 118.454 185.871C118.454 186.978 118.61 187.932 118.923 188.732C119.235 189.527 119.711 190.139 120.349 190.568C120.987 190.992 121.794 191.203 122.771 191.203C123.376 191.203 123.965 191.145 124.538 191.027C125.111 190.91 125.704 190.751 126.316 190.549V192.541C125.736 192.769 125.15 192.935 124.558 193.039C123.965 193.143 123.282 193.195 122.507 193.195C121.049 193.195 119.838 192.893 118.874 192.287C117.917 191.682 117.201 190.829 116.726 189.729C116.257 188.628 116.023 187.339 116.023 185.861C116.023 184.781 116.172 183.791 116.472 182.893C116.771 181.994 117.207 181.219 117.78 180.568C118.353 179.911 119.06 179.406 119.9 179.055C120.746 178.697 121.713 178.518 122.8 178.518C123.516 178.518 124.219 178.599 124.909 178.762C125.606 178.918 126.25 179.143 126.843 179.436L126.023 181.369C125.528 181.135 125.01 180.933 124.47 180.764C123.929 180.594 123.37 180.51 122.79 180.51ZM140.642 193H138.308V186.555H131.726V193H129.382V178.723H131.726V184.562H138.308V178.723H140.642V193ZM152.507 193H144.421V178.723H152.507V180.695H146.765V184.572H152.146V186.535H146.765V191.018H152.507V193ZM159.607 178.723C160.837 178.723 161.853 178.872 162.653 179.172C163.461 179.471 164.06 179.927 164.45 180.539C164.847 181.151 165.046 181.929 165.046 182.873C165.046 183.576 164.916 184.175 164.655 184.67C164.395 185.165 164.053 185.575 163.63 185.9C163.207 186.226 162.754 186.486 162.273 186.682L166.325 193H163.679L160.232 187.277H157.937V193H155.593V178.723H159.607ZM159.45 180.676H157.937V185.344H159.558C160.645 185.344 161.433 185.142 161.921 184.738C162.416 184.335 162.663 183.739 162.663 182.951C162.663 182.124 162.4 181.538 161.872 181.193C161.351 180.848 160.544 180.676 159.45 180.676ZM170.446 190.676L170.583 190.9C170.466 191.369 170.316 191.874 170.134 192.414C169.952 192.954 169.753 193.495 169.538 194.035C169.323 194.582 169.105 195.096 168.884 195.578H167.204C167.341 195.051 167.471 194.497 167.595 193.918C167.725 193.345 167.842 192.779 167.946 192.219C168.057 191.652 168.145 191.138 168.21 190.676H170.446ZM190.222 178.723V187.961C190.222 188.957 190.01 189.849 189.587 190.637C189.17 191.424 188.539 192.049 187.693 192.512C186.846 192.967 185.782 193.195 184.499 193.195C182.67 193.195 181.276 192.717 180.319 191.76C179.369 190.796 178.894 189.517 178.894 187.922V178.723H181.237V187.717C181.237 188.908 181.517 189.787 182.077 190.354C182.637 190.92 183.474 191.203 184.587 191.203C185.355 191.203 185.98 191.07 186.462 190.803C186.95 190.529 187.308 190.132 187.536 189.611C187.771 189.084 187.888 188.449 187.888 187.707V178.723H190.222ZM204.411 193H201.745L198.151 187.15L194.538 193H192.028L196.775 185.598L192.351 178.723H194.939L198.259 184.133L201.56 178.723H204.069L199.626 185.666L204.411 193ZM215.798 178.508C216.534 178.508 217.178 178.628 217.732 178.869C218.291 179.11 218.728 179.462 219.04 179.924C219.353 180.38 219.509 180.936 219.509 181.594C219.509 182.473 219.235 183.215 218.689 183.82C218.142 184.426 217.452 184.966 216.618 185.441L219.987 188.723C220.306 188.286 220.57 187.808 220.778 187.287C220.987 186.76 221.166 186.206 221.316 185.627H223.689C223.487 186.434 223.207 187.232 222.849 188.02C222.491 188.801 222.038 189.517 221.491 190.168L224.392 193H221.452L220.007 191.584C219.603 191.91 219.17 192.193 218.708 192.434C218.252 192.674 217.754 192.863 217.214 193C216.674 193.13 216.078 193.195 215.427 193.195C214.431 193.195 213.571 193.036 212.849 192.717C212.126 192.398 211.569 191.942 211.179 191.35C210.795 190.751 210.603 190.041 210.603 189.221C210.603 188.537 210.717 187.951 210.944 187.463C211.179 186.968 211.511 186.535 211.941 186.164C212.37 185.786 212.885 185.428 213.484 185.09C213.158 184.719 212.875 184.357 212.634 184.006C212.393 183.654 212.207 183.293 212.077 182.922C211.954 182.544 211.892 182.141 211.892 181.711C211.892 181.047 212.054 180.477 212.38 180.002C212.706 179.52 213.161 179.152 213.747 178.898C214.333 178.638 215.017 178.508 215.798 178.508ZM214.841 186.486C214.463 186.727 214.138 186.971 213.864 187.219C213.591 187.46 213.379 187.727 213.23 188.02C213.086 188.312 213.015 188.654 213.015 189.045C213.015 189.715 213.249 190.246 213.718 190.637C214.193 191.027 214.805 191.223 215.554 191.223C216.211 191.223 216.788 191.125 217.282 190.93C217.784 190.728 218.22 190.477 218.591 190.178L214.841 186.486ZM215.759 180.324C215.297 180.324 214.896 180.445 214.558 180.686C214.226 180.926 214.06 181.301 214.06 181.809C214.06 182.219 214.167 182.606 214.382 182.971C214.603 183.329 214.909 183.716 215.3 184.133C215.984 183.755 216.491 183.384 216.823 183.02C217.162 182.655 217.331 182.232 217.331 181.75C217.331 181.294 217.178 180.943 216.872 180.695C216.566 180.448 216.195 180.324 215.759 180.324ZM242.722 178.723V187.961C242.722 188.957 242.51 189.849 242.087 190.637C241.67 191.424 241.039 192.049 240.193 192.512C239.346 192.967 238.282 193.195 236.999 193.195C235.17 193.195 233.776 192.717 232.819 191.76C231.869 190.796 231.394 189.517 231.394 187.922V178.723H233.737V187.717C233.737 188.908 234.017 189.787 234.577 190.354C235.137 190.92 235.974 191.203 237.087 191.203C237.855 191.203 238.48 191.07 238.962 190.803C239.45 190.529 239.808 190.132 240.036 189.611C240.271 189.084 240.388 188.449 240.388 187.707V178.723H242.722ZM246.374 193V178.723H248.718V193H246.374Z" fill="#1F1F29"/>
<path d="M120.265 160L115.95 148.627H115.88C115.903 148.867 115.924 149.16 115.941 149.506C115.959 149.852 115.973 150.229 115.985 150.64C115.997 151.044 116.003 151.457 116.003 151.879V160H114.614V147.15H116.829L120.898 157.838H120.96L125.091 147.15H127.288V160H125.811V151.773C125.811 151.393 125.817 151.012 125.829 150.631C125.841 150.244 125.855 149.881 125.873 149.541C125.89 149.195 125.908 148.896 125.926 148.645H125.855L121.487 160H120.265ZM129.063 150.367H130.628L132.755 155.957C132.878 156.285 132.992 156.602 133.097 156.906C133.203 157.205 133.297 157.492 133.379 157.768C133.461 158.043 133.525 158.31 133.572 158.567H133.634C133.716 158.274 133.833 157.891 133.985 157.416C134.137 156.936 134.302 156.446 134.477 155.948L136.49 150.367H138.063L133.871 161.415C133.648 162.007 133.387 162.522 133.089 162.962C132.796 163.401 132.438 163.738 132.016 163.973C131.594 164.213 131.085 164.333 130.487 164.333C130.212 164.333 129.969 164.315 129.758 164.28C129.547 164.251 129.365 164.216 129.213 164.175V163.006C129.342 163.035 129.497 163.062 129.678 163.085C129.866 163.108 130.059 163.12 130.259 163.12C130.622 163.12 130.935 163.05 131.199 162.909C131.469 162.774 131.7 162.575 131.893 162.312C132.087 162.048 132.254 161.734 132.394 161.371L132.922 160.018L129.063 150.367ZM147.969 147.15C149.023 147.15 149.893 147.282 150.579 147.546C151.27 147.804 151.786 148.199 152.126 148.732C152.466 149.266 152.635 149.945 152.635 150.771C152.635 151.451 152.512 152.02 152.266 152.477C152.02 152.928 151.698 153.294 151.3 153.575C150.901 153.856 150.476 154.073 150.025 154.226L153.55 160H151.809L148.663 154.639H145.991V160H144.497V147.15H147.969ZM147.881 148.442H145.991V153.373H148.03C149.079 153.373 149.849 153.159 150.342 152.731C150.84 152.304 151.089 151.674 151.089 150.842C151.089 149.969 150.825 149.351 150.298 148.987C149.776 148.624 148.97 148.442 147.881 148.442ZM163.692 155.166C163.692 155.957 163.59 156.663 163.385 157.284C163.179 157.905 162.884 158.43 162.497 158.857C162.11 159.285 161.641 159.613 161.091 159.842C160.546 160.064 159.927 160.176 159.236 160.176C158.592 160.176 158 160.064 157.461 159.842C156.927 159.613 156.465 159.285 156.072 158.857C155.685 158.43 155.384 157.905 155.167 157.284C154.956 156.663 154.85 155.957 154.85 155.166C154.85 154.111 155.029 153.215 155.386 152.477C155.744 151.732 156.254 151.167 156.916 150.78C157.584 150.388 158.378 150.191 159.298 150.191C160.177 150.191 160.944 150.388 161.6 150.78C162.262 151.173 162.775 151.741 163.138 152.485C163.508 153.224 163.692 154.117 163.692 155.166ZM156.362 155.166C156.362 155.939 156.465 156.61 156.67 157.179C156.875 157.747 157.191 158.187 157.619 158.497C158.047 158.808 158.597 158.963 159.271 158.963C159.939 158.963 160.487 158.808 160.915 158.497C161.348 158.187 161.668 157.747 161.873 157.179C162.078 156.61 162.18 155.939 162.18 155.166C162.18 154.398 162.078 153.736 161.873 153.18C161.668 152.617 161.351 152.184 160.924 151.879C160.496 151.574 159.942 151.422 159.262 151.422C158.26 151.422 157.525 151.753 157.056 152.415C156.594 153.077 156.362 153.994 156.362 155.166ZM167.682 160H166.215V146.324H167.682V160ZM174.476 150.191C175.297 150.191 176 150.373 176.586 150.736C177.172 151.1 177.62 151.609 177.93 152.266C178.241 152.916 178.396 153.678 178.396 154.551V155.456H171.743C171.76 156.587 172.042 157.448 172.587 158.04C173.132 158.632 173.899 158.928 174.889 158.928C175.499 158.928 176.038 158.872 176.507 158.761C176.975 158.649 177.462 158.485 177.966 158.269V159.552C177.479 159.769 176.996 159.927 176.515 160.026C176.041 160.126 175.478 160.176 174.828 160.176C173.902 160.176 173.094 159.988 172.402 159.613C171.717 159.232 171.183 158.676 170.802 157.943C170.422 157.211 170.231 156.314 170.231 155.254C170.231 154.217 170.404 153.32 170.75 152.564C171.101 151.803 171.594 151.217 172.226 150.807C172.865 150.396 173.615 150.191 174.476 150.191ZM174.459 151.387C173.679 151.387 173.058 151.642 172.595 152.151C172.133 152.661 171.857 153.373 171.769 154.287H176.867C176.861 153.713 176.77 153.209 176.594 152.775C176.425 152.336 176.164 151.996 175.812 151.756C175.461 151.51 175.01 151.387 174.459 151.387Z" fill="#1F1F29"/>
<path d="M160.85 84.8373C164.805 81.7537 167.693 77.5252 169.11 72.74C170.527 67.9549 170.404 62.851 168.757 58.1385C167.11 53.4261 164.022 49.3393 159.922 46.4468C155.822 43.5544 150.914 42 145.88 42C140.847 42 135.939 43.5544 131.839 46.4468C127.739 49.3393 124.65 53.4261 123.004 58.1385C121.357 62.851 121.233 67.9549 122.651 72.74C124.068 77.5252 126.955 81.7537 130.911 84.8373C124.133 87.5279 118.218 91.9906 113.799 97.7495C109.379 103.508 106.619 110.348 105.814 117.538C105.756 118.063 105.802 118.595 105.951 119.102C106.1 119.609 106.349 120.082 106.682 120.494C107.356 121.326 108.335 121.859 109.405 121.976C110.475 122.092 111.548 121.783 112.388 121.116C113.228 120.449 113.766 119.478 113.884 118.418C114.77 110.603 118.531 103.386 124.448 98.1448C130.365 92.9037 138.024 90.0064 145.961 90.0064C153.898 90.0064 161.557 92.9037 167.474 98.1448C173.391 103.386 177.152 110.603 178.038 118.418C178.148 119.4 178.621 120.307 179.366 120.965C180.111 121.622 181.076 121.982 182.073 121.976H182.517C183.575 121.855 184.541 121.325 185.206 120.502C185.872 119.678 186.181 118.627 186.068 117.578C185.259 110.367 182.484 103.51 178.042 97.7427C173.599 91.9749 167.656 87.5137 160.85 84.8373ZM145.88 81.9989C142.688 81.9989 139.568 81.0611 136.914 79.304C134.26 77.5469 132.191 75.0495 130.969 72.1275C129.748 69.2056 129.428 65.9904 130.051 62.8885C130.674 59.7866 132.211 56.9373 134.468 54.701C136.725 52.4646 139.601 50.9416 142.732 50.3246C145.862 49.7076 149.108 50.0243 152.057 51.2346C155.006 52.4449 157.526 54.4945 159.3 57.1241C161.073 59.7538 162.02 62.8455 162.02 66.0081C162.02 70.2492 160.319 74.3165 157.293 77.3153C154.266 80.3142 150.161 81.9989 145.88 81.9989Z" fill="#F6B429"/>
<defs>
<filter id="filter0_d_818_45454" x="0" y="0" width="292.325" height="270" filterUnits="userSpaceOnUse" color-interpolation-filters="sRGB">
<feFlood flood-opacity="0" result="BackgroundImageFix"/>
<feColorMatrix in="SourceAlpha" type="matrix" values="0 0 0 0 0 0 0 0 0 0 0 0 0 0 0 0 0 0 127 0" result="hardAlpha"/>
<feOffset/>
<feGaussianBlur stdDeviation="10"/>
<feComposite in2="hardAlpha" operator="out"/>
<feColorMatrix type="matrix" values="0 0 0 0 0 0 0 0 0 0 0 0 0 0 0 0 0 0 0.25 0"/>
<feBlend mode="normal" in2="BackgroundImageFix" result="effect1_dropShadow_818_45454"/>
<feBlend mode="normal" in="SourceGraphic" in2="effect1_dropShadow_818_45454" result="shape"/>
</filter>
</defs>
</svg>
