<svg width="293" height="270" viewBox="0 0 293 270" fill="none" xmlns="http://www.w3.org/2000/svg">
<g filter="url(#filter0_d_818_45455)">
<rect x="20" y="20" width="252.325" height="230" rx="10" fill="white"/>
</g>
<path d="M20 234.786H272.325V240C272.325 245.523 267.847 250 262.325 250H30C24.4772 250 20 245.523 20 240V234.786Z" fill="#EA4435"/>
<path d="M111.083 184.074C112.001 184.074 112.809 184.24 113.505 184.572C114.208 184.898 114.755 185.38 115.146 186.018C115.537 186.649 115.732 187.424 115.732 188.342C115.732 189.344 115.52 190.21 115.097 190.939C114.674 191.662 114.052 192.219 113.232 192.609C112.412 193 111.412 193.195 110.234 193.195C109.485 193.195 108.785 193.13 108.134 193C107.49 192.87 106.933 192.674 106.464 192.414V190.344C106.953 190.617 107.538 190.842 108.222 191.018C108.906 191.187 109.56 191.271 110.185 191.271C110.849 191.271 111.419 191.174 111.894 190.979C112.369 190.783 112.734 190.484 112.988 190.08C113.248 189.676 113.378 189.165 113.378 188.547C113.378 187.727 113.115 187.095 112.587 186.652C112.066 186.203 111.249 185.979 110.136 185.979C109.745 185.979 109.329 186.014 108.886 186.086C108.45 186.151 108.085 186.223 107.792 186.301L106.787 185.705L107.324 178.723H114.745V180.744H109.345L109.033 184.299C109.267 184.247 109.547 184.198 109.872 184.152C110.198 184.1 110.602 184.074 111.083 184.074ZM140.732 178.723L137.001 193H134.443L132.06 184.445C132.001 184.237 131.936 183.99 131.865 183.703C131.793 183.417 131.721 183.124 131.65 182.824C131.585 182.525 131.526 182.251 131.474 182.004C131.428 181.75 131.396 181.555 131.376 181.418C131.363 181.555 131.334 181.747 131.288 181.994C131.243 182.242 131.188 182.515 131.122 182.814C131.064 183.107 130.999 183.4 130.927 183.693C130.856 183.98 130.79 184.234 130.732 184.455L128.388 193H125.839L122.119 178.723H124.472L126.533 187.092C126.598 187.359 126.663 187.648 126.728 187.961C126.8 188.267 126.865 188.576 126.923 188.889C126.988 189.201 127.047 189.507 127.099 189.807C127.151 190.1 127.193 190.367 127.226 190.607C127.259 190.36 127.301 190.087 127.353 189.787C127.405 189.481 127.46 189.172 127.519 188.859C127.584 188.54 127.649 188.234 127.714 187.941C127.786 187.648 127.857 187.385 127.929 187.15L130.253 178.723H132.538L134.912 187.18C134.983 187.421 135.051 187.691 135.117 187.99C135.188 188.29 135.257 188.596 135.322 188.908C135.387 189.221 135.445 189.523 135.497 189.816C135.55 190.109 135.592 190.373 135.624 190.607C135.67 190.288 135.729 189.924 135.8 189.514C135.872 189.104 135.953 188.687 136.044 188.264C136.135 187.84 136.227 187.45 136.318 187.092L138.369 178.723H140.732ZM150.839 193H142.753V178.723H150.839V180.695H145.097V184.572H150.478V186.535H145.097V191.018H150.839V193ZM162.011 193H153.925V178.723H162.011V180.695H156.269V184.572H161.65V186.535H156.269V191.018H162.011V193ZM175.986 193H173.29L168.847 186.516L167.441 187.658V193H165.097V178.723H167.441V185.549C167.727 185.197 168.017 184.846 168.31 184.494C168.603 184.143 168.896 183.791 169.189 183.439L173.212 178.723H175.859L170.527 184.973L175.986 193ZM186.113 189.113C186.113 189.96 185.904 190.689 185.488 191.301C185.078 191.913 184.485 192.382 183.71 192.707C182.942 193.033 182.024 193.195 180.956 193.195C180.436 193.195 179.938 193.166 179.462 193.107C178.987 193.049 178.538 192.964 178.115 192.854C177.698 192.736 177.317 192.596 176.972 192.434V190.227C177.551 190.48 178.199 190.712 178.915 190.92C179.632 191.122 180.361 191.223 181.103 191.223C181.708 191.223 182.21 191.145 182.607 190.988C183.01 190.826 183.31 190.598 183.505 190.305C183.701 190.005 183.798 189.657 183.798 189.26C183.798 188.837 183.684 188.479 183.456 188.186C183.229 187.893 182.884 187.626 182.421 187.385C181.966 187.137 181.393 186.874 180.703 186.594C180.234 186.405 179.785 186.19 179.355 185.949C178.932 185.708 178.554 185.425 178.222 185.1C177.89 184.774 177.626 184.39 177.431 183.947C177.242 183.498 177.148 182.971 177.148 182.365C177.148 181.558 177.34 180.868 177.724 180.295C178.115 179.722 178.662 179.283 179.365 178.977C180.074 178.671 180.901 178.518 181.845 178.518C182.594 178.518 183.297 178.596 183.954 178.752C184.619 178.908 185.27 179.13 185.908 179.416L185.165 181.301C184.579 181.06 184.01 180.868 183.456 180.725C182.91 180.581 182.35 180.51 181.777 180.51C181.282 180.51 180.862 180.585 180.517 180.734C180.172 180.884 179.908 181.096 179.726 181.369C179.55 181.636 179.462 181.955 179.462 182.326C179.462 182.743 179.563 183.094 179.765 183.381C179.973 183.661 180.292 183.918 180.722 184.152C181.158 184.387 181.718 184.647 182.402 184.934C183.19 185.259 183.857 185.601 184.404 185.959C184.957 186.317 185.38 186.747 185.673 187.248C185.966 187.743 186.113 188.365 186.113 189.113Z" fill="#1F1F29"/>
<path d="M115.531 160H114.028V148.469H109.985V147.15H119.557V148.469H115.531V160ZM122.738 150.367V160H121.279V150.367H122.738ZM122.026 146.764C122.267 146.764 122.472 146.843 122.642 147.001C122.817 147.153 122.905 147.394 122.905 147.722C122.905 148.044 122.817 148.284 122.642 148.442C122.472 148.601 122.267 148.68 122.026 148.68C121.774 148.68 121.563 148.601 121.394 148.442C121.229 148.284 121.147 148.044 121.147 147.722C121.147 147.394 121.229 147.153 121.394 147.001C121.563 146.843 121.774 146.764 122.026 146.764ZM136.291 150.191C137.352 150.191 138.151 150.47 138.69 151.026C139.229 151.577 139.499 152.465 139.499 153.689V160H138.058V153.76C138.058 152.98 137.888 152.397 137.548 152.011C137.214 151.618 136.716 151.422 136.054 151.422C135.122 151.422 134.445 151.691 134.023 152.23C133.602 152.77 133.391 153.563 133.391 154.612V160H131.94V153.76C131.94 153.238 131.864 152.805 131.712 152.459C131.565 152.113 131.343 151.855 131.044 151.686C130.751 151.51 130.379 151.422 129.928 151.422C129.289 151.422 128.776 151.554 128.39 151.817C128.003 152.081 127.722 152.474 127.546 152.995C127.376 153.511 127.291 154.146 127.291 154.902V160H125.832V150.367H127.01L127.229 151.729H127.309C127.502 151.396 127.745 151.114 128.038 150.886C128.331 150.657 128.659 150.484 129.022 150.367C129.386 150.25 129.772 150.191 130.183 150.191C130.915 150.191 131.527 150.329 132.02 150.604C132.518 150.874 132.878 151.287 133.101 151.844H133.18C133.496 151.287 133.93 150.874 134.48 150.604C135.031 150.329 135.635 150.191 136.291 150.191ZM146.205 150.191C147.025 150.191 147.729 150.373 148.314 150.736C148.9 151.1 149.349 151.609 149.659 152.266C149.97 152.916 150.125 153.678 150.125 154.551V155.456H143.472C143.489 156.587 143.771 157.448 144.315 158.04C144.86 158.632 145.628 158.928 146.618 158.928C147.228 158.928 147.767 158.872 148.235 158.761C148.704 158.649 149.19 158.485 149.694 158.269V159.552C149.208 159.769 148.725 159.927 148.244 160.026C147.77 160.126 147.207 160.176 146.557 160.176C145.631 160.176 144.822 159.988 144.131 159.613C143.445 159.232 142.912 158.676 142.531 157.943C142.15 157.211 141.96 156.314 141.96 155.254C141.96 154.217 142.133 153.32 142.479 152.564C142.83 151.803 143.322 151.217 143.955 150.807C144.594 150.396 145.344 150.191 146.205 150.191ZM146.188 151.387C145.408 151.387 144.787 151.642 144.324 152.151C143.861 152.661 143.586 153.373 143.498 154.287H148.596C148.59 153.713 148.499 153.209 148.323 152.775C148.153 152.336 147.893 151.996 147.541 151.756C147.189 151.51 146.738 151.387 146.188 151.387ZM154.071 160H152.604V146.324H154.071V160ZM158.615 150.367V160H157.156V150.367H158.615ZM157.903 146.764C158.144 146.764 158.349 146.843 158.519 147.001C158.694 147.153 158.782 147.394 158.782 147.722C158.782 148.044 158.694 148.284 158.519 148.442C158.349 148.601 158.144 148.68 157.903 148.68C157.651 148.68 157.44 148.601 157.271 148.442C157.106 148.284 157.024 148.044 157.024 147.722C157.024 147.394 157.106 147.153 157.271 147.001C157.44 146.843 157.651 146.764 157.903 146.764ZM166.271 150.191C167.413 150.191 168.277 150.473 168.863 151.035C169.449 151.592 169.742 152.488 169.742 153.725V160H168.301V153.821C168.301 153.019 168.116 152.418 167.747 152.02C167.384 151.621 166.824 151.422 166.068 151.422C165.002 151.422 164.252 151.724 163.818 152.327C163.385 152.931 163.168 153.807 163.168 154.955V160H161.709V150.367H162.887L163.106 151.756H163.186C163.391 151.416 163.651 151.132 163.968 150.903C164.284 150.669 164.639 150.493 165.031 150.376C165.424 150.253 165.837 150.191 166.271 150.191ZM176.457 150.191C177.277 150.191 177.98 150.373 178.566 150.736C179.152 151.1 179.601 151.609 179.911 152.266C180.222 152.916 180.377 153.678 180.377 154.551V155.456H173.724C173.741 156.587 174.022 157.448 174.567 158.04C175.112 158.632 175.88 158.928 176.87 158.928C177.479 158.928 178.019 158.872 178.487 158.761C178.956 158.649 179.442 158.485 179.946 158.269V159.552C179.46 159.769 178.977 159.927 178.496 160.026C178.021 160.126 177.459 160.176 176.809 160.176C175.883 160.176 175.074 159.988 174.383 159.613C173.697 159.232 173.164 158.676 172.783 157.943C172.402 157.211 172.212 156.314 172.212 155.254C172.212 154.217 172.385 153.32 172.73 152.564C173.082 151.803 173.574 151.217 174.207 150.807C174.846 150.396 175.596 150.191 176.457 150.191ZM176.439 151.387C175.66 151.387 175.039 151.642 174.576 152.151C174.113 152.661 173.838 153.373 173.75 154.287H178.848C178.842 153.713 178.751 153.209 178.575 152.775C178.405 152.336 178.145 151.996 177.793 151.756C177.441 151.51 176.99 151.387 176.439 151.387Z" fill="#1F1F29"/>
<path d="M146.16 122C168.457 122 186.532 104.091 186.532 82C186.532 59.9086 168.457 42 146.16 42C123.863 42 105.788 59.9086 105.788 82C105.788 104.091 123.863 122 146.16 122Z" stroke="#EA4435" stroke-width="8.31836" stroke-linecap="round" stroke-linejoin="round"/>
<path d="M146.16 58V82L162.309 98" stroke="#EA4435" stroke-width="8.31836" stroke-linecap="round" stroke-linejoin="round"/>
<defs>
<filter id="filter0_d_818_45455" x="0" y="0" width="292.325" height="270" filterUnits="userSpaceOnUse" color-interpolation-filters="sRGB">
<feFlood flood-opacity="0" result="BackgroundImageFix"/>
<feColorMatrix in="SourceAlpha" type="matrix" values="0 0 0 0 0 0 0 0 0 0 0 0 0 0 0 0 0 0 127 0" result="hardAlpha"/>
<feOffset/>
<feGaussianBlur stdDeviation="10"/>
<feComposite in2="hardAlpha" operator="out"/>
<feColorMatrix type="matrix" values="0 0 0 0 0 0 0 0 0 0 0 0 0 0 0 0 0 0 0.25 0"/>
<feBlend mode="normal" in2="BackgroundImageFix" result="effect1_dropShadow_818_45455"/>
<feBlend mode="normal" in="SourceGraphic" in2="effect1_dropShadow_818_45455" result="shape"/>
</filter>
</defs>
</svg>
