<svg width="2747" height="1859" viewBox="0 0 2747 1859" fill="none" xmlns="http://www.w3.org/2000/svg">
<path d="M452.5 133C452.5 206.164 391.401 265.5 316 265.5C240.599 265.5 179.5 206.164 179.5 133C179.5 59.8361 240.599 0.5 316 0.5C391.401 0.5 452.5 59.8361 452.5 133Z" fill="#FBFBFB" stroke="#55565A"/>
<path d="M862.5 133C862.5 206.164 801.401 265.5 726 265.5C650.599 265.5 589.5 206.164 589.5 133C589.5 59.8361 650.599 0.5 726 0.5C801.401 0.5 862.5 59.8361 862.5 133Z" fill="#EDEDED" stroke="#55565A"/>
<path d="M1272.5 133C1272.5 206.164 1211.4 265.5 1136 265.5C1060.6 265.5 999.5 206.164 999.5 133C999.5 59.8361 1060.6 0.5 1136 0.5C1211.4 0.5 1272.5 59.8361 1272.5 133Z" fill="#F4F4F4" stroke="#55565A"/>
<path d="M1682.5 133C1682.5 206.164 1621.4 265.5 1546 265.5C1470.6 265.5 1409.5 206.164 1409.5 133C1409.5 59.8361 1470.6 0.5 1546 0.5C1621.4 0.5 1682.5 59.8361 1682.5 133Z" fill="#00209F" stroke="#55565A"/>
<path d="M2092.5 133C2092.5 206.164 2031.4 265.5 1956 265.5C1880.6 265.5 1819.5 206.164 1819.5 133C1819.5 59.8361 1880.6 0.5 1956 0.5C2031.4 0.5 2092.5 59.8361 2092.5 133Z" fill="#CD112F" stroke="#55565A"/>
<ellipse cx="2366" cy="133" rx="137" ry="133" fill="#646464"/>
<path d="M179.1 685.2C179.1 697.4 176.3 708.6 170.7 718.8C165.1 728.8 156.5 736.9 144.9 743.1C133.3 749.3 118.9 752.4 101.7 752.4H69.9V828H18.6V617.4H101.7C118.5 617.4 132.7 620.3 144.3 626.1C155.9 631.9 164.6 639.9 170.4 650.1C176.2 660.3 179.1 672 179.1 685.2ZM97.8 711.6C107.6 711.6 114.9 709.3 119.7 704.7C124.5 700.1 126.9 693.6 126.9 685.2C126.9 676.8 124.5 670.3 119.7 665.7C114.9 661.1 107.6 658.8 97.8 658.8H69.9V711.6H97.8ZM305.407 830.1C285.607 830.1 267.407 825.5 250.807 816.3C234.407 807.1 221.307 794.3 211.507 777.9C201.907 761.3 197.107 742.7 197.107 722.1C197.107 701.5 201.907 683 211.507 666.6C221.307 650.2 234.407 637.4 250.807 628.2C267.407 619 285.607 614.4 305.407 614.4C325.207 614.4 343.307 619 359.707 628.2C376.307 637.4 389.307 650.2 398.707 666.6C408.307 683 413.107 701.5 413.107 722.1C413.107 742.7 408.307 761.3 398.707 777.9C389.107 794.3 376.107 807.1 359.707 816.3C343.307 825.5 325.207 830.1 305.407 830.1ZM305.407 783.3C322.207 783.3 335.607 777.7 345.607 766.5C355.807 755.3 360.907 740.5 360.907 722.1C360.907 703.5 355.807 688.7 345.607 677.7C335.607 666.5 322.207 660.9 305.407 660.9C288.407 660.9 274.807 666.4 264.607 677.4C254.607 688.4 249.607 703.3 249.607 722.1C249.607 740.7 254.607 755.6 264.607 766.8C274.807 777.8 288.407 783.3 305.407 783.3ZM602.147 685.2C602.147 697.4 599.347 708.6 593.747 718.8C588.147 728.8 579.547 736.9 567.947 743.1C556.347 749.3 541.947 752.4 524.747 752.4H492.947V828H441.647V617.4H524.747C541.547 617.4 555.747 620.3 567.347 626.1C578.947 631.9 587.647 639.9 593.447 650.1C599.247 660.3 602.147 672 602.147 685.2ZM520.847 711.6C530.647 711.6 537.947 709.3 542.747 704.7C547.547 700.1 549.947 693.6 549.947 685.2C549.947 676.8 547.547 670.3 542.747 665.7C537.947 661.1 530.647 658.8 520.847 658.8H492.947V711.6H520.847ZM789.354 685.2C789.354 697.4 786.554 708.6 780.954 718.8C775.354 728.8 766.754 736.9 755.154 743.1C743.554 749.3 729.154 752.4 711.954 752.4H680.154V828H628.854V617.4H711.954C728.754 617.4 742.954 620.3 754.554 626.1C766.154 631.9 774.854 639.9 780.654 650.1C786.454 660.3 789.354 672 789.354 685.2ZM708.054 711.6C717.854 711.6 725.154 709.3 729.954 704.7C734.754 700.1 737.154 693.6 737.154 685.2C737.154 676.8 734.754 670.3 729.954 665.7C725.154 661.1 717.854 658.8 708.054 658.8H680.154V711.6H708.054ZM867.361 617.4V828H816.061V617.4H867.361ZM1092.94 828H1041.64L955.838 698.1V828H904.538V617.4H955.838L1041.64 747.9V617.4H1092.94V828ZM1206.32 830.1C1190.92 830.1 1177.12 827.6 1164.92 822.6C1152.72 817.6 1142.92 810.2 1135.52 800.4C1128.32 790.6 1124.52 778.8 1124.12 765H1178.72C1179.52 772.8 1182.22 778.8 1186.82 783C1191.42 787 1197.42 789 1204.82 789C1212.42 789 1218.42 787.3 1222.82 783.9C1227.22 780.3 1229.42 775.4 1229.42 769.2C1229.42 764 1227.62 759.7 1224.02 756.3C1220.62 752.9 1216.32 750.1 1211.12 747.9C1206.12 745.7 1198.92 743.2 1189.52 740.4C1175.92 736.2 1164.82 732 1156.22 727.8C1147.62 723.6 1140.22 717.4 1134.02 709.2C1127.82 701 1124.72 690.3 1124.72 677.1C1124.72 657.5 1131.82 642.2 1146.02 631.2C1160.22 620 1178.72 614.4 1201.52 614.4C1224.72 614.4 1243.42 620 1257.62 631.2C1271.82 642.2 1279.42 657.6 1280.42 677.4H1224.92C1224.52 670.6 1222.02 665.3 1217.42 661.5C1212.82 657.5 1206.92 655.5 1199.72 655.5C1193.52 655.5 1188.52 657.2 1184.72 660.6C1180.92 663.8 1179.02 668.5 1179.02 674.7C1179.02 681.5 1182.22 686.8 1188.62 690.6C1195.02 694.4 1205.02 698.5 1218.62 702.9C1232.22 707.5 1243.22 711.9 1251.62 716.1C1260.22 720.3 1267.62 726.4 1273.82 734.4C1280.02 742.4 1283.12 752.7 1283.12 765.3C1283.12 777.3 1280.02 788.2 1273.82 798C1267.82 807.8 1259.02 815.6 1247.42 821.4C1235.82 827.2 1222.12 830.1 1206.32 830.1Z" fill="#333333"/>
<path d="M94.2 1279.4C87.4 1261 80.5 1243 73.5 1225.4C66.5 1207.6 59.6 1190.4 52.8 1173.8C46 1157.2 39.4 1141.5 33 1126.7C28.6 1117.1 25.1 1109.9 22.5 1105.1C20.1 1100.3 17.7 1097 15.3 1095.2C13.1 1093.4 10.4 1092.2 7.2 1091.6C6.4 1089.2 5.8 1086.4 5.4 1083.2C5.2 1080 5.1 1076.7 5.1 1073.3C7.5 1073.5 10.5 1073.7 14.1 1073.9C17.7 1073.9 21.6 1074 25.8 1074.2C30 1074.2 34 1074.2 37.8 1074.2C41.8 1074.2 45.2 1074.2 48 1074.2C53.6 1074.2 60.4 1074.2 68.4 1074.2C76.4 1074 84.3 1073.7 92.1 1073.3C91.9 1077.1 91.6 1080.6 91.2 1083.8C91 1086.8 90.6 1089.4 90 1091.6C84.2 1092.2 80 1093.5 77.4 1095.5C75 1097.3 74.1 1100.3 74.7 1104.5C75.3 1108.7 77.3 1114.9 80.7 1123.1C85.5 1134.7 90.1 1146.2 94.5 1157.6C99.1 1169 103.5 1180.7 107.7 1192.7C111.9 1204.7 116.2 1217.6 120.6 1231.4H113.1C118.9 1218.4 124.2 1206.1 129 1194.5C134 1182.7 138.8 1170.9 143.4 1159.1C148 1147.1 152.6 1134.4 157.2 1121C160 1112.6 160.7 1105.9 159.3 1100.9C157.9 1095.7 153.4 1092.6 145.8 1091.6C145 1089.2 144.4 1086.5 144 1083.5C143.8 1080.3 143.7 1076.9 143.7 1073.3C146.5 1073.5 149.6 1073.7 153 1073.9C156.4 1073.9 159.9 1074 163.5 1074.2C167.3 1074.2 170.7 1074.2 173.7 1074.2C178.5 1074.2 183.8 1074.1 189.6 1073.9C195.4 1073.7 200.2 1073.5 204 1073.3C204 1076.7 203.8 1080 203.4 1083.2C203 1086.2 202.4 1089 201.6 1091.6C196 1092.8 191.4 1096 187.8 1101.2C184.4 1106.2 180.6 1113.9 176.4 1124.3C166.6 1149.7 156.5 1175 146.1 1200.2C135.9 1225.4 125.3 1251.1 114.3 1277.3C111.5 1278.3 108.3 1278.9 104.7 1279.1C101.3 1279.3 97.8 1279.4 94.2 1279.4ZM264.197 1279.7C248.397 1279.7 234.897 1276.9 223.697 1271.3C212.497 1265.5 203.997 1257.4 198.197 1247C192.597 1236.4 189.797 1224 189.797 1209.8C189.797 1194.4 193.097 1181.3 199.697 1170.5C206.297 1159.5 215.297 1151.2 226.697 1145.6C238.297 1139.8 251.197 1136.9 265.397 1136.9C281.797 1136.9 295.497 1139.9 306.497 1145.9C317.697 1151.9 326.097 1160.2 331.697 1170.8C337.497 1181.2 340.397 1193.3 340.397 1207.1C340.397 1221.7 337.297 1234.5 331.097 1245.5C324.897 1256.3 316.097 1264.7 304.697 1270.7C293.297 1276.7 279.797 1279.7 264.197 1279.7ZM268.097 1260.8C277.497 1260.8 284.497 1256.4 289.097 1247.6C293.897 1238.6 296.297 1227.4 296.297 1214C296.297 1201.2 294.697 1190.4 291.497 1181.6C288.297 1172.8 284.097 1166.2 278.897 1161.8C273.697 1157.4 267.997 1155.2 261.797 1155.2C252.397 1155.2 245.397 1159.6 240.797 1168.4C236.197 1177 233.897 1187.8 233.897 1200.8C233.897 1212.4 235.197 1222.8 237.797 1232C240.597 1241 244.597 1248.1 249.797 1253.3C254.997 1258.3 261.097 1260.8 268.097 1260.8ZM357.912 1277.9C357.912 1274.3 358.012 1271 358.212 1268C358.612 1264.8 359.212 1262 360.012 1259.6C368.012 1259.4 373.312 1257.5 375.912 1253.9C378.712 1250.3 380.112 1243.5 380.112 1233.5V1108.7C380.112 1104.3 379.512 1100.8 378.312 1098.2C377.112 1095.4 374.912 1093.3 371.712 1091.9C368.512 1090.3 363.812 1089.3 357.612 1088.9C357.612 1085.9 357.812 1083 358.212 1080.2C358.812 1077.2 359.712 1074.4 360.912 1071.8C367.712 1071.8 374.612 1071.3 381.612 1070.3C388.812 1069.3 395.312 1068.1 401.112 1066.7C406.912 1065.1 411.212 1063.5 414.012 1061.9C416.612 1062.9 418.712 1064.7 420.312 1067.3C421.912 1069.7 422.712 1073.2 422.712 1077.8V1233.5C422.712 1243.5 424.012 1250.3 426.612 1253.9C429.212 1257.5 434.212 1259.4 441.612 1259.6C442.412 1262 442.912 1264.9 443.112 1268.3C443.312 1271.5 443.412 1274.7 443.412 1277.9C440.612 1277.7 436.812 1277.5 432.012 1277.3C427.412 1277.3 422.412 1277.2 417.012 1277C411.612 1277 406.212 1277 400.812 1277C395.412 1277 389.912 1277 384.312 1277C378.712 1277.2 373.612 1277.3 369.012 1277.3C364.412 1277.5 360.712 1277.7 357.912 1277.9ZM459.865 1277.9C459.865 1274.3 459.965 1271 460.165 1268C460.565 1264.8 461.165 1262 461.965 1259.6C469.965 1259.4 475.265 1257.5 477.865 1253.9C480.665 1250.3 482.065 1243.5 482.065 1233.5V1108.7C482.065 1104.3 481.465 1100.8 480.265 1098.2C479.065 1095.4 476.865 1093.3 473.665 1091.9C470.465 1090.3 465.765 1089.3 459.565 1088.9C459.565 1085.9 459.765 1083 460.165 1080.2C460.765 1077.2 461.665 1074.4 462.865 1071.8C469.665 1071.8 476.565 1071.3 483.565 1070.3C490.765 1069.3 497.265 1068.1 503.065 1066.7C508.865 1065.1 513.165 1063.5 515.965 1061.9C518.565 1062.9 520.665 1064.7 522.265 1067.3C523.865 1069.7 524.665 1073.2 524.665 1077.8V1233.5C524.665 1243.5 525.965 1250.3 528.565 1253.9C531.165 1257.5 536.165 1259.4 543.565 1259.6C544.365 1262 544.865 1264.9 545.065 1268.3C545.265 1271.5 545.365 1274.7 545.365 1277.9C542.565 1277.7 538.765 1277.5 533.965 1277.3C529.365 1277.3 524.365 1277.2 518.965 1277C513.565 1277 508.165 1277 502.765 1277C497.365 1277 491.865 1277 486.265 1277C480.665 1277.2 475.565 1277.3 470.965 1277.3C466.365 1277.5 462.665 1277.7 459.865 1277.9ZM561.818 1277.9C561.818 1274.3 561.918 1271 562.118 1268C562.518 1264.8 563.118 1262 563.918 1259.6C571.918 1259.4 577.218 1257.5 579.818 1253.9C582.618 1250.3 584.018 1243.5 584.018 1233.5V1110.2C584.018 1105.4 583.418 1101.5 582.218 1098.5C581.218 1095.5 579.118 1093.3 575.918 1091.9C572.718 1090.3 567.918 1089.3 561.518 1088.9C561.518 1085.9 561.718 1083 562.118 1080.2C562.718 1077.2 563.618 1074.4 564.818 1071.8C571.618 1071.8 578.518 1071.3 585.518 1070.3C592.718 1069.3 599.218 1068.1 605.018 1066.7C610.818 1065.1 615.118 1063.5 617.918 1061.9C620.518 1062.9 622.618 1064.7 624.218 1067.3C625.818 1069.7 626.618 1073.2 626.618 1077.8V1233.5C626.618 1243.3 627.718 1250 629.918 1253.6C632.118 1257.2 636.218 1259.2 642.218 1259.6C643.018 1262 643.518 1264.9 643.718 1268.3C643.918 1271.5 644.018 1274.7 644.018 1277.9C639.618 1277.5 633.718 1277.2 626.318 1277C618.918 1277 611.418 1277 603.818 1277C598.618 1277 593.318 1277 587.918 1277C582.518 1277.2 577.518 1277.3 572.918 1277.3C568.318 1277.5 564.618 1277.7 561.818 1277.9ZM679.118 1279.7C676.118 1274.9 672.218 1269.4 667.418 1263.2C662.818 1256.8 657.818 1250.2 652.418 1243.4C647.018 1236.4 641.518 1229.6 635.918 1223C630.318 1216.4 625.018 1210.5 620.018 1205.3L647.618 1180.4C653.218 1175.2 657.018 1171.2 659.018 1168.4C661.218 1165.6 662.318 1163.4 662.318 1161.8C662.318 1160.2 661.718 1159 660.518 1158.2C659.318 1157.4 657.218 1157 654.218 1157C653.218 1154 652.418 1151 651.818 1148C651.418 1145 651.218 1142 651.218 1139C654.618 1139 658.618 1139.1 663.218 1139.3C667.818 1139.3 672.718 1139.4 677.918 1139.6C683.118 1139.6 688.018 1139.6 692.618 1139.6C697.218 1139.6 701.918 1139.6 706.718 1139.6C711.718 1139.4 716.418 1139.2 720.818 1139C720.818 1142.2 720.618 1145.3 720.218 1148.3C719.818 1151.3 719.118 1154.2 718.118 1157C713.318 1157.2 708.918 1157.9 704.918 1159.1C701.118 1160.3 697.218 1162.2 693.218 1164.8C689.418 1167.2 685.018 1170.7 680.018 1175.3L654.218 1198.7L651.218 1184.3C660.618 1192.5 669.518 1201.3 677.918 1210.7C686.518 1220.1 695.418 1230.9 704.618 1243.1C707.618 1247.1 710.318 1250.2 712.718 1252.4C715.318 1254.6 717.918 1256.2 720.518 1257.2C723.118 1258 726.318 1258.6 730.118 1259C730.118 1262.2 729.918 1265.4 729.518 1268.6C729.118 1271.6 728.318 1274.4 727.118 1277C722.118 1277 716.718 1277.1 710.918 1277.3C705.318 1277.5 699.718 1277.7 694.118 1277.9C688.518 1278.3 683.518 1278.9 679.118 1279.7ZM815.857 1279.7C800.057 1279.7 786.557 1276.9 775.357 1271.3C764.157 1265.5 755.657 1257.4 749.857 1247C744.257 1236.4 741.457 1224 741.457 1209.8C741.457 1194.4 744.757 1181.3 751.357 1170.5C757.957 1159.5 766.957 1151.2 778.357 1145.6C789.957 1139.8 802.857 1136.9 817.057 1136.9C833.457 1136.9 847.157 1139.9 858.157 1145.9C869.357 1151.9 877.757 1160.2 883.357 1170.8C889.157 1181.2 892.057 1193.3 892.057 1207.1C892.057 1221.7 888.957 1234.5 882.757 1245.5C876.557 1256.3 867.757 1264.7 856.357 1270.7C844.957 1276.7 831.457 1279.7 815.857 1279.7ZM819.757 1260.8C829.157 1260.8 836.157 1256.4 840.757 1247.6C845.557 1238.6 847.957 1227.4 847.957 1214C847.957 1201.2 846.357 1190.4 843.157 1181.6C839.957 1172.8 835.757 1166.2 830.557 1161.8C825.357 1157.4 819.657 1155.2 813.457 1155.2C804.057 1155.2 797.057 1159.6 792.457 1168.4C787.857 1177 785.557 1187.8 785.557 1200.8C785.557 1212.4 786.857 1222.8 789.457 1232C792.257 1241 796.257 1248.1 801.457 1253.3C806.657 1258.3 812.757 1260.8 819.757 1260.8ZM976.472 1225.1C976.472 1233.7 977.372 1240.4 979.172 1245.2C981.172 1250 984.272 1253.5 988.472 1255.7C992.872 1257.7 998.772 1259 1006.17 1259.6C1007.17 1262 1007.77 1264.8 1007.97 1268C1008.17 1271.2 1008.27 1274.5 1008.27 1277.9C1004.87 1277.7 1000.57 1277.5 995.372 1277.3C990.372 1277.3 984.972 1277.2 979.172 1277C973.372 1277 967.672 1277 962.072 1277C953.072 1277 943.772 1277 934.172 1277C924.572 1277.2 916.972 1277.5 911.372 1277.9C911.372 1273.7 911.472 1270.2 911.672 1267.4C912.072 1264.4 912.572 1261.8 913.172 1259.6C918.572 1259.2 922.772 1258.2 925.772 1256.6C928.772 1255 930.772 1252.1 931.772 1247.9C932.972 1243.5 933.572 1237.4 933.572 1229.6V1208.9H976.472V1225.1ZM976.472 1188.5V1214.3H933.572V1181.6L976.472 1153.1C976.472 1158.1 975.872 1163.2 974.672 1168.4C973.672 1173.4 972.372 1179.4 970.772 1186.4L976.472 1188.5ZM969.872 1187.6C971.472 1183 973.072 1178.4 974.672 1173.8C976.272 1169.2 977.772 1165.7 979.172 1163.3C983.572 1156.3 988.972 1150.5 995.372 1145.9C1001.77 1141.3 1008.97 1139 1016.97 1139C1024.77 1139 1031.87 1141.4 1038.27 1146.2C1037.67 1150.2 1037.07 1154.8 1036.47 1160C1036.07 1165 1035.77 1170.1 1035.57 1175.3C1035.57 1180.5 1035.67 1185.3 1035.87 1189.7C1032.87 1190.9 1028.87 1191.8 1023.87 1192.4C1019.07 1193 1014.77 1193.3 1010.97 1193.3C1010.77 1185.3 1009.57 1179.8 1007.37 1176.8C1005.17 1173.6 1002.07 1172 998.072 1172C995.072 1172 991.872 1173.8 988.472 1177.4C985.072 1180.8 982.172 1185.4 979.772 1191.2C977.572 1196.8 976.472 1202.9 976.472 1209.5L969.872 1187.6ZM933.572 1214.3V1188.2C933.572 1182.4 933.072 1177.9 932.072 1174.7C931.272 1171.3 929.272 1168.8 926.072 1167.2C923.072 1165.4 918.272 1164.3 911.672 1163.9C911.672 1160.9 911.872 1158 912.272 1155.2C912.872 1152.2 913.872 1149.4 915.272 1146.8C925.872 1146.8 936.072 1145.8 945.872 1143.8C955.872 1141.6 963.172 1139.3 967.772 1136.9C970.572 1137.9 972.672 1139.7 974.072 1142.3C975.672 1144.7 976.472 1148.3 976.472 1153.1L933.572 1214.3ZM1075.95 1214.3V1188.2C1075.95 1182.4 1075.45 1177.9 1074.45 1174.7C1073.65 1171.3 1071.65 1168.8 1068.45 1167.2C1065.45 1165.4 1060.65 1164.3 1054.05 1163.9C1054.05 1160.9 1054.25 1158 1054.65 1155.2C1055.25 1152.2 1056.25 1149.4 1057.65 1146.8C1068.25 1146.8 1078.45 1145.8 1088.25 1143.8C1098.25 1141.6 1105.55 1139.3 1110.15 1136.9C1112.95 1137.9 1115.05 1139.7 1116.45 1142.3C1118.05 1144.7 1118.85 1148.3 1118.85 1153.1L1075.95 1214.3ZM1213.95 1233.5C1213.95 1243.5 1215.05 1250.4 1217.25 1254.2C1219.65 1257.8 1223.55 1259.6 1228.95 1259.6C1229.95 1262 1230.55 1264.7 1230.75 1267.7C1231.15 1270.5 1231.35 1273.9 1231.35 1277.9C1226.95 1277.7 1221.25 1277.5 1214.25 1277.3C1207.45 1277.1 1200.75 1277 1194.15 1277C1189.75 1277 1184.75 1277 1179.15 1277C1173.75 1277.2 1168.55 1277.3 1163.55 1277.3C1158.55 1277.5 1154.55 1277.7 1151.55 1277.9C1151.55 1274.3 1151.65 1271 1151.85 1268C1152.05 1265 1152.65 1262.2 1153.65 1259.6C1159.25 1259.6 1163.55 1257.6 1166.55 1253.6C1169.55 1249.6 1171.05 1242.3 1171.05 1231.7V1199C1171.05 1186.4 1169.05 1177.7 1165.05 1172.9C1161.05 1167.9 1155.35 1165.4 1147.95 1165.4C1143.15 1165.4 1138.45 1167.3 1133.85 1171.1C1129.45 1174.7 1125.85 1180.1 1123.05 1187.3C1120.25 1194.3 1118.85 1203.1 1118.85 1213.7V1233.5C1118.85 1243.7 1120.15 1250.6 1122.75 1254.2C1125.55 1257.8 1129.95 1259.6 1135.95 1259.6C1137.15 1262.4 1137.85 1265.2 1138.05 1268C1138.25 1270.8 1138.35 1274.1 1138.35 1277.9C1135.55 1277.7 1131.75 1277.5 1126.95 1277.3C1122.15 1277.3 1117.15 1277.2 1111.95 1277C1106.95 1277 1102.15 1277 1097.55 1277C1092.95 1277 1087.85 1277 1082.25 1277C1076.65 1277.2 1071.25 1277.3 1066.05 1277.3C1060.85 1277.5 1056.75 1277.7 1053.75 1277.9C1053.75 1274.1 1053.95 1270.6 1054.35 1267.4C1054.75 1264.2 1055.35 1261.6 1056.15 1259.6C1063.95 1259.6 1069.15 1257.8 1071.75 1254.2C1074.55 1250.4 1075.95 1243.5 1075.95 1233.5V1188.2L1118.85 1153.1C1118.85 1155.5 1118.55 1158.3 1117.95 1161.5C1117.55 1164.5 1116.85 1167.7 1115.85 1171.1C1117.05 1168.7 1118.25 1166.3 1119.45 1163.9C1120.65 1161.5 1122.25 1159.2 1124.25 1157C1128.25 1152.4 1133.85 1148.2 1141.05 1144.4C1148.25 1140.4 1156.55 1138.4 1165.95 1138.4C1174.35 1138.4 1182.15 1140 1189.35 1143.2C1196.75 1146.4 1202.65 1151.6 1207.05 1158.8C1211.65 1166 1213.95 1175.5 1213.95 1187.3V1233.5Z" fill="#333333"/>
<path d="M91.5527 1698.31L131.689 1778H175.781V1776.1L129.932 1688.06C135.791 1685.42 141.064 1682.3 145.752 1678.68C150.537 1675.07 154.639 1670.82 158.057 1665.94C161.377 1661.15 163.916 1655.73 165.674 1649.68C167.529 1643.53 168.457 1636.64 168.457 1629.03C168.457 1618.48 166.602 1609.2 162.891 1601.19C159.277 1593.19 154.102 1586.5 147.363 1581.12C140.527 1575.75 132.324 1571.7 122.754 1568.97C113.184 1566.13 102.49 1564.72 90.6738 1564.72H19.1895V1778H60.3516V1698.31H91.5527ZM60.3516 1664.91V1598.12H90.6738C96.3379 1598.12 101.367 1598.8 105.762 1600.17C110.156 1601.54 113.867 1603.49 116.895 1606.03C120.312 1608.86 122.852 1612.47 124.512 1616.87C126.27 1621.16 127.148 1626.14 127.148 1631.81C127.148 1636.5 126.465 1640.74 125.098 1644.55C123.828 1648.36 121.924 1651.63 119.385 1654.37C116.357 1657.79 112.402 1660.42 107.52 1662.28C102.734 1664.04 97.168 1664.91 90.8203 1664.91H60.3516ZM195.264 1697.29V1700.36C195.264 1711.98 196.924 1722.73 200.244 1732.59C203.564 1742.36 208.447 1750.85 214.893 1758.08C221.24 1765.3 229.053 1770.97 238.33 1775.07C247.705 1779.07 258.35 1781.08 270.264 1781.08C282.08 1781.08 292.627 1779.07 301.904 1775.07C311.182 1770.97 318.994 1765.3 325.342 1758.08C331.689 1750.85 336.523 1742.36 339.844 1732.59C343.164 1722.73 344.824 1711.98 344.824 1700.36V1697.29C344.824 1685.76 343.164 1675.12 339.844 1665.35C336.523 1655.49 331.689 1646.95 325.342 1639.72C318.896 1632.49 311.035 1626.83 301.758 1622.73C292.48 1618.62 281.885 1616.57 269.971 1616.57C258.057 1616.57 247.461 1618.62 238.184 1622.73C229.004 1626.83 221.24 1632.49 214.893 1639.72C208.447 1646.95 203.564 1655.49 200.244 1665.35C196.924 1675.12 195.264 1685.76 195.264 1697.29ZM235.986 1700.36V1697.29C235.986 1690.84 236.621 1684.74 237.891 1678.98C239.16 1673.21 241.162 1668.14 243.896 1663.74C246.631 1659.35 250.146 1655.88 254.443 1653.34C258.74 1650.8 263.916 1649.53 269.971 1649.53C276.123 1649.53 281.348 1650.8 285.645 1653.34C289.941 1655.88 293.457 1659.35 296.191 1663.74C298.828 1668.14 300.781 1673.21 302.051 1678.98C303.32 1684.74 303.955 1690.84 303.955 1697.29V1700.36C303.955 1707 303.32 1713.25 302.051 1719.11C300.781 1724.88 298.828 1729.9 296.191 1734.2C293.457 1738.6 289.941 1742.06 285.645 1744.6C281.348 1747.14 276.221 1748.41 270.264 1748.41C264.111 1748.41 258.838 1747.14 254.443 1744.6C250.146 1742.06 246.631 1738.6 243.896 1734.2C241.162 1729.9 239.16 1724.88 237.891 1719.11C236.621 1713.25 235.986 1707 235.986 1700.36ZM523.828 1700.36V1697.29C523.828 1687.72 522.949 1678.73 521.191 1670.33C519.531 1661.94 516.943 1654.37 513.428 1647.63C511.182 1643.43 508.594 1639.57 505.664 1636.06C502.734 1632.44 499.463 1629.37 495.85 1626.83C491.357 1623.51 486.23 1620.97 480.469 1619.21C474.805 1617.45 468.555 1616.57 461.719 1616.57C456.738 1616.57 452.1 1617.11 447.803 1618.19C443.604 1619.16 439.697 1620.68 436.084 1622.73C433.545 1624.09 431.152 1625.75 428.906 1627.71C426.66 1629.56 424.561 1631.61 422.607 1633.86V1553H381.885V1778H418.506L420.41 1761.15C422.07 1763.3 423.828 1765.3 425.684 1767.16C427.539 1768.92 429.541 1770.53 431.689 1771.99C435.693 1774.92 440.186 1777.12 445.166 1778.59C450.244 1780.15 455.859 1780.93 462.012 1780.93C468.75 1780.93 474.902 1780.05 480.469 1778.29C486.133 1776.63 491.211 1774.19 495.703 1770.97C500.684 1767.55 504.98 1763.25 508.594 1758.08C512.305 1752.9 515.283 1747.14 517.529 1740.79C519.58 1735.03 521.143 1728.78 522.217 1722.04C523.291 1715.21 523.828 1707.98 523.828 1700.36ZM483.105 1697.29V1700.36C483.105 1704.46 482.91 1708.42 482.52 1712.23C482.227 1716.04 481.689 1719.55 480.908 1722.78C479.932 1727.17 478.467 1731.12 476.514 1734.64C474.658 1738.06 472.217 1740.84 469.189 1742.99C467.041 1744.55 464.502 1745.77 461.572 1746.65C458.643 1747.53 455.371 1747.97 451.758 1747.97C447.559 1747.97 443.799 1747.48 440.479 1746.51C437.256 1745.53 434.424 1744.11 431.982 1742.26C429.932 1740.79 428.125 1739.08 426.562 1737.13C425.098 1735.08 423.779 1732.83 422.607 1730.39V1667.26C423.486 1665.4 424.463 1663.69 425.537 1662.13C426.611 1660.47 427.783 1659.01 429.053 1657.74C431.689 1655.1 434.863 1653.1 438.574 1651.73C442.285 1650.36 446.582 1649.68 451.465 1649.68C455.078 1649.68 458.301 1650.12 461.133 1651C463.965 1651.78 466.504 1653 468.75 1654.66C472.168 1657.3 474.707 1660.23 476.367 1663.45C478.125 1666.57 479.541 1670.14 480.615 1674.14C481.494 1677.56 482.129 1681.22 482.52 1685.13C482.91 1689.04 483.105 1693.09 483.105 1697.29ZM555.615 1697.29V1700.36C555.615 1711.98 557.275 1722.73 560.596 1732.59C563.916 1742.36 568.799 1750.85 575.244 1758.08C581.592 1765.3 589.404 1770.97 598.682 1775.07C608.057 1779.07 618.701 1781.08 630.615 1781.08C642.432 1781.08 652.979 1779.07 662.256 1775.07C671.533 1770.97 679.346 1765.3 685.693 1758.08C692.041 1750.85 696.875 1742.36 700.195 1732.59C703.516 1722.73 705.176 1711.98 705.176 1700.36V1697.29C705.176 1685.76 703.516 1675.12 700.195 1665.35C696.875 1655.49 692.041 1646.95 685.693 1639.72C679.248 1632.49 671.387 1626.83 662.109 1622.73C652.832 1618.62 642.236 1616.57 630.322 1616.57C618.408 1616.57 607.812 1618.62 598.535 1622.73C589.355 1626.83 581.592 1632.49 575.244 1639.72C568.799 1646.95 563.916 1655.49 560.596 1665.35C557.275 1675.12 555.615 1685.76 555.615 1697.29ZM596.338 1700.36V1697.29C596.338 1690.84 596.973 1684.74 598.242 1678.98C599.512 1673.21 601.514 1668.14 604.248 1663.74C606.982 1659.35 610.498 1655.88 614.795 1653.34C619.092 1650.8 624.268 1649.53 630.322 1649.53C636.475 1649.53 641.699 1650.8 645.996 1653.34C650.293 1655.88 653.809 1659.35 656.543 1663.74C659.18 1668.14 661.133 1673.21 662.402 1678.98C663.672 1684.74 664.307 1690.84 664.307 1697.29V1700.36C664.307 1707 663.672 1713.25 662.402 1719.11C661.133 1724.88 659.18 1729.9 656.543 1734.2C653.809 1738.6 650.293 1742.06 645.996 1744.6C641.699 1747.14 636.572 1748.41 630.615 1748.41C624.463 1748.41 619.189 1747.14 614.795 1744.6C610.498 1742.06 606.982 1738.6 604.248 1734.2C601.514 1729.9 599.512 1724.88 598.242 1719.11C596.973 1713.25 596.338 1707 596.338 1700.36ZM816.064 1580.69H775.342V1619.5H739.16V1649.53H775.342V1721.6C775.342 1732.05 776.709 1741.04 779.443 1748.56C782.178 1755.98 786.084 1762.08 791.162 1766.87C796.143 1771.75 802.148 1775.36 809.18 1777.71C816.309 1779.95 824.219 1781.08 832.91 1781.08C837.402 1781.08 841.943 1780.83 846.533 1780.34C851.221 1779.95 855.713 1779.37 860.01 1778.59C864.307 1777.8 868.359 1776.83 872.168 1775.66C875.977 1774.39 879.297 1772.92 882.129 1771.26L878.174 1743.28C876.318 1743.77 874.072 1744.26 871.436 1744.75C868.896 1745.24 866.162 1745.68 863.232 1746.07C860.205 1746.55 857.031 1746.95 853.711 1747.24C850.488 1747.53 847.314 1747.68 844.189 1747.68C839.893 1747.68 835.986 1747.19 832.471 1746.21C829.053 1745.24 826.123 1743.58 823.682 1741.23C821.24 1738.99 819.336 1735.96 817.969 1732.15C816.699 1728.24 816.064 1723.41 816.064 1717.65V1649.53H875.244V1619.5H816.064V1580.69ZM915.967 1697.29V1700.36C915.967 1711.98 917.627 1722.73 920.947 1732.59C924.268 1742.36 929.15 1750.85 935.596 1758.08C941.943 1765.3 949.756 1770.97 959.033 1775.07C968.408 1779.07 979.053 1781.08 990.967 1781.08C1002.78 1781.08 1013.33 1779.07 1022.61 1775.07C1031.88 1770.97 1039.7 1765.3 1046.04 1758.08C1052.39 1750.85 1057.23 1742.36 1060.55 1732.59C1063.87 1722.73 1065.53 1711.98 1065.53 1700.36V1697.29C1065.53 1685.76 1063.87 1675.12 1060.55 1665.35C1057.23 1655.49 1052.39 1646.95 1046.04 1639.72C1039.6 1632.49 1031.74 1626.83 1022.46 1622.73C1013.18 1618.62 1002.59 1616.57 990.674 1616.57C978.76 1616.57 968.164 1618.62 958.887 1622.73C949.707 1626.83 941.943 1632.49 935.596 1639.72C929.15 1646.95 924.268 1655.49 920.947 1665.35C917.627 1675.12 915.967 1685.76 915.967 1697.29ZM956.689 1700.36V1697.29C956.689 1690.84 957.324 1684.74 958.594 1678.98C959.863 1673.21 961.865 1668.14 964.6 1663.74C967.334 1659.35 970.85 1655.88 975.146 1653.34C979.443 1650.8 984.619 1649.53 990.674 1649.53C996.826 1649.53 1002.05 1650.8 1006.35 1653.34C1010.64 1655.88 1014.16 1659.35 1016.89 1663.74C1019.53 1668.14 1021.48 1673.21 1022.75 1678.98C1024.02 1684.74 1024.66 1690.84 1024.66 1697.29V1700.36C1024.66 1707 1024.02 1713.25 1022.75 1719.11C1021.48 1724.88 1019.53 1729.9 1016.89 1734.2C1014.16 1738.6 1010.64 1742.06 1006.35 1744.6C1002.05 1747.14 996.924 1748.41 990.967 1748.41C984.814 1748.41 979.541 1747.14 975.146 1744.6C970.85 1742.06 967.334 1738.6 964.6 1734.2C961.865 1729.9 959.863 1724.88 958.594 1719.11C957.324 1713.25 956.689 1707 956.689 1700.36ZM1330.96 1564.72H1279.83V1778H1317.63V1714.87L1315.87 1619.06L1340.92 1707.69H1361.28L1389.26 1615.11L1387.5 1714.87V1778H1425.29V1564.72H1374.17L1351.17 1644.85L1330.96 1564.72ZM1456.49 1697.29V1700.36C1456.49 1711.98 1458.15 1722.73 1461.47 1732.59C1464.79 1742.36 1469.68 1750.85 1476.12 1758.08C1482.47 1765.3 1490.28 1770.97 1499.56 1775.07C1508.94 1779.07 1519.58 1781.08 1531.49 1781.08C1543.31 1781.08 1553.86 1779.07 1563.13 1775.07C1572.41 1770.97 1580.22 1765.3 1586.57 1758.08C1592.92 1750.85 1597.75 1742.36 1601.07 1732.59C1604.39 1722.73 1606.05 1711.98 1606.05 1700.36V1697.29C1606.05 1685.76 1604.39 1675.12 1601.07 1665.35C1597.75 1655.49 1592.92 1646.95 1586.57 1639.72C1580.13 1632.49 1572.27 1626.83 1562.99 1622.73C1553.71 1618.62 1543.12 1616.57 1531.2 1616.57C1519.29 1616.57 1508.69 1618.62 1499.41 1622.73C1490.23 1626.83 1482.47 1632.49 1476.12 1639.72C1469.68 1646.95 1464.79 1655.49 1461.47 1665.35C1458.15 1675.12 1456.49 1685.76 1456.49 1697.29ZM1497.22 1700.36V1697.29C1497.22 1690.84 1497.85 1684.74 1499.12 1678.98C1500.39 1673.21 1502.39 1668.14 1505.13 1663.74C1507.86 1659.35 1511.38 1655.88 1515.67 1653.34C1519.97 1650.8 1525.15 1649.53 1531.2 1649.53C1537.35 1649.53 1542.58 1650.8 1546.88 1653.34C1551.17 1655.88 1554.69 1659.35 1557.42 1663.74C1560.06 1668.14 1562.01 1673.21 1563.28 1678.98C1564.55 1684.74 1565.19 1690.84 1565.19 1697.29V1700.36C1565.19 1707 1564.55 1713.25 1563.28 1719.11C1562.01 1724.88 1560.06 1729.9 1557.42 1734.2C1554.69 1738.6 1551.17 1742.06 1546.88 1744.6C1542.58 1747.14 1537.45 1748.41 1531.49 1748.41C1525.34 1748.41 1520.07 1747.14 1515.67 1744.6C1511.38 1742.06 1507.86 1738.6 1505.13 1734.2C1502.39 1729.9 1500.39 1724.88 1499.12 1719.11C1497.85 1713.25 1497.22 1707 1497.22 1700.36ZM1642.24 1778H1683.11V1665.35C1684.47 1663.21 1685.99 1661.25 1687.65 1659.49C1689.31 1657.74 1691.16 1656.22 1693.21 1654.95C1695.75 1653.2 1698.63 1651.88 1701.86 1651C1705.18 1650.12 1708.79 1649.68 1712.7 1649.68C1717.38 1649.68 1721.58 1650.17 1725.29 1651.14C1729 1652.02 1732.18 1653.63 1734.81 1655.98C1737.45 1658.32 1739.45 1661.54 1740.82 1665.65C1742.29 1669.65 1743.02 1674.78 1743.02 1681.03V1778H1783.74V1680.44C1783.74 1668.92 1782.37 1659.15 1779.64 1651.14C1777 1643.04 1773.29 1636.4 1768.51 1631.22C1763.62 1626.14 1757.86 1622.43 1751.22 1620.09C1744.58 1617.75 1737.26 1616.57 1729.25 1616.57C1723 1616.57 1717.09 1617.45 1711.52 1619.21C1705.96 1620.97 1700.83 1623.51 1696.14 1626.83C1693.41 1628.78 1690.82 1630.98 1688.38 1633.42C1685.94 1635.86 1683.69 1638.55 1681.64 1641.48L1679.15 1619.5H1642.24V1778ZM1816.85 1697.29V1700.36C1816.85 1711.98 1818.51 1722.73 1821.83 1732.59C1825.15 1742.36 1830.03 1750.85 1836.47 1758.08C1842.82 1765.3 1850.63 1770.97 1859.91 1775.07C1869.29 1779.07 1879.93 1781.08 1891.85 1781.08C1903.66 1781.08 1914.21 1779.07 1923.49 1775.07C1932.76 1770.97 1940.58 1765.3 1946.92 1758.08C1953.27 1750.85 1958.11 1742.36 1961.43 1732.59C1964.75 1722.73 1966.41 1711.98 1966.41 1700.36V1697.29C1966.41 1685.76 1964.75 1675.12 1961.43 1665.35C1958.11 1655.49 1953.27 1646.95 1946.92 1639.72C1940.48 1632.49 1932.62 1626.83 1923.34 1622.73C1914.06 1618.62 1903.47 1616.57 1891.55 1616.57C1879.64 1616.57 1869.04 1618.62 1859.77 1622.73C1850.59 1626.83 1842.82 1632.49 1836.47 1639.72C1830.03 1646.95 1825.15 1655.49 1821.83 1665.35C1818.51 1675.12 1816.85 1685.76 1816.85 1697.29ZM1857.57 1700.36V1697.29C1857.57 1690.84 1858.2 1684.74 1859.47 1678.98C1860.74 1673.21 1862.74 1668.14 1865.48 1663.74C1868.21 1659.35 1871.73 1655.88 1876.03 1653.34C1880.32 1650.8 1885.5 1649.53 1891.55 1649.53C1897.71 1649.53 1902.93 1650.8 1907.23 1653.34C1911.52 1655.88 1915.04 1659.35 1917.77 1663.74C1920.41 1668.14 1922.36 1673.21 1923.63 1678.98C1924.9 1684.74 1925.54 1690.84 1925.54 1697.29V1700.36C1925.54 1707 1924.9 1713.25 1923.63 1719.11C1922.36 1724.88 1920.41 1729.9 1917.77 1734.2C1915.04 1738.6 1911.52 1742.06 1907.23 1744.6C1902.93 1747.14 1897.8 1748.41 1891.85 1748.41C1885.69 1748.41 1880.42 1747.14 1876.03 1744.6C1871.73 1742.06 1868.21 1738.6 1865.48 1734.2C1862.74 1729.9 1860.74 1724.88 1859.47 1719.11C1858.2 1713.25 1857.57 1707 1857.57 1700.36Z" fill="#333333"/>
<path d="M1284 752.408C1328.04 674.394 1384.71 613.714 1449.54 638.697C1497.68 657.252 1462.81 770.439 1458.99 824.062C1444.47 1028.03 1749.82 865.114 1794.58 833.018C1802.81 827.118 1876.91 762.522 1873.91 759.418C1866.7 751.958 1820.67 738.389 1833.49 738.389C1852.43 738.389 1870.34 752.408 1889.6 752.408C1899.17 752.408 1856.61 867.388 1852.84 885.59" stroke="#333333" stroke-width="10" stroke-linecap="round"/>
<path d="M1873.87 751.725C2077.44 770.269 2305.82 764.96 2499.12 710.137C2555.54 694.136 2630.32 667.927 2614.97 613.954C2596.87 550.327 2474.76 516.192 2401.6 501.282C2263.15 473.064 2118.35 471.306 1976.84 486.442C1914.36 493.124 1851.31 503.162 1792.68 520.885C1759.68 530.859 1692.53 554.827 1696.14 588.671C1698.83 613.92 1746.45 638.856 1771.64 650.778C1838.96 682.653 1920.75 701.44 1997.13 717.282C2161.51 751.373 2328.7 771.329 2497.64 788" stroke="#333333" stroke-width="10" stroke-linecap="round"/>
<path d="M2024 683C2022.27 683 2020.93 682.333 2020 681C2019.2 679.8 2018.8 678.267 2018.8 676.4C2018.8 648.533 2018.27 625 2017.2 605.8C2014 605.267 2011.73 605 2010.4 605C2004.93 605 2001 605.467 1998.6 606.4C1998.6 613.867 1999.2 625.133 2000.4 640.2C2001.47 656.2 2002 667.533 2002 674.2C2002 675.533 2001.6 676.8 2000.8 678C2000 679.067 1999 679.6 1997.8 679.6C1996.07 679.6 1994.47 676.533 1993 670.4C1990.87 661.333 1989.13 642.333 1987.8 613.4C1986.87 593.8 1986.4 572.733 1986.4 550.2C1986.27 546.067 1986.2 540.2 1986.2 532.6C1986.2 530.2 1987.33 529 1989.6 529C1990.93 529 1992.27 529.333 1993.6 530C1995.07 530.667 1996.13 531.4 1996.8 532.2C1996.27 536.467 1996 541.467 1996 547.2C1996 552.8 1996.27 559.6 1996.8 567.6C1997.2 576.8 1997.4 583.733 1997.4 588.4V592C1997.27 593.067 1997.2 594.333 1997.2 595.8C1997.2 597.133 1997.33 598.867 1997.6 601C1998.4 601 1999.73 600.933 2001.6 600.8C2003.47 600.667 2005.33 600.467 2007.2 600.2C2011.6 599.8 2014.87 599.6 2017 599.6C2017 588 2016.87 577.267 2016.6 567.4L2016.2 534V528.6C2017.93 528.6 2019.47 528.933 2020.8 529.6C2022.13 530.133 2023.13 530.867 2023.8 531.8C2025 533.267 2025.73 535.8 2026 539.4V544C2026 555.467 2026.67 577.4 2028 609.8C2029.2 639.133 2029.8 661.133 2029.8 675.8C2029.8 677.667 2029.2 679.333 2028 680.8C2026.93 682.267 2025.6 683 2024 683ZM2064.42 682.6C2062.68 682.6 2061.08 682 2059.62 680.8C2058.28 679.6 2057.55 678.133 2057.42 676.4V671.2V667.2C2057.28 666 2057.22 664.6 2057.22 663C2057.22 660.2 2057.02 655.933 2056.62 650.2L2056.22 637.4C2056.22 630.867 2056.42 621.133 2056.82 608.2C2057.35 596.6 2057.62 586.867 2057.62 579C2057.62 577.133 2057.42 574.333 2057.02 570.6C2056.62 566.733 2056.42 563.933 2056.42 562.2C2056.42 552.733 2059.22 548 2064.82 548C2069.22 548 2074.28 548.867 2080.02 550.6C2085.88 552.333 2088.82 554.4 2088.82 556.8C2088.82 558.133 2088.22 559.4 2087.02 560.6C2085.95 561.667 2084.62 562.533 2083.02 563.2C2077.42 561.2 2072.35 559.867 2067.82 559.2C2067.95 561.2 2068.02 564.067 2068.02 567.8C2068.02 573.133 2067.95 577.933 2067.82 582.2C2067.42 588.6 2067.22 593.4 2067.22 596.6L2067.82 599.8L2071.02 599.6C2072.08 599.467 2073.42 599.4 2075.02 599.4C2081.42 599.4 2084.62 601.267 2084.62 605C2084.62 606.467 2084.02 607.733 2082.82 608.8C2081.62 609.733 2080.08 610.2 2078.22 610.2C2075.82 610.2 2073.95 610.067 2072.62 609.8H2067.62C2067.88 613.267 2068.02 618.333 2068.02 625C2068.02 631.667 2067.95 637.667 2067.82 643C2067.42 651.133 2067.22 657.2 2067.22 661.2C2067.22 668.667 2067.35 672.4 2067.62 672.4L2074.22 672.2C2076.48 672.067 2079.22 672 2082.42 672C2087.48 672 2090.02 673.6 2090.02 676.8C2090.02 678.667 2089.15 680.067 2087.42 681C2085.82 682.067 2083.82 682.6 2081.42 682.6H2064.42ZM2151.45 681.8C2148.38 681.8 2146.12 681.333 2144.65 680.4C2143.18 679.467 2142.45 677.733 2142.45 675.2C2142.45 671.2 2141.78 664.4 2140.45 654.8L2139.65 650.6L2119.85 647.6C2119.05 650.667 2117.92 656.867 2116.45 666.2C2115.65 672.733 2114.38 677.067 2112.65 679.2C2111.72 680.4 2110.38 681 2108.65 681C2107.05 681 2105.58 680.533 2104.25 679.6C2102.92 678.533 2102.25 677.267 2102.25 675.8L2102.65 674.8L2102.85 674C2111.65 639.733 2118.32 605.933 2122.85 572.6C2122.85 572.067 2122.92 571.2 2123.05 570C2123.18 568.667 2123.32 566.8 2123.45 564.4C2123.85 559.467 2124.25 555.533 2124.65 552.6C2125.18 549.667 2125.98 547.467 2127.05 546H2133.85C2135.72 546 2137.32 546.467 2138.65 547.4C2139.98 548.2 2140.65 549.4 2140.65 551C2140.65 561.133 2142.05 576.2 2144.85 596.2C2147.52 616.733 2148.85 631.133 2148.85 639.4C2148.85 640.2 2149.18 642.267 2149.85 645.6C2150.52 648.667 2150.85 650.667 2150.85 651.6C2150.85 652.533 2151.52 656.533 2152.85 663.6C2154.05 670 2154.65 674.133 2154.65 676V676.2C2154.65 679.133 2153.58 681 2151.45 681.8ZM2138.25 643.4C2137.85 641.4 2137.65 638.933 2137.65 636C2137.65 624 2136.58 608.667 2134.45 590L2132.45 569.2C2126.72 600.533 2122.78 624.2 2120.65 640.2C2122.65 641.533 2128.52 642.6 2138.25 643.4ZM2178.22 681.2C2174.75 681.2 2173.02 672.467 2173.02 655L2173.42 623.4C2173.55 614.067 2173.62 603.6 2173.62 592C2173.62 587.733 2173.22 581.133 2172.42 572.2C2171.75 562.467 2171.42 556.533 2171.42 554.4C2171.42 552.667 2172.15 551.133 2173.62 549.8C2175.08 548.467 2176.68 547.8 2178.42 547.8C2183.08 547.8 2187.55 548.867 2191.82 551C2196.22 553 2200.08 555.867 2203.42 559.6C2210.48 567.733 2215.15 576.667 2217.42 586.4C2218.62 591.333 2219.22 596.2 2219.22 601C2219.22 602.733 2219.15 604.333 2219.02 605.8L2218.82 611.2V622.2C2218.82 630.733 2218.55 637.467 2218.02 642.4C2217.22 649.067 2215.68 655 2213.42 660.2C2210.75 665.8 2206.88 670.8 2201.82 675.2C2199.42 677.2 2196.35 679.2 2192.62 681.2H2178.22ZM2187.02 671C2189.68 671 2192.15 670.333 2194.42 669C2196.68 667.533 2198.62 665.6 2200.22 663.2C2201.55 661.067 2202.75 658.4 2203.82 655.2C2205.02 651.867 2205.88 648.667 2206.42 645.6C2207.62 639.6 2208.35 633.467 2208.62 627.2C2208.75 625.6 2208.82 623.267 2208.82 620.2C2208.82 579.933 2201.02 558.933 2185.42 557.2C2184.48 563.2 2184.02 570.133 2184.02 578C2184.02 586.4 2184.55 601.067 2185.62 622C2186.55 640.533 2187.02 655.267 2187.02 666.2V671ZM2250.16 682.6C2248.42 682.6 2246.82 682 2245.36 680.8C2244.02 679.6 2243.29 678.133 2243.16 676.4V671.2V667.2C2243.02 666 2242.96 664.6 2242.96 663C2242.96 660.2 2242.76 655.933 2242.36 650.2L2241.96 637.4C2241.96 630.867 2242.16 621.133 2242.56 608.2C2243.09 596.6 2243.36 586.867 2243.36 579C2243.36 577.133 2243.16 574.333 2242.76 570.6C2242.36 566.733 2242.16 563.933 2242.16 562.2C2242.16 552.733 2244.96 548 2250.56 548C2254.96 548 2260.02 548.867 2265.76 550.6C2271.62 552.333 2274.56 554.4 2274.56 556.8C2274.56 558.133 2273.96 559.4 2272.76 560.6C2271.69 561.667 2270.36 562.533 2268.76 563.2C2263.16 561.2 2258.09 559.867 2253.56 559.2C2253.69 561.2 2253.76 564.067 2253.76 567.8C2253.76 573.133 2253.69 577.933 2253.56 582.2C2253.16 588.6 2252.96 593.4 2252.96 596.6L2253.56 599.8L2256.76 599.6C2257.82 599.467 2259.16 599.4 2260.76 599.4C2267.16 599.4 2270.36 601.267 2270.36 605C2270.36 606.467 2269.76 607.733 2268.56 608.8C2267.36 609.733 2265.82 610.2 2263.96 610.2C2261.56 610.2 2259.69 610.067 2258.36 609.8H2253.36C2253.62 613.267 2253.76 618.333 2253.76 625C2253.76 631.667 2253.69 637.667 2253.56 643C2253.16 651.133 2252.96 657.2 2252.96 661.2C2252.96 668.667 2253.09 672.4 2253.36 672.4L2259.96 672.2C2262.22 672.067 2264.96 672 2268.16 672C2273.22 672 2275.76 673.6 2275.76 676.8C2275.76 678.667 2274.89 680.067 2273.16 681C2271.56 682.067 2269.56 682.6 2267.16 682.6H2250.16ZM2332.79 683.4C2329.86 683.4 2327.19 680.2 2324.79 673.8C2321.99 666.867 2319.93 659.733 2318.59 652.4L2317.19 645.6C2313.33 626.533 2310.86 615.667 2309.79 613H2307.39C2307.39 616.867 2307.33 620.4 2307.19 623.6V634.6C2307.19 652.467 2308.46 666.4 2310.99 676.4L2308.79 681.8H2303.19L2300.59 678.8L2300.79 665.4C2300.79 653.4 2300.19 635.2 2298.99 610.8C2297.93 584.8 2297.39 566.6 2297.39 556.2C2297.39 549.8 2299.59 546.6 2303.99 546.6C2311.19 546.6 2317.06 548.467 2321.59 552.2C2326.26 555.933 2328.59 561.133 2328.59 567.8V581.8C2328.59 583.8 2328.26 586.133 2327.59 588.8C2326.93 591.333 2326.19 593.4 2325.39 595L2321.59 602.2L2318.39 608.2L2319.39 613L2322.19 627.2C2324.06 637.467 2325.86 645.8 2327.59 652.2C2329.33 658.6 2331.46 664.4 2333.99 669.6L2335.19 672C2336.53 674.667 2337.19 676.8 2337.19 678.4C2337.19 679.733 2336.79 680.867 2335.99 681.8C2335.19 682.867 2334.13 683.4 2332.79 683.4ZM2308.19 603.2C2311.13 601.733 2313.59 597.733 2315.59 591.2C2317.73 584.533 2318.79 578.4 2318.79 572.8C2318.79 568.533 2318.26 564.533 2317.19 560.8C2316.53 558.667 2315.39 557.067 2313.79 556C2312.33 554.8 2310.46 554.2 2308.19 554.2L2307.79 555.2L2307.39 557L2307.79 580.6C2308.06 587.533 2308.19 595.067 2308.19 603.2Z" fill="#646464"/>
<path d="M1992.4 1269.6C1986.27 1269.6 1983.2 1267.93 1983.2 1264.6L1983.6 1240L1984 1215.4C1984 1206.47 1983.8 1192.93 1983.4 1174.8C1983 1156.8 1982.8 1143.27 1982.8 1134.2V1133C1982.8 1129.53 1983.13 1126.33 1983.8 1123.4C1984.6 1119.8 1986.73 1118 1990.2 1118C1999.53 1118 2006.93 1121 2012.4 1127C2017.87 1133 2020.6 1140.93 2020.6 1150.8C2020.6 1156.8 2019 1163.07 2015.8 1169.6C2012.6 1176.13 2008.8 1181 2004.4 1184.2C2012.13 1189.4 2017.8 1196.13 2021.4 1204.4C2025.13 1212.53 2027 1221.53 2027 1231.4C2027 1236.07 2025.4 1241.87 2022.2 1248.8C2018.33 1257.07 2013.07 1263 2006.4 1266.6C2002.4 1268.6 1998 1269.6 1993.2 1269.6H1992.4ZM1994.4 1181.2C1997.87 1180.4 2000.8 1177.53 2003.2 1172.6C2005.2 1168.87 2007.07 1164.33 2008.8 1159C2009.2 1157.53 2009.87 1155.67 2010.8 1153.4V1146.4C2010.8 1142.4 2009.33 1138.53 2006.4 1134.8C2003.47 1131.07 2000.13 1129.2 1996.4 1129.2C1994.53 1129.2 1993.6 1131.27 1993.6 1135.4C1993.6 1144.2 1993.73 1152.07 1994 1159L1994.4 1181.2ZM1995.2 1259.2C2001.73 1258.27 2006.93 1255.27 2010.8 1250.2C2014.67 1245.13 2016.6 1239.07 2016.6 1232C2016.6 1225.87 2016.07 1220.27 2015 1215.2C2014.07 1210 2012.8 1206.07 2011.2 1203.4C2009.73 1200.87 2008.27 1198.73 2006.8 1197C2005.33 1195.27 2004.07 1194.13 2003 1193.6L2001.4 1193H1994.2C1994.87 1208.33 1995.2 1230.4 1995.2 1259.2ZM2069.49 1271.8C2066.02 1271.8 2062.82 1270.67 2059.89 1268.4C2056.96 1266.27 2054.56 1263.33 2052.69 1259.6C2048.82 1251.47 2046.42 1242.6 2045.49 1233C2044.29 1223.93 2043.69 1215.2 2043.69 1206.8C2043.69 1205.2 2043.76 1203.87 2043.89 1202.8V1199.2C2043.89 1198.53 2043.82 1198.2 2043.69 1198.2V1194.6L2043.89 1180.6C2044.02 1176.33 2044.56 1169.53 2045.49 1160.2C2046.16 1153.8 2047.69 1147.6 2050.09 1141.6C2051.02 1138.93 2052.22 1136.93 2053.69 1135.6C2055.16 1134.13 2056.82 1133.4 2058.69 1133.4C2064.02 1133.4 2068.82 1134.4 2073.09 1136.4C2077.36 1138.27 2080.96 1140.93 2083.89 1144.4C2086.56 1147.73 2088.82 1151.87 2090.69 1156.8C2092.56 1161.6 2093.89 1166.73 2094.69 1172.2C2095.49 1177.8 2095.89 1183.73 2095.89 1190V1191.6C2095.89 1195.73 2095.96 1199.47 2096.09 1202.8L2096.29 1214.2C2096.29 1252.6 2087.36 1271.8 2069.49 1271.8ZM2068.69 1263.4C2071.09 1263.4 2073.29 1262.47 2075.29 1260.6C2077.29 1258.6 2078.82 1255.93 2079.89 1252.6C2082.42 1245.8 2083.96 1238.47 2084.49 1230.6C2085.16 1223.8 2085.49 1217.93 2085.49 1213C2085.49 1207 2085.02 1199.13 2084.09 1189.4C2083.29 1179.13 2082.89 1171.47 2082.89 1166.4V1162.8C2082.62 1157.73 2080.89 1153.33 2077.69 1149.6C2074.62 1145.87 2070.82 1144 2066.29 1144C2061.76 1144 2058.76 1146.6 2057.29 1151.8C2055.96 1155.93 2055.29 1161.27 2055.29 1167.8C2055.29 1170.33 2055.36 1172.47 2055.49 1174.2V1179.6L2055.09 1188.8C2054.82 1191.6 2054.69 1194.67 2054.69 1198C2054.69 1205.2 2054.89 1212.33 2055.29 1219.4C2055.82 1229.4 2057.16 1239.13 2059.29 1248.6C2061.42 1258.47 2064.56 1263.4 2068.69 1263.4ZM2124.56 1269.2C2121.09 1269.2 2119.36 1260.47 2119.36 1243L2119.76 1211.4C2119.89 1202.07 2119.96 1191.6 2119.96 1180C2119.96 1175.73 2119.56 1169.13 2118.76 1160.2C2118.09 1150.47 2117.76 1144.53 2117.76 1142.4C2117.76 1140.67 2118.49 1139.13 2119.96 1137.8C2121.43 1136.47 2123.03 1135.8 2124.76 1135.8C2129.43 1135.8 2133.89 1136.87 2138.16 1139C2142.56 1141 2146.43 1143.87 2149.76 1147.6C2156.83 1155.73 2161.49 1164.67 2163.76 1174.4C2164.96 1179.33 2165.56 1184.2 2165.56 1189C2165.56 1190.73 2165.49 1192.33 2165.36 1193.8L2165.16 1199.2V1210.2C2165.16 1218.73 2164.89 1225.47 2164.36 1230.4C2163.56 1237.07 2162.03 1243 2159.76 1248.2C2157.09 1253.8 2153.23 1258.8 2148.16 1263.2C2145.76 1265.2 2142.69 1267.2 2138.96 1269.2H2124.56ZM2133.36 1259C2136.03 1259 2138.49 1258.33 2140.76 1257C2143.03 1255.53 2144.96 1253.6 2146.56 1251.2C2147.89 1249.07 2149.09 1246.4 2150.16 1243.2C2151.36 1239.87 2152.23 1236.67 2152.76 1233.6C2153.96 1227.6 2154.69 1221.47 2154.96 1215.2C2155.09 1213.6 2155.16 1211.27 2155.16 1208.2C2155.16 1167.93 2147.36 1146.93 2131.76 1145.2C2130.83 1151.2 2130.36 1158.13 2130.36 1166C2130.36 1174.4 2130.89 1189.07 2131.96 1210C2132.89 1228.53 2133.36 1243.27 2133.36 1254.2V1259ZM2203.7 1270.8C2201.43 1270.8 2199.57 1269.33 2198.1 1266.4C2199.57 1263.6 2200.3 1252.27 2200.3 1232.4C2200.3 1227.73 2199.97 1222.67 2199.3 1217.2L2198.7 1211.4C2198.3 1207.8 2198.1 1205.07 2198.1 1203.2V1198C2196.77 1194.67 2194.3 1188.47 2190.7 1179.4C2187.23 1170.33 2184.43 1162.73 2182.3 1156.6C2179.77 1149.53 2178.5 1144.73 2178.5 1142.2V1141.2L2183.1 1137.8C2185.37 1138.07 2187.77 1141 2190.3 1146.6C2192.43 1151.53 2194.77 1158.6 2197.3 1167.8C2199.97 1177 2201.3 1181.87 2201.3 1182.4C2201.83 1180.93 2202.9 1175.93 2204.5 1167.4C2206.1 1158.87 2207.9 1151.33 2209.9 1144.8C2212.17 1138.27 2214.5 1135 2216.9 1135C2218.23 1135 2219.37 1135.4 2220.3 1136.2C2221.37 1137 2221.9 1138 2221.9 1139.2C2221.9 1146 2220.03 1155.6 2216.3 1168C2212.3 1181.47 2210.3 1191.2 2210.3 1197.2V1257.4C2210.3 1266.33 2208.1 1270.8 2203.7 1270.8ZM2295.27 1269.4C2293.27 1269.4 2291.67 1268.47 2290.47 1266.6C2289.4 1264.6 2288.87 1262.2 2288.87 1259.4C2288.87 1255 2289.13 1249.6 2289.67 1243.2L2290.07 1238L2290.47 1227.4C2290.47 1222.73 2290 1212.33 2289.07 1196.2C2288.13 1180.07 2287.67 1169.67 2287.67 1165C2287.67 1164.6 2287.67 1163.87 2287.67 1162.8C2287.8 1161.6 2287.87 1159.8 2287.87 1157.4C2288 1154.73 2288.07 1151.47 2288.07 1147.6C2288.07 1137.87 2287.4 1131.67 2286.07 1129C2285.27 1129 2283.53 1129.2 2280.87 1129.6L2275.27 1130C2273.53 1130 2272 1129.53 2270.67 1128.6C2269.33 1127.53 2268.67 1126.2 2268.67 1124.6C2268.67 1123 2270.27 1121.6 2273.47 1120.4C2278.13 1118.8 2286.07 1117.67 2297.27 1117C2301.8 1116.73 2304.53 1116.6 2305.47 1116.6C2307.07 1116.6 2308.53 1117.13 2309.87 1118.2C2311.2 1119.27 2311.87 1120.6 2311.87 1122.2C2311.87 1123.8 2311.27 1125.13 2310.07 1126.2C2309 1127.13 2307.6 1127.6 2305.87 1127.6L2302.27 1127.4C2301.2 1127.27 2300 1127.2 2298.67 1127.2H2296.67C2297.6 1136.27 2298.07 1144.47 2298.07 1151.8L2297.87 1164.6C2297.73 1168.47 2297.67 1172.8 2297.67 1177.6C2297.67 1184 2297.93 1191.67 2298.47 1200.6C2299.13 1211.67 2299.47 1219.33 2299.47 1223.6C2299.47 1228.67 2299.73 1234.67 2300.27 1241.6C2300.8 1248.67 2301.07 1254.67 2301.07 1259.6C2301.07 1266.13 2299.13 1269.4 2295.27 1269.4ZM2342.01 1270.6C2340.28 1270.6 2338.68 1270 2337.21 1268.8C2335.88 1267.6 2335.14 1266.13 2335.01 1264.4V1259.2V1255.2C2334.88 1254 2334.81 1252.6 2334.81 1251C2334.81 1248.2 2334.61 1243.93 2334.21 1238.2L2333.81 1225.4C2333.81 1218.87 2334.01 1209.13 2334.41 1196.2C2334.94 1184.6 2335.21 1174.87 2335.21 1167C2335.21 1165.13 2335.01 1162.33 2334.61 1158.6C2334.21 1154.73 2334.01 1151.93 2334.01 1150.2C2334.01 1140.73 2336.81 1136 2342.41 1136C2346.81 1136 2351.88 1136.87 2357.61 1138.6C2363.48 1140.33 2366.41 1142.4 2366.41 1144.8C2366.41 1146.13 2365.81 1147.4 2364.61 1148.6C2363.54 1149.67 2362.21 1150.53 2360.61 1151.2C2355.01 1149.2 2349.94 1147.87 2345.41 1147.2C2345.54 1149.2 2345.61 1152.07 2345.61 1155.8C2345.61 1161.13 2345.54 1165.93 2345.41 1170.2C2345.01 1176.6 2344.81 1181.4 2344.81 1184.6L2345.41 1187.8L2348.61 1187.6C2349.68 1187.47 2351.01 1187.4 2352.61 1187.4C2359.01 1187.4 2362.21 1189.27 2362.21 1193C2362.21 1194.47 2361.61 1195.73 2360.41 1196.8C2359.21 1197.73 2357.68 1198.2 2355.81 1198.2C2353.41 1198.2 2351.54 1198.07 2350.21 1197.8H2345.21C2345.48 1201.27 2345.61 1206.33 2345.61 1213C2345.61 1219.67 2345.54 1225.67 2345.41 1231C2345.01 1239.13 2344.81 1245.2 2344.81 1249.2C2344.81 1256.67 2344.94 1260.4 2345.21 1260.4L2351.81 1260.2C2354.08 1260.07 2356.81 1260 2360.01 1260C2365.08 1260 2367.61 1261.6 2367.61 1264.8C2367.61 1266.67 2366.74 1268.07 2365.01 1269C2363.41 1270.07 2361.41 1270.6 2359.01 1270.6H2342.01ZM2391.25 1268.6C2389.65 1268.6 2388.25 1268.2 2387.05 1267.4C2385.85 1266.6 2385.25 1265.47 2385.25 1264C2385.25 1259.73 2385.78 1255 2386.85 1249.8C2388.05 1244.47 2389.71 1238.13 2391.85 1230.8L2393.85 1223C2395.71 1215.53 2396.65 1209.07 2396.65 1203.6C2396.65 1199.73 2394.91 1190.2 2391.45 1175C2388.11 1159.8 2385.71 1151.13 2384.25 1149V1146.8C2382.91 1145.6 2382.25 1143.93 2382.25 1141.8C2382.25 1140.6 2382.85 1139.67 2384.05 1139C2385.25 1138.2 2386.65 1137.8 2388.25 1137.8C2389.85 1137.8 2391.18 1138.93 2392.25 1141.2C2394.25 1144.93 2396.25 1151.8 2398.25 1161.8C2399.31 1166.33 2400.05 1170.13 2400.45 1173.2L2401.85 1180.6C2401.85 1180.6 2402.11 1179 2402.65 1175.8L2403.25 1171.8C2403.78 1168.6 2404.11 1166.47 2404.25 1165.4C2404.78 1161.8 2405.05 1158.33 2405.05 1155V1151.4V1148.4C2405.05 1144.67 2405.65 1141.8 2406.85 1139.8C2408.18 1137.8 2410.58 1136.33 2414.05 1135.4L2417.65 1140.2C2416.71 1141.67 2415.91 1143.47 2415.25 1145.6C2414.71 1147.73 2414.45 1149.6 2414.45 1151.2C2414.31 1152.13 2414.25 1154.2 2414.25 1157.4V1159.6C2412.65 1163.87 2410.98 1171.33 2409.25 1182C2407.51 1192.53 2406.65 1200.2 2406.65 1205C2406.65 1209.13 2407.51 1214.4 2409.25 1220.8C2411.11 1227.07 2413.85 1235.8 2417.45 1247C2419.85 1254.2 2421.05 1259.47 2421.05 1262.8C2421.05 1264.13 2420.51 1265.33 2419.45 1266.4C2418.38 1267.33 2417.11 1267.8 2415.65 1267.8C2413.38 1267.8 2411.38 1265.4 2409.65 1260.6C2407.91 1256.6 2406.45 1251.53 2405.25 1245.4C2403.65 1237.93 2402.71 1232.93 2402.45 1230.4L2401.45 1225.8L2399.65 1240.6C2398.85 1247.93 2397.78 1254.07 2396.45 1259V1261.2C2396.45 1266.13 2394.71 1268.6 2391.25 1268.6ZM2449.48 1264.8L2449.28 1257C2449.14 1254.73 2449.08 1252.2 2449.08 1249.4L2449.28 1242.6C2448.88 1241.13 2447.88 1226.53 2446.28 1198.8C2444.68 1171.07 2443.74 1153.27 2443.48 1145.4C2435.74 1145.13 2430.81 1144.33 2428.68 1143C2427.21 1141.93 2426.48 1140.73 2426.48 1139.4C2426.48 1138.33 2427.14 1137.4 2428.48 1136.6C2429.94 1135.67 2431.41 1135.2 2432.88 1135.2C2436.61 1135.2 2441.14 1135.47 2446.48 1136C2451.54 1136.67 2456.08 1137 2460.08 1137H2461.68H2463.28C2467.41 1137 2469.48 1138.6 2469.48 1141.8C2469.48 1143.4 2468.81 1144.73 2467.48 1145.8C2466.14 1146.73 2464.61 1147.2 2462.88 1147.2C2461.68 1147.2 2459.94 1147 2457.68 1146.6L2453.68 1145.8L2453.48 1146.8L2453.28 1147.8C2453.28 1159.67 2454.41 1178.6 2456.68 1204.6C2458.81 1229 2459.88 1247.93 2459.88 1261.4C2459.88 1263 2459.14 1264.4 2457.68 1265.6C2456.34 1266.8 2454.81 1267.4 2453.08 1267.4L2449.48 1264.8Z" fill="#646464"/>
<path d="M2346.75 1624.8C2343.68 1624.8 2342.15 1623.97 2342.15 1622.3L2342.35 1610L2342.55 1597.7C2342.55 1593.23 2342.45 1586.47 2342.25 1577.4C2342.05 1568.4 2341.95 1561.63 2341.95 1557.1V1556.5C2341.95 1554.77 2342.12 1553.17 2342.45 1551.7C2342.85 1549.9 2343.92 1549 2345.65 1549C2350.32 1549 2354.02 1550.5 2356.75 1553.5C2359.48 1556.5 2360.85 1560.47 2360.85 1565.4C2360.85 1568.4 2360.05 1571.53 2358.45 1574.8C2356.85 1578.07 2354.95 1580.5 2352.75 1582.1C2356.62 1584.7 2359.45 1588.07 2361.25 1592.2C2363.12 1596.27 2364.05 1600.77 2364.05 1605.7C2364.05 1608.03 2363.25 1610.93 2361.65 1614.4C2359.72 1618.53 2357.08 1621.5 2353.75 1623.3C2351.75 1624.3 2349.55 1624.8 2347.15 1624.8H2346.75ZM2347.75 1580.6C2349.48 1580.2 2350.95 1578.77 2352.15 1576.3C2353.15 1574.43 2354.08 1572.17 2354.95 1569.5C2355.15 1568.77 2355.48 1567.83 2355.95 1566.7V1563.2C2355.95 1561.2 2355.22 1559.27 2353.75 1557.4C2352.28 1555.53 2350.62 1554.6 2348.75 1554.6C2347.82 1554.6 2347.35 1555.63 2347.35 1557.7C2347.35 1562.1 2347.42 1566.03 2347.55 1569.5L2347.75 1580.6ZM2348.15 1619.6C2351.42 1619.13 2354.02 1617.63 2355.95 1615.1C2357.88 1612.57 2358.85 1609.53 2358.85 1606C2358.85 1602.93 2358.58 1600.13 2358.05 1597.6C2357.58 1595 2356.95 1593.03 2356.15 1591.7C2355.42 1590.43 2354.68 1589.37 2353.95 1588.5C2353.22 1587.63 2352.58 1587.07 2352.05 1586.8L2351.25 1586.5H2347.65C2347.98 1594.17 2348.15 1605.2 2348.15 1619.6ZM2384.3 1625.5C2382.7 1625.5 2381.26 1625.13 2380 1624.4C2378.73 1623.73 2377.7 1622.73 2376.9 1621.4C2375.3 1618.6 2374.26 1615.43 2373.8 1611.9C2373.33 1608.83 2373.1 1605.17 2373.1 1600.9C2372.9 1593.7 2372.8 1584.9 2372.8 1574.5L2372.7 1566.8C2372.63 1566.4 2372.6 1565.73 2372.6 1564.8C2372.46 1562.27 2372.4 1560.73 2372.4 1560.2C2373 1558.8 2373.7 1558.1 2374.5 1558.1C2375.3 1558.1 2376 1558.7 2376.6 1559.9C2377.26 1561.1 2377.6 1562.4 2377.6 1563.8V1591C2377.6 1593.67 2377.83 1597.2 2378.3 1601.6C2378.76 1607.07 2379 1610.6 2379 1612.2C2379 1617.13 2381.1 1619.6 2385.3 1619.6C2390.1 1619.6 2392.5 1601.67 2392.5 1565.8V1560.2V1559.3C2392.43 1559.1 2392.4 1558.83 2392.4 1558.5C2392.4 1557.7 2392.56 1557.13 2392.9 1556.8C2393.3 1556.4 2394.03 1556.2 2395.1 1556.2C2395.96 1556.2 2396.63 1556.47 2397.1 1557C2397.63 1557.47 2397.96 1558.03 2398.1 1558.7C2398.16 1559.1 2398.2 1559.87 2398.2 1561C2398.2 1562.07 2398.1 1563.77 2397.9 1566.1C2397.63 1568.03 2397.5 1569.7 2397.5 1571.1C2397.5 1572.63 2397.43 1574 2397.3 1575.2L2397.1 1579.4V1580.2C2397.16 1580.47 2397.2 1580.77 2397.2 1581.1C2397.2 1610.7 2392.9 1625.5 2384.3 1625.5ZM2415.33 1622.4L2415.23 1618.5C2415.16 1617.37 2415.13 1616.1 2415.13 1614.7L2415.23 1611.3C2415.03 1610.57 2414.53 1603.27 2413.73 1589.4C2412.93 1575.53 2412.46 1566.63 2412.33 1562.7C2408.46 1562.57 2406 1562.17 2404.93 1561.5C2404.2 1560.97 2403.83 1560.37 2403.83 1559.7C2403.83 1559.17 2404.16 1558.7 2404.83 1558.3C2405.56 1557.83 2406.3 1557.6 2407.03 1557.6C2408.9 1557.6 2411.16 1557.73 2413.83 1558C2416.36 1558.33 2418.63 1558.5 2420.63 1558.5H2421.43H2422.23C2424.3 1558.5 2425.33 1559.3 2425.33 1560.9C2425.33 1561.7 2425 1562.37 2424.33 1562.9C2423.66 1563.37 2422.9 1563.6 2422.03 1563.6C2421.43 1563.6 2420.56 1563.5 2419.43 1563.3L2417.43 1562.9L2417.33 1563.4L2417.23 1563.9C2417.23 1569.83 2417.8 1579.3 2418.93 1592.3C2420 1604.5 2420.53 1613.97 2420.53 1620.7C2420.53 1621.5 2420.16 1622.2 2419.43 1622.8C2418.76 1623.4 2418 1623.7 2417.13 1623.7L2415.33 1622.4ZM2440.91 1622.4L2440.81 1618.5C2440.75 1617.37 2440.71 1616.1 2440.71 1614.7L2440.81 1611.3C2440.61 1610.57 2440.11 1603.27 2439.31 1589.4C2438.51 1575.53 2438.05 1566.63 2437.91 1562.7C2434.05 1562.57 2431.58 1562.17 2430.51 1561.5C2429.78 1560.97 2429.41 1560.37 2429.41 1559.7C2429.41 1559.17 2429.75 1558.7 2430.41 1558.3C2431.15 1557.83 2431.88 1557.6 2432.61 1557.6C2434.48 1557.6 2436.75 1557.73 2439.41 1558C2441.95 1558.33 2444.21 1558.5 2446.21 1558.5H2447.01H2447.81C2449.88 1558.5 2450.91 1559.3 2450.91 1560.9C2450.91 1561.7 2450.58 1562.37 2449.91 1562.9C2449.25 1563.37 2448.48 1563.6 2447.61 1563.6C2447.01 1563.6 2446.15 1563.5 2445.01 1563.3L2443.01 1562.9L2442.91 1563.4L2442.81 1563.9C2442.81 1569.83 2443.38 1579.3 2444.51 1592.3C2445.58 1604.5 2446.11 1613.97 2446.11 1620.7C2446.11 1621.5 2445.75 1622.2 2445.01 1622.8C2444.35 1623.4 2443.58 1623.7 2442.71 1623.7L2440.91 1622.4ZM2472.6 1625.9C2470.87 1625.9 2469.27 1625.33 2467.8 1624.2C2466.33 1623.13 2465.13 1621.67 2464.2 1619.8C2462.27 1615.73 2461.07 1611.3 2460.6 1606.5C2460 1601.97 2459.7 1597.6 2459.7 1593.4C2459.7 1592.6 2459.73 1591.93 2459.8 1591.4V1589.6C2459.8 1589.27 2459.77 1589.1 2459.7 1589.1V1587.3L2459.8 1580.3C2459.87 1578.17 2460.13 1574.77 2460.6 1570.1C2460.93 1566.9 2461.7 1563.8 2462.9 1560.8C2463.37 1559.47 2463.97 1558.47 2464.7 1557.8C2465.43 1557.07 2466.27 1556.7 2467.2 1556.7C2469.87 1556.7 2472.27 1557.2 2474.4 1558.2C2476.53 1559.13 2478.33 1560.47 2479.8 1562.2C2481.13 1563.87 2482.27 1565.93 2483.2 1568.4C2484.13 1570.8 2484.8 1573.37 2485.2 1576.1C2485.6 1578.9 2485.8 1581.87 2485.8 1585V1585.8C2485.8 1587.87 2485.83 1589.73 2485.9 1591.4L2486 1597.1C2486 1616.3 2481.53 1625.9 2472.6 1625.9ZM2472.2 1621.7C2473.4 1621.7 2474.5 1621.23 2475.5 1620.3C2476.5 1619.3 2477.27 1617.97 2477.8 1616.3C2479.07 1612.9 2479.83 1609.23 2480.1 1605.3C2480.43 1601.9 2480.6 1598.97 2480.6 1596.5C2480.6 1593.5 2480.37 1589.57 2479.9 1584.7C2479.5 1579.57 2479.3 1575.73 2479.3 1573.2V1571.4C2479.17 1568.87 2478.3 1566.67 2476.7 1564.8C2475.17 1562.93 2473.27 1562 2471 1562C2468.73 1562 2467.23 1563.3 2466.5 1565.9C2465.83 1567.97 2465.5 1570.63 2465.5 1573.9C2465.5 1575.17 2465.53 1576.23 2465.6 1577.1V1579.8L2465.4 1584.4C2465.27 1585.8 2465.2 1587.33 2465.2 1589C2465.2 1592.6 2465.3 1596.17 2465.5 1599.7C2465.77 1604.7 2466.43 1609.57 2467.5 1614.3C2468.57 1619.23 2470.13 1621.7 2472.2 1621.7ZM2524.24 1624.3C2523.44 1624.3 2522.84 1624.1 2522.44 1623.7C2522.04 1623.23 2521.74 1622.47 2521.54 1621.4L2520.94 1619.5V1619.3V1619C2520.94 1616.8 2518.64 1609.3 2514.04 1596.5C2509.5 1583.7 2505.94 1574.23 2503.34 1568.1V1618.4L2503.74 1619.1C2503.8 1619.23 2503.94 1619.47 2504.14 1619.8C2504.34 1620.13 2504.44 1620.47 2504.44 1620.8C2504.44 1621.67 2504.14 1622.4 2503.54 1623C2502.94 1623.6 2502.2 1623.9 2501.34 1623.9C2499.2 1623.9 2498.14 1621.87 2498.14 1617.8L2498.04 1600.7C2497.97 1595.57 2497.94 1589.83 2497.94 1583.5C2497.94 1581.37 2498.04 1578.27 2498.24 1574.2C2498.44 1570 2498.54 1566.9 2498.54 1564.9C2498.54 1561.77 2499.74 1559.3 2502.14 1557.5V1558.1C2502.54 1557.97 2502.8 1557.9 2502.94 1557.9C2504.47 1557.9 2506.4 1560.57 2508.74 1565.9C2510.6 1570.17 2512.27 1574.67 2513.74 1579.4C2515.27 1584.13 2517.27 1590.87 2519.74 1599.6L2520.74 1603.2C2522.27 1608.6 2523.44 1612.47 2524.24 1614.8C2525.57 1600.47 2526.24 1583.53 2526.24 1564V1562.7C2526.17 1562.3 2526.14 1561.87 2526.14 1561.4C2526.14 1559.4 2526.94 1558.4 2528.54 1558.4C2529.47 1558.4 2530.17 1558.77 2530.64 1559.5C2531.17 1560.23 2531.44 1561.17 2531.44 1562.3V1569.8C2531.3 1580.07 2530.9 1591.2 2530.24 1603.2C2529.57 1615.2 2528.77 1621.97 2527.84 1623.5C2525.9 1624.03 2524.7 1624.3 2524.24 1624.3ZM2407.75 1750.7C2406.75 1750.7 2405.95 1750.23 2405.35 1749.3C2404.82 1748.3 2404.55 1747.1 2404.55 1745.7C2404.55 1743.5 2404.69 1740.8 2404.95 1737.6L2405.15 1735L2405.35 1729.7C2405.35 1727.37 2405.12 1722.17 2404.65 1714.1C2404.19 1706.03 2403.95 1700.83 2403.95 1698.5C2403.95 1698.3 2403.95 1697.93 2403.95 1697.4C2404.02 1696.8 2404.05 1695.9 2404.05 1694.7C2404.12 1693.37 2404.15 1691.73 2404.15 1689.8C2404.15 1684.93 2403.82 1681.83 2403.15 1680.5C2402.75 1680.5 2401.89 1680.6 2400.55 1680.8L2397.75 1681C2396.89 1681 2396.12 1680.77 2395.45 1680.3C2394.79 1679.77 2394.45 1679.1 2394.45 1678.3C2394.45 1677.5 2395.25 1676.8 2396.85 1676.2C2399.19 1675.4 2403.15 1674.83 2408.75 1674.5C2411.02 1674.37 2412.39 1674.3 2412.85 1674.3C2413.65 1674.3 2414.39 1674.57 2415.05 1675.1C2415.72 1675.63 2416.05 1676.3 2416.05 1677.1C2416.05 1677.9 2415.75 1678.57 2415.15 1679.1C2414.62 1679.57 2413.92 1679.8 2413.05 1679.8L2411.25 1679.7C2410.72 1679.63 2410.12 1679.6 2409.45 1679.6H2408.45C2408.92 1684.13 2409.15 1688.23 2409.15 1691.9L2409.05 1698.3C2408.99 1700.23 2408.95 1702.4 2408.95 1704.8C2408.95 1708 2409.09 1711.83 2409.35 1716.3C2409.69 1721.83 2409.85 1725.67 2409.85 1727.8C2409.85 1730.33 2409.99 1733.33 2410.25 1736.8C2410.52 1740.33 2410.65 1743.33 2410.65 1745.8C2410.65 1749.07 2409.69 1750.7 2407.75 1750.7ZM2431.13 1751.3C2430.26 1751.3 2429.46 1751 2428.73 1750.4C2428.06 1749.8 2427.69 1749.07 2427.63 1748.2V1745.6V1743.6C2427.56 1743 2427.53 1742.3 2427.53 1741.5C2427.53 1740.1 2427.43 1737.97 2427.23 1735.1L2427.03 1728.7C2427.03 1725.43 2427.13 1720.57 2427.33 1714.1C2427.59 1708.3 2427.73 1703.43 2427.73 1699.5C2427.73 1698.57 2427.63 1697.17 2427.43 1695.3C2427.23 1693.37 2427.13 1691.97 2427.13 1691.1C2427.13 1686.37 2428.53 1684 2431.33 1684C2433.53 1684 2436.06 1684.43 2438.93 1685.3C2441.86 1686.17 2443.33 1687.2 2443.33 1688.4C2443.33 1689.07 2443.03 1689.7 2442.43 1690.3C2441.89 1690.83 2441.23 1691.27 2440.43 1691.6C2437.63 1690.6 2435.09 1689.93 2432.83 1689.6C2432.89 1690.6 2432.93 1692.03 2432.93 1693.9C2432.93 1696.57 2432.89 1698.97 2432.83 1701.1C2432.63 1704.3 2432.53 1706.7 2432.53 1708.3L2432.83 1709.9L2434.43 1709.8C2434.96 1709.73 2435.63 1709.7 2436.43 1709.7C2439.63 1709.7 2441.23 1710.63 2441.23 1712.5C2441.23 1713.23 2440.93 1713.87 2440.33 1714.4C2439.73 1714.87 2438.96 1715.1 2438.03 1715.1C2436.83 1715.1 2435.89 1715.03 2435.23 1714.9H2432.73C2432.86 1716.63 2432.93 1719.17 2432.93 1722.5C2432.93 1725.83 2432.89 1728.83 2432.83 1731.5C2432.63 1735.57 2432.53 1738.6 2432.53 1740.6C2432.53 1744.33 2432.59 1746.2 2432.73 1746.2L2436.03 1746.1C2437.16 1746.03 2438.53 1746 2440.13 1746C2442.66 1746 2443.93 1746.8 2443.93 1748.4C2443.93 1749.33 2443.49 1750.03 2442.63 1750.5C2441.83 1751.03 2440.83 1751.3 2439.63 1751.3H2431.13ZM2455.74 1750.3C2454.94 1750.3 2454.24 1750.1 2453.64 1749.7C2453.04 1749.3 2452.74 1748.73 2452.74 1748C2452.74 1745.87 2453.01 1743.5 2453.54 1740.9C2454.14 1738.23 2454.98 1735.07 2456.04 1731.4L2457.04 1727.5C2457.98 1723.77 2458.44 1720.53 2458.44 1717.8C2458.44 1715.87 2457.58 1711.1 2455.84 1703.5C2454.18 1695.9 2452.98 1691.57 2452.24 1690.5V1689.4C2451.58 1688.8 2451.24 1687.97 2451.24 1686.9C2451.24 1686.3 2451.54 1685.83 2452.14 1685.5C2452.74 1685.1 2453.44 1684.9 2454.24 1684.9C2455.04 1684.9 2455.71 1685.47 2456.24 1686.6C2457.24 1688.47 2458.24 1691.9 2459.24 1696.9C2459.78 1699.17 2460.14 1701.07 2460.34 1702.6L2461.04 1706.3C2461.04 1706.3 2461.18 1705.5 2461.44 1703.9L2461.74 1701.9C2462.01 1700.3 2462.18 1699.23 2462.24 1698.7C2462.51 1696.9 2462.64 1695.17 2462.64 1693.5V1691.7V1690.2C2462.64 1688.33 2462.94 1686.9 2463.54 1685.9C2464.21 1684.9 2465.41 1684.17 2467.14 1683.7L2468.94 1686.1C2468.48 1686.83 2468.08 1687.73 2467.74 1688.8C2467.48 1689.87 2467.34 1690.8 2467.34 1691.6C2467.28 1692.07 2467.24 1693.1 2467.24 1694.7V1695.8C2466.44 1697.93 2465.61 1701.67 2464.74 1707C2463.88 1712.27 2463.44 1716.1 2463.44 1718.5C2463.44 1720.57 2463.88 1723.2 2464.74 1726.4C2465.68 1729.53 2467.04 1733.9 2468.84 1739.5C2470.04 1743.1 2470.64 1745.73 2470.64 1747.4C2470.64 1748.07 2470.38 1748.67 2469.84 1749.2C2469.31 1749.67 2468.68 1749.9 2467.94 1749.9C2466.81 1749.9 2465.81 1748.7 2464.94 1746.3C2464.08 1744.3 2463.34 1741.77 2462.74 1738.7C2461.94 1734.97 2461.48 1732.47 2461.34 1731.2L2460.84 1728.9L2459.94 1736.3C2459.54 1739.97 2459.01 1743.03 2458.34 1745.5V1746.6C2458.34 1749.07 2457.48 1750.3 2455.74 1750.3ZM2484.86 1748.4L2484.76 1744.5C2484.69 1743.37 2484.66 1742.1 2484.66 1740.7L2484.76 1737.3C2484.56 1736.57 2484.06 1729.27 2483.26 1715.4C2482.46 1701.53 2481.99 1692.63 2481.86 1688.7C2477.99 1688.57 2475.53 1688.17 2474.46 1687.5C2473.73 1686.97 2473.36 1686.37 2473.36 1685.7C2473.36 1685.17 2473.69 1684.7 2474.36 1684.3C2475.09 1683.83 2475.83 1683.6 2476.56 1683.6C2478.43 1683.6 2480.69 1683.73 2483.36 1684C2485.89 1684.33 2488.16 1684.5 2490.16 1684.5H2490.96H2491.76C2493.83 1684.5 2494.86 1685.3 2494.86 1686.9C2494.86 1687.7 2494.53 1688.37 2493.86 1688.9C2493.19 1689.37 2492.43 1689.6 2491.56 1689.6C2490.96 1689.6 2490.09 1689.5 2488.96 1689.3L2486.96 1688.9L2486.86 1689.4L2486.76 1689.9C2486.76 1695.83 2487.33 1705.3 2488.46 1718.3C2489.53 1730.5 2490.06 1739.97 2490.06 1746.7C2490.06 1747.5 2489.69 1748.2 2488.96 1748.8C2488.29 1749.4 2487.53 1749.7 2486.66 1749.7L2484.86 1748.4Z" fill="#646464"/>
<path d="M1214 1268.69C1247.96 1288.45 1274.78 1296.81 1318.34 1295.4C1357.68 1294.14 1400.48 1280.59 1437.06 1270.72C1482.37 1258.49 1571.29 1248.94 1597.61 1287.85C1618.05 1318.06 1587.42 1354.18 1539.2 1344.35C1520.62 1340.56 1511.01 1322.57 1519.25 1310.09C1528.14 1296.61 1554.72 1290.11 1573.1 1287C1622.48 1278.64 1655.37 1312.18 1700.05 1318.07C1741.78 1323.57 1772.78 1310.01 1804.39 1291.68C1807.09 1290.11 1805.71 1300.56 1805.71 1303.17C1805.71 1312.75 1808.35 1308.5 1808.35 1301.26C1808.35 1296.6 1811.73 1286.69 1803.07 1289.34C1796.81 1291.25 1783.67 1291.68 1776.65 1291.68" stroke="#333333" stroke-width="10" stroke-linecap="round"/>
<path d="M2140.01 1303.22C2270.22 1302.63 2442.72 1305.51 2556.23 1231.75C2587.57 1211.39 2635.94 1178.94 2609.26 1136.78C2569.18 1073.45 2453.28 1064.14 2388.37 1058.5C2272.49 1048.44 2153.55 1060.31 2041.28 1090.71C1971.3 1109.66 1858.02 1143.42 1817.78 1210.6C1712.65 1386.16 2488.35 1406.35 2540.6 1409" stroke="#333333" stroke-width="10" stroke-linecap="round"/>
<path d="M2339.69 1771.52C2455.75 1771.52 2582.12 1774.88 2687.8 1709.94C2715.69 1692.8 2759.37 1662.03 2738.56 1619.19C2725.43 1592.14 2696.5 1577.03 2672.99 1565.71C2631.43 1545.68 2586.51 1534.79 2541.98 1528.79C2450.8 1516.52 2345.63 1518.5 2258.22 1554.72C2225.65 1568.22 2132.32 1604.66 2148.97 1665.1C2162.94 1715.82 2212.8 1740.26 2253.28 1752.07C2330.5 1774.6 2413.35 1775.44 2492.45 1778" stroke="#333333" stroke-width="5" stroke-linecap="round"/>
<path d="M1959 1694.7C1970.11 1682.01 1980.58 1668.83 1995.45 1660.95C1999.98 1658.55 2014.98 1649.57 2020.24 1652.63C2034.61 1660.97 2012.56 1700.51 2009.29 1709.89C2000.87 1734 2003.58 1752.83 2032.93 1745.33C2064.59 1737.24 2103.02 1717.88 2129.01 1696.99C2135.88 1691.46 2154.3 1683.85 2137.08 1683.85C2130.9 1683.85 2104.87 1683.27 2124.97 1685.9C2126.76 1686.13 2147 1685.52 2147 1686.5C2147 1688.88 2137.88 1697.88 2136.5 1701.09C2134.11 1706.65 2131.31 1710.13 2131.31 1716.4" stroke="#333333" stroke-width="10" stroke-linecap="round"/>
</svg>
