<svg width="75" height="23" viewBox="0 0 75 23" fill="none" xmlns="http://www.w3.org/2000/svg">
<g clip-path="url(#clip0_60_18)">
<path fill-rule="evenodd" clip-rule="evenodd" d="M46.5286 17.9853C42.1702 21.2545 35.8528 22.9986 30.4139 22.9986C22.7878 22.9986 15.922 20.1283 10.7278 15.3546C10.3195 14.9791 10.6851 14.4676 11.175 14.7596C16.7808 18.0784 23.7117 20.0749 30.8709 20.0749C35.6995 20.0749 41.0114 19.0585 45.8953 16.9489C46.6331 16.6301 47.25 17.4409 46.5286 17.9853Z" fill="#FF9900"/>
<path fill-rule="evenodd" clip-rule="evenodd" d="M48.3403 15.8763C47.7853 15.1519 44.6578 15.5336 43.2539 15.7035C42.8264 15.7565 42.7613 15.3776 43.1461 15.1051C45.6375 13.3214 49.7245 13.8363 50.2013 14.4342C50.678 15.0355 50.077 19.2046 47.7366 21.1944C47.3775 21.5003 47.0344 21.3376 47.1947 20.932C47.7202 19.5968 48.8986 16.6035 48.3403 15.8763Z" fill="#FF9900"/>
<path fill-rule="evenodd" clip-rule="evenodd" d="M43.3519 2.51139V0.777324C43.3519 0.514876 43.5478 0.338797 43.7831 0.338797H51.4125C51.6572 0.338797 51.8531 0.518216 51.8531 0.777324V2.2623C51.8498 2.51139 51.6445 2.83683 51.2789 3.35218L47.325 9.0955C48.7941 9.05923 50.3452 9.2816 51.6769 10.046C51.9773 10.2188 52.0589 10.4712 52.0819 10.7203V12.5708C52.0819 12.8232 51.8077 13.1186 51.5203 12.9659C49.1728 11.7133 46.0552 11.5773 43.4597 12.9793C43.1953 13.1253 42.9178 12.8332 42.9178 12.5803V10.8234C42.9178 10.5409 42.9211 10.0589 43.1986 9.63041L47.7788 2.94658H43.7925C43.5478 2.94658 43.3519 2.7705 43.3519 2.51139ZM13.1991 13.3314C12.9773 13.3147 12.8011 13.1453 12.7847 12.9291V0.807386C12.7847 0.564979 12.9839 0.372199 13.2319 0.372199H15.3966C15.6216 0.38222 15.8011 0.558299 15.8175 0.777324V2.36203H15.8602C16.4245 0.83029 17.4858 0.116432 18.9155 0.116432C20.3686 0.116432 21.2761 0.83029 21.9291 2.36203C22.4906 0.83029 23.767 0.116432 25.1348 0.116432C26.108 0.116432 27.172 0.524896 27.8217 1.44156C28.5563 2.46176 28.4062 3.9434 28.4062 5.24228L28.403 12.8929C28.403 13.1353 28.2038 13.3314 27.9558 13.3314H25.6378C25.4058 13.3147 25.2197 13.1253 25.2197 12.8929V6.46815C25.2197 5.95662 25.2656 4.68064 25.1545 4.19583C24.9816 3.38176 24.4622 3.15272 23.79 3.15272C23.2284 3.15272 22.6406 3.53446 22.4025 4.14573C22.1639 4.75699 22.1869 5.78054 22.1869 6.46815V12.8929C22.1869 13.1353 21.9877 13.3314 21.7397 13.3314H19.4217C19.1869 13.3147 19.0041 13.1253 19.0041 12.8929L19.0008 6.46815C19.0008 5.11583 19.2192 3.126 17.5706 3.126C15.9023 3.126 15.9675 5.0662 15.9675 6.46815V12.8929C15.9675 13.1353 15.7683 13.3314 15.5203 13.3314H13.1991ZM63.7303 6.95297C63.7303 10.6506 61.6702 13.5838 58.4217 13.5838C55.0397 13.5838 53.1984 10.5738 53.1984 6.82365C53.1984 3.04965 55.0627 0.116432 58.4217 0.116432C61.8661 0.116432 63.7303 3.126 63.7303 6.95297ZM56.6231 6.44143C56.6231 7.92307 56.6002 11.0858 58.4217 11.0858C60.2208 11.0858 60.3056 8.53434 60.3056 6.97969C60.3056 5.95662 60.263 4.73409 59.9597 3.76398C59.6981 2.91985 59.1792 2.59108 58.4414 2.59108C56.7309 2.59108 56.6231 4.96313 56.6231 6.44143ZM65.8852 13.3314C65.6531 13.3147 65.467 13.1253 65.467 12.8929L65.4638 0.767303C65.4834 0.544938 65.6761 0.372199 65.9109 0.372199H68.0625C68.265 0.38222 68.4314 0.521556 68.4773 0.710996V2.56483H68.5195C69.1692 0.907116 70.08 0.116432 71.6831 0.116432C72.7247 0.116432 73.74 0.498174 74.393 1.54463C75 2.51473 75 4.14573 75 5.31863V12.9492C74.9737 13.162 74.7811 13.3314 74.5528 13.3314H72.225C72.0127 13.3147 71.8364 13.1553 71.8134 12.9492V6.36508C71.8134 5.03948 71.9639 3.09927 70.3608 3.09927C69.7959 3.09927 69.277 3.48483 69.0192 4.06938C68.6925 4.81044 68.6503 5.54768 68.6503 6.36508V12.8929C68.647 13.1353 68.4445 13.3314 68.1966 13.3314H65.8852ZM39.0623 13.3548C38.2917 12.7034 38.1511 12.4009 37.7302 11.7801C36.457 13.1019 35.5528 13.4975 33.9038 13.4975C31.9486 13.4975 30.4303 12.2716 30.4303 9.81651C30.4303 7.89969 31.4489 6.59413 32.9048 5.95662C34.1653 5.39164 35.925 5.29191 37.2698 5.13587V4.83048C37.2698 4.26884 37.3125 3.60461 36.9858 3.11932C36.705 2.68413 36.1631 2.50471 35.6831 2.50471C34.7986 2.50471 34.0116 2.96662 33.8189 3.92336C33.78 4.1357 33.6263 4.34519 33.4144 4.35521L31.1648 4.10946C30.9755 4.06604 30.7631 3.91 30.8189 3.61415C31.3345 0.836971 33.8025 0 36.0098 0C37.1391 0 38.6147 0.305871 39.5062 1.17624C40.6359 2.24894 40.5281 3.68095 40.5281 5.23894V8.9199C40.5281 10.026 40.9786 10.5108 41.4028 11.1087C41.55 11.3215 41.5823 11.5773 41.393 11.7367C40.9195 12.1389 40.0777 12.8862 39.6141 13.3047L39.6108 13.298C39.457 13.4378 39.2353 13.4474 39.0623 13.3548ZM37.2698 7.54085V7.02931C35.5884 7.02931 33.8156 7.39483 33.8156 9.40805C33.8156 10.4278 34.3383 11.1187 35.2294 11.1187C35.8791 11.1187 36.4669 10.7103 36.8358 10.046C37.2928 9.22863 37.2698 8.46133 37.2698 7.54085ZM9.18047 13.298C9.02672 13.4378 8.805 13.4474 8.63203 13.3548C7.86141 12.7034 7.72406 12.4009 7.29984 11.7801C6.02672 13.1019 5.12578 13.4975 3.47344 13.4975C1.52156 13.4975 0 12.2716 0 9.81651C0 7.89969 1.02188 6.59413 2.47453 5.95662C3.735 5.39164 5.49469 5.29191 6.83953 5.13587V4.83048C6.83953 4.26884 6.88219 3.60461 6.55875 3.11932C6.27469 2.68413 5.73281 2.50471 5.25609 2.50471C4.37156 2.50471 3.58125 2.96662 3.38859 3.92336C3.34969 4.1357 3.19594 4.34519 2.98734 4.35521L0.734531 4.10946C0.545156 4.06604 0.336094 3.91 0.388594 3.61415C0.9075 0.836971 3.37266 0 5.57953 0C6.70875 0 8.18437 0.305871 9.07594 1.17624C10.2056 2.24894 10.0978 3.68095 10.0978 5.23894V8.9199C10.0978 10.026 10.5483 10.5108 10.9725 11.1087C11.123 11.3215 11.1553 11.5773 10.9659 11.7367C10.493 12.1389 9.65063 12.8862 9.18703 13.3047L9.18047 13.298ZM6.83953 7.54085V7.02931C5.16141 7.02931 3.38859 7.39483 3.38859 9.40805C3.38859 10.4278 3.90797 11.1187 4.79906 11.1187C5.45203 11.1187 6.03656 10.7103 6.40547 10.046C6.8625 9.22863 6.83953 8.46133 6.83953 7.54085Z" fill="white"/>
</g>
<defs>
<clipPath id="clip0_60_18">
<rect width="75" height="23" fill="white"/>
</clipPath>
</defs>
</svg>
